<?xml version="1.0" encoding="iso-8859-1"?>
<!-- Generator: Adobe Illustrator 19.0.0, SVG Export Plug-In . SVG Version: 6.00 Build 0)  -->
<svg version="1.1" id="Layer_1" xmlns="http://www.w3.org/2000/svg" xmlns:xlink="http://www.w3.org/1999/xlink" x="0px" y="0px"
	 viewBox="0 0 501.333 501.333" style="enable-background:new 0 0 501.333 501.333;" xml:space="preserve">
<rect x="20.267" y="146.133" style="fill:#637888;" width="459.733" height="324.267"/>
<rect x="167.467" y="320" style="fill:#3A5569;" width="167.467" height="150.4"/>
<g>
	<rect x="67.2" y="176" style="fill:#60C3AB;" width="67.2" height="48"/>
	<rect x="167.467" y="176" style="fill:#60C3AB;" width="67.2" height="48"/>
	<rect x="267.733" y="176" style="fill:#60C3AB;" width="67.2" height="48"/>
	<rect x="368" y="176" style="fill:#60C3AB;" width="67.2" height="48"/>
	<rect x="67.2" y="247.467" style="fill:#60C3AB;" width="67.2" height="48"/>
	<rect x="167.467" y="247.467" style="fill:#60C3AB;" width="67.2" height="48"/>
	<rect x="267.733" y="247.467" style="fill:#60C3AB;" width="67.2" height="48"/>
	<rect x="368" y="247.467" style="fill:#60C3AB;" width="67.2" height="48"/>
	<rect x="67.2" y="320" style="fill:#60C3AB;" width="67.2" height="48"/>
	<rect x="368" y="320" style="fill:#60C3AB;" width="67.2" height="48"/>
	<rect x="67.2" y="391.467" style="fill:#60C3AB;" width="67.2" height="48"/>
	<rect x="368" y="391.467" style="fill:#60C3AB;" width="67.2" height="48"/>
</g>
<rect y="133.333" style="fill:#3A5569;" width="501.333" height="21.333"/>
<rect x="109.867" y="101.333" style="fill:#637888;" width="282.667" height="32"/>
<rect x="67.2" y="82.133" style="fill:#3A5569;" width="368" height="19.2"/>
<rect x="241.067" style="fill:#E6D8CC;" width="21.333" height="82.133"/>
<rect x="262.4" style="fill:#F16D6E;" width="89.6" height="51.2"/>
<rect x="2.133" y="469.333" style="fill:#3A5569;" width="497.067" height="32"/>
<g>
</g>
<g>
</g>
<g>
</g>
<g>
</g>
<g>
</g>
<g>
</g>
<g>
</g>
<g>
</g>
<g>
</g>
<g>
</g>
<g>
</g>
<g>
</g>
<g>
</g>
<g>
</g>
<g>
</g>
</svg>
