<?xml version="1.0" encoding="iso-8859-1"?>
<!-- Generator: Adobe Illustrator 19.0.0, SVG Export Plug-In . SVG Version: 6.00 Build 0)  -->
<svg version="1.1" id="Layer_1" xmlns="http://www.w3.org/2000/svg" xmlns:xlink="http://www.w3.org/1999/xlink" x="0px" y="0px"
	 viewBox="0 0 501.333 501.333" style="enable-background:new 0 0 501.333 501.333;" xml:space="preserve">
<rect x="445.867" y="40" style="fill:#FEC656;" width="55.467" height="102.4"/>
<rect x="445.867" y="153.067" style="fill:#60C3AB;" width="55.467" height="102.4"/>
<rect x="445.867" y="267.2" style="fill:#637888;" width="55.467" height="102.4"/>
<path style="fill:#F16D6E;" d="M437.333,0.533h-380.8c-17.067,0-30.933,12.8-30.933,27.733v444.8c0,16,13.867,27.733,30.933,27.733
	h380.8c17.067,0,30.933-12.8,30.933-27.733v-444.8C469.333,13.333,455.467,0.533,437.333,0.533z"/>
<ellipse style="fill:#E14A4A;" cx="54.4" cy="69.867" rx="13.867" ry="20.267"/>
<path style="fill:#637888;" d="M46.933,57.067H13.867C6.4,57.067,0,62.4,0,69.867c0,6.4,6.4,12.8,13.867,12.8H48
	c7.467,0,13.867-5.333,13.867-12.8C60.8,62.4,55.467,57.067,46.933,57.067z"/>
<ellipse style="fill:#E14A4A;" cx="54.4" cy="142.4" rx="13.867" ry="20.267"/>
<path style="fill:#637888;" d="M46.933,129.6H13.867C6.4,129.6,0,134.933,0,142.4c0,6.4,6.4,12.8,13.867,12.8H48
	c7.467,0,13.867-5.333,13.867-12.8C60.8,134.933,55.467,129.6,46.933,129.6z"/>
<ellipse style="fill:#E14A4A;" cx="54.4" cy="214.933" rx="13.867" ry="20.267"/>
<path style="fill:#637888;" d="M46.933,202.133H13.867C6.4,202.133,0,207.467,0,214.933c0,6.4,6.4,12.8,13.867,12.8H48
	c7.467,0,13.867-5.333,13.867-12.8C60.8,208.533,55.467,202.133,46.933,202.133z"/>
<ellipse style="fill:#E14A4A;" cx="54.4" cy="287.467" rx="13.867" ry="20.267"/>
<path style="fill:#637888;" d="M46.933,275.733H13.867C6.4,275.733,0,281.067,0,288.533c0,6.4,6.4,12.8,13.867,12.8H48
	c7.467,0,13.867-5.333,13.867-12.8C60.8,281.067,55.467,275.733,46.933,275.733z"/>
<ellipse style="fill:#E14A4A;" cx="54.4" cy="360" rx="13.867" ry="20.267"/>
<path style="fill:#637888;" d="M46.933,348.267H13.867C6.4,348.267,0,353.6,0,361.067c0,6.4,6.4,12.8,13.867,12.8H48
	c7.467,0,13.867-5.333,13.867-12.8C60.8,353.6,55.467,348.267,46.933,348.267z"/>
<ellipse style="fill:#E14A4A;" cx="54.4" cy="432.533" rx="13.867" ry="20.267"/>
<path style="fill:#637888;" d="M46.933,420.8H13.867C6.4,420.8,0,426.133,0,433.6c0,6.4,6.4,12.8,13.867,12.8H48
	c7.467,0,13.867-5.333,13.867-12.8C60.8,426.133,55.467,420.8,46.933,420.8z"/>
<g>
</g>
<g>
</g>
<g>
</g>
<g>
</g>
<g>
</g>
<g>
</g>
<g>
</g>
<g>
</g>
<g>
</g>
<g>
</g>
<g>
</g>
<g>
</g>
<g>
</g>
<g>
</g>
<g>
</g>
</svg>
