<?xml version="1.0" encoding="iso-8859-1"?>
<!-- Generator: Adobe Illustrator 19.0.0, SVG Export Plug-In . SVG Version: 6.00 Build 0)  -->
<svg version="1.1" id="Layer_1" xmlns="http://www.w3.org/2000/svg" xmlns:xlink="http://www.w3.org/1999/xlink" x="0px" y="0px"
	 viewBox="0 0 501.458 501.458" style="enable-background:new 0 0 501.458 501.458;" xml:space="preserve">
<g>
	<path style="fill:#91573B;" d="M493.929,188.862c11.733-57.6,9.6-118.4-5.333-176c-57.6-14.933-117.333-17.067-176-5.333
		c18.133,38.4,43.733,74.667,75.733,106.667C419.262,145.129,455.529,170.729,493.929,188.862z"/>
	<path style="fill:#91573B;" d="M7.529,312.596c-11.733,57.6-9.6,118.4,5.333,176c57.6,14.933,117.333,17.067,176,5.333
		c-18.133-38.4-43.733-74.667-75.733-106.667C82.196,356.329,45.929,330.729,7.529,312.596z"/>
</g>
<path style="fill:#B06D48;" d="M493.929,188.862c-38.4-18.133-74.667-43.733-106.667-75.733S330.729,44.862,311.529,6.462
	c-72.533,13.867-142.933,50.133-199.467,106.667C56.596,169.662,21.396,240.062,7.529,312.596
	c38.4,18.133,74.667,43.733,106.667,75.733s56.533,68.267,75.733,106.667c72.533-13.867,142.933-50.133,199.467-106.667
	C444.862,331.796,480.062,261.396,493.929,188.862z"/>
<rect x="239.906" y="147.638" transform="matrix(-0.7071 -0.7071 0.7071 -0.7071 251.1076 606.2201)" style="fill:#FEC656;" width="22.4" height="206.931"/>
<g>
</g>
<g>
</g>
<g>
</g>
<g>
</g>
<g>
</g>
<g>
</g>
<g>
</g>
<g>
</g>
<g>
</g>
<g>
</g>
<g>
</g>
<g>
</g>
<g>
</g>
<g>
</g>
<g>
</g>
</svg>
