<?xml version="1.0" encoding="iso-8859-1"?>
<!-- Generator: Adobe Illustrator 19.0.0, SVG Export Plug-In . SVG Version: 6.00 Build 0)  -->
<svg version="1.1" id="Layer_1" xmlns="http://www.w3.org/2000/svg" xmlns:xlink="http://www.w3.org/1999/xlink" x="0px" y="0px"
	 viewBox="0 0 501.333 501.333" style="enable-background:new 0 0 501.333 501.333;" xml:space="preserve">
<rect y="61.867" style="fill:#AFB4B7;" width="417.067" height="348.8"/>
<rect x="78.933" y="128" style="fill:#8A9399;" width="260.267" height="214.4"/>
<g>
	<rect x="89.6" y="312.533" style="fill:#E0E0DF;" width="236.8" height="19.2"/>
	<rect x="117.333" y="373.333" style="fill:#E0E0DF;" width="182.4" height="19.2"/>
	<rect x="117.333" y="440.533" style="fill:#E0E0DF;" width="182.4" height="19.2"/>
	<rect x="112" y="331.733" style="fill:#E0E0DF;" width="18.133" height="169.6"/>
	<rect x="170.667" y="331.733" style="fill:#E0E0DF;" width="18.133" height="169.6"/>
	<rect x="229.333" y="331.733" style="fill:#E0E0DF;" width="18.133" height="169.6"/>
	<rect x="288" y="331.733" style="fill:#E0E0DF;" width="18.133" height="169.6"/>
</g>
<ellipse style="fill:#E0584D;" cx="379.733" cy="128" rx="121.6" ry="128"/>
<path style="fill:#3A5569;" d="M452.267,193.067c-12.8,45.867-34.133,56.533-40.533,58.667c8.533-2.133,17.067-6.4,24.533-10.667
	c7.467-8.533,16-23.467,22.4-48c12.8,1.067,17.067,3.2,20.267,7.467c1.067-2.133,2.133-4.267,4.267-6.4
	c-5.333-6.4-10.667-7.467-22.4-8.533c2.133-8.533,3.2-17.067,5.333-27.733c6.4-1.067,22.4-5.333,33.067-9.6
	c0-2.133,1.067-5.333,1.067-7.467c-9.6,3.2-25.6,7.467-33.067,9.6c1.067-9.6,1.067-19.2,1.067-27.733
	c14.933-8.533,22.4-26.667,23.467-30.933c1.067-1.067,2.133-4.267,3.2-8.533c-2.133-5.333-3.2-9.6-6.4-14.933
	C489.6,78.933,486.4,85.333,486.4,86.4l0,0l-1.067,4.267c0,0-5.333,17.067-18.133,25.6c-3.2-32-16-57.6-27.733-74.667
	c-12.8-19.2-25.6-32-33.067-38.4c-4.267-1.067-9.6-2.133-14.933-2.133c3.2,2.133,6.4,5.333,7.467,6.4
	C409.6,17.067,454.4,57.6,460.8,120.533c-1.067,0-1.067,0-2.133,0c-11.733,3.2-26.667-3.2-42.667-19.2
	c-42.667-42.667-99.2-61.867-119.467-67.2c-1.067,1.067-3.2,3.2-5.333,5.333c14.933,3.2,74.667,20.267,120.533,66.133
	c14.933,14.933,27.733,22.4,40.533,22.4c2.133,0,5.333,0,7.467-1.067c0,0,0,0,1.067,0c0,8.533,0,17.067-1.067,26.667
	c-82.133,16-177.067-13.867-197.333-20.267c-1.067,0-3.2-1.067-5.333-2.133c0,2.133,0,5.333,0,7.467
	c10.667,3.2,77.867,25.6,150.4,25.6c17.067,0,34.133-1.067,50.133-4.267c-1.067,9.6-3.2,18.133-5.333,25.6
	c-17.067,0-36.267,13.867-37.333,14.933l0,0c-35.2,33.067-84.267,32-99.2,30.933c-3.2,0-7.467-1.067-10.667-1.067
	c4.267,3.2,8.533,6.4,12.8,8.533c3.2,0,6.4,0,10.667,0c22.4,0,60.8-4.267,90.667-33.067C422.4,204.8,438.4,194.133,452.267,193.067z
	"/>
<g>
</g>
<g>
</g>
<g>
</g>
<g>
</g>
<g>
</g>
<g>
</g>
<g>
</g>
<g>
</g>
<g>
</g>
<g>
</g>
<g>
</g>
<g>
</g>
<g>
</g>
<g>
</g>
<g>
</g>
</svg>
