<?xml version="1.0" encoding="iso-8859-1"?>
<!-- Generator: Adobe Illustrator 19.0.0, SVG Export Plug-In . SVG Version: 6.00 Build 0)  -->
<svg version="1.1" id="Layer_1" xmlns="http://www.w3.org/2000/svg" xmlns:xlink="http://www.w3.org/1999/xlink" x="0px" y="0px"
	 viewBox="0 0 501.333 501.333" style="enable-background:new 0 0 501.333 501.333;" xml:space="preserve">
<path style="fill:#60C3AB;" d="M413.333,395.733l-35.2-215.467l-29.867,5.333l6.4,35.2l-227.2,35.2l-48-23.467
	c-4.267-2.133-8.533-1.067-11.733,2.133c-3.2,3.2-5.333,7.467-4.267,12.8l26.667,153.6c1.067,5.333,4.267,9.6,8.533,10.667
	l135.467,35.2c1.067,0,2.133,0,2.133,0c3.2,0,7.467-2.133,9.6-5.333l115.2-174.933l22.4,135.467L413.333,395.733z M232,419.2
	l-120.533-30.933l-21.333-121.6L120,281.6c2.133,1.067,4.267,1.067,6.4,1.067L344,249.6L232,419.2z"/>
<g>
	<path style="fill:#424257;" d="M102.933,296.533c-53.333,0-96,45.867-96,102.4s43.733,102.4,96,102.4c53.333,0,96-45.867,96-102.4
		C200,342.4,156.267,296.533,102.933,296.533z M102.933,455.467c-29.867,0-53.333-25.6-53.333-56.533S74.133,342.4,102.933,342.4
		c29.867,0,53.333,25.6,53.333,56.533S132.8,455.467,102.933,455.467z"/>
	<path style="fill:#424257;" d="M404.8,296.533c-53.333,0-96,45.867-96,102.4s43.733,102.4,96,102.4c53.333,0,96-45.867,96-102.4
		S457.067,296.533,404.8,296.533z M404.8,455.467c-29.867,0-53.333-25.6-53.333-56.533S376,342.4,404.8,342.4
		c29.867,0,53.333,25.6,53.333,56.533S433.6,455.467,404.8,455.467z"/>
</g>
<path style="fill:#F16D6E;" d="M233.067,245.333l-54.4-24.533l58.667-71.467L361.067,204.8c3.2,1.067,5.333,2.133,8.533,2.133
	c8.533,0,16-5.333,20.267-13.867c4.267-11.733-1.067-24.533-11.733-29.867L206.4,85.333h-1.067c-6.4-3.2-13.867-3.2-18.133-3.2
	c-3.2,0-12.8,5.333-13.867,6.4c-19.2,23.467-77.867,94.933-77.867,94.933s-9.6,17.067-9.6,33.067
	c-2.133,10.667,4.267,22.4,14.933,27.733l92.8,42.667l46.933,121.6C244.8,419.2,254.4,425.6,264,425.6c3.2,0,6.4-1.067,9.6-2.133
	c12.8-5.333,19.2-21.333,13.867-36.267L233.067,245.333z"/>
<ellipse style="fill:#FEC656;" cx="277.867" cy="50.133" rx="46.933" ry="50.133"/>
<g>
	<path style="fill:#60C3AB;" d="M45.333,394.667c2.133-32,26.667-57.6,57.6-57.6s55.467,25.6,57.6,57.6h46.933
		C205.333,334.933,159.467,288,104,288C47.467,288,1.6,336,0.533,394.667H45.333z"/>
	<path style="fill:#60C3AB;" d="M440,338.133c9.6-9.6,19.2-18.133,28.8-26.667c-18.133-14.933-40.533-24.533-65.067-24.533
		c-57.6,0-104.533,50.133-104.533,112h46.933c0-34.133,26.667-61.867,58.667-61.867c10.667,0,19.2,3.2,27.733,7.467
		C434.667,342.4,437.867,340.267,440,338.133z"/>
</g>
<g>
</g>
<g>
</g>
<g>
</g>
<g>
</g>
<g>
</g>
<g>
</g>
<g>
</g>
<g>
</g>
<g>
</g>
<g>
</g>
<g>
</g>
<g>
</g>
<g>
</g>
<g>
</g>
<g>
</g>
</svg>
