<?xml version="1.0" encoding="iso-8859-1"?>
<!-- Generator: Adobe Illustrator 19.0.0, SVG Export Plug-In . SVG Version: 6.00 Build 0)  -->
<svg version="1.1" id="Layer_1" xmlns="http://www.w3.org/2000/svg" xmlns:xlink="http://www.w3.org/1999/xlink" x="0px" y="0px"
	 viewBox="0 0 501.333 501.333" style="enable-background:new 0 0 501.333 501.333;" xml:space="preserve">
<g>
	<rect x="225.067" style="fill:#91573B;" width="50.133" height="18.133"/>
	<polygon style="fill:#91573B;" points="87.467,501.333 179.2,291.2 139.733,274.133 41.6,501.333 	"/>
	<polygon style="fill:#91573B;" points="459.733,501.333 361.6,274.133 322.133,291.2 413.867,501.333 	"/>
</g>
<rect x="32" y="11.733" style="fill:#F7B044;" width="437.333" height="316.8"/>
<rect x="58.667" y="36.267" style="fill:#4D4E5B;" width="382.933" height="268.8"/>
<rect y="328.533" style="fill:#B06D48;" width="501.333" height="25.6"/>
<g>
	<rect x="284.8" y="293.333" style="fill:#FAECE1;" width="70.4" height="11.733"/>
	<path style="fill:#FAECE1;" d="M115.2,226.133l-1.067-6.4l6.4-8.533c16-20.267,22.4-30.933,20.267-41.6
		c-1.067-7.467-5.333-13.867-16-11.733c-6.4,1.067-11.733,5.333-13.867,8.533l-4.267-6.4c4.267-5.333,10.667-9.6,19.2-10.667
		c14.933-2.133,23.467,7.467,25.6,17.067c2.133,12.8-5.333,25.6-18.133,42.667l-5.333,6.4l0,0l32-5.333l1.067,8.533L115.2,226.133z"
		/>
	<path style="fill:#FAECE1;" d="M194.133,152.533l4.267,25.6l24.533-4.267l1.067,6.4l-24.533,4.267l4.267,26.667l-7.467,1.067
		l-4.267-25.6l-24.533,4.267l-1.067-6.4l24.533-4.267l-4.267-26.667L194.133,152.533z"/>
	<path style="fill:#FAECE1;" d="M237.867,205.867l-1.067-6.4l6.4-8.533c16-20.267,22.4-30.933,20.267-41.6
		c-1.067-7.467-5.333-13.867-16-11.733c-6.4,1.067-11.733,5.333-13.867,8.533l-4.267-6.4c4.267-5.333,10.667-9.6,19.2-10.667
		c14.933-2.133,23.467,7.467,25.6,17.067c2.133,12.8-5.333,25.6-18.133,42.667l-5.333,6.4l0,0l32-5.333l1.067,8.533L237.867,205.867
		z"/>
	<path style="fill:#FAECE1;" d="M288,160l-1.067-6.4l56.533-9.6l1.067,6.4L288,160z M291.2,181.333l-1.067-6.4l56.533-9.6l1.067,6.4
		L291.2,181.333z"/>
</g>
<g>
</g>
<g>
</g>
<g>
</g>
<g>
</g>
<g>
</g>
<g>
</g>
<g>
</g>
<g>
</g>
<g>
</g>
<g>
</g>
<g>
</g>
<g>
</g>
<g>
</g>
<g>
</g>
<g>
</g>
</svg>
