<?xml version="1.0" encoding="iso-8859-1"?>
<!-- Generator: Adobe Illustrator 19.0.0, SVG Export Plug-In . SVG Version: 6.00 Build 0)  -->
<svg version="1.1" id="Layer_1" xmlns="http://www.w3.org/2000/svg" xmlns:xlink="http://www.w3.org/1999/xlink" x="0px" y="0px"
	 viewBox="0 0 501.6 501.6" style="enable-background:new 0 0 501.6 501.6;" xml:space="preserve">
<path style="fill:#F16D6E;" d="M255.067,376.8c17.067,0,35.2,4.267,52.267,1.067c18.133-3.2,35.2-14.933,48-29.867
	c12.8-14.933,21.333-32,28.8-50.133c19.2-41.6,33.067-86.4,32-131.2c0-10.667-2.133-21.333-5.333-32
	C401.2,101.6,373.467,76,340.4,68.533C304.133,60,266.8,72.8,230.533,70.667c-10.667-1.067-21.333-2.133-33.067-3.2
	C167.6,66.4,137.733,79.2,116.4,100.533s-33.067,52.267-32,83.2c1.067,11.733,3.2,24.533,6.4,35.2c11.733,48,36.267,92.8,69.333,128
	C172.933,360.8,187.867,373.6,206,376.8C222,381.067,239.067,376.8,255.067,376.8z"/>
<path style="fill:#3F3333;" d="M249.733,106.933c-2.133,0-4.267-2.133-4.267-4.267c0-4.267,1.067-10.667,0-13.867
	c0-5.333-1.067-11.733-2.133-17.067c-1.067-3.2-1.067-6.4-2.133-9.6c1.067-3.2,0-6.4-1.067-9.6c-1.067-3.2-2.133-6.4-3.2-9.6
	c-1.067-3.2-3.2-6.4-4.267-8.533c-1.067-3.2-3.2-5.333-4.267-7.467c-2.133-2.133-3.2-4.267-4.267-6.4
	C222,18.4,219.867,16.267,218.8,15.2c0,0-1.067-1.067-2.133-2.133c-3.2-3.2-3.2-7.467,0-10.667l0,0c3.2-3.2,8.533-3.2,10.667,0
	c1.067,1.067,2.133,2.133,2.133,3.2c1.067,2.133,3.2,4.267,4.267,6.4c1.067,2.133,3.2,5.333,5.333,7.467
	c1.067,3.2,3.2,5.333,4.267,8.533s3.2,6.4,4.267,9.6s2.133,7.467,3.2,10.667c1.067,3.2,2.133,7.467,2.133,10.667
	C254,62.133,254,66.4,254,69.6c1.067,6.4,1.067,13.867,1.067,19.2c0,3.2-1.067,10.667-1.067,14.933
	C254,105.867,252.933,106.933,249.733,106.933L249.733,106.933z"/>
<path style="fill:#E14A4A;" d="M159.067,134.667c-4.267,2.133-7.467,4.267-11.733,4.267s-8.533-2.133-9.6-6.4
	c0-2.133,0-4.267,1.067-5.333c3.2-6.4,10.667-10.667,17.067-14.933c22.4-11.733,49.067-19.2,73.6-13.867
	c10.667,2.133,21.333,6.4,32,5.333c5.333-1.067,10.667-3.2,16-5.333c22.4-9.6,50.133-9.6,70.4,5.333
	c4.267,3.2,7.467,6.4,11.733,10.667c19.2,21.333,26.667,52.267,25.6,81.067c-2.133,28.8-11.733,57.6-25.6,83.2
	c-3.2,6.4-6.4,12.8-12.8,18.133c-1.067,1.067-2.133,2.133-3.2,1.067c-1.067,0-1.067-1.067-1.067-2.133
	c-6.4-13.867-1.067-29.867,3.2-44.8c4.267-14.933,8.533-29.867,9.6-45.867c1.067-16-2.133-32-10.667-44.8
	c-3.2-5.333-8.533-10.667-13.867-12.8c-4.267-1.067-8.533-1.067-12.8-1.067c-19.2,2.133-37.333,10.667-56.533,6.4
	c-20.267-4.267-35.2-21.333-55.467-26.667C188.933,122.933,172.933,128.267,159.067,134.667z"/>
<path style="fill:#3A5569;" d="M369.2,400.267v-18.133H58.8c-32,0-58.667,26.667-58.667,59.733S25.733,501.6,58.8,501.6h310.4
	v-18.133h-14.933c-22.4-22.4-22.4-60.8,0-83.2L369.2,400.267L369.2,400.267z"/>
<path style="fill:#637888;" d="M150.533,441.867c0-22.4,18.133-41.6,40.533-41.6h310.4v-18.133h-310.4
	c-32,0-58.667,26.667-58.667,59.733l0,0c0,33.067,25.6,59.733,58.667,59.733h310.4v-18.133h-310.4
	C168.667,483.467,150.533,465.333,150.533,441.867z"/>
<path style="fill:#E0E0DF;" d="M191.067,400.267c-22.4,0-40.533,18.133-40.533,41.6c0,22.4,18.133,41.6,40.533,41.6
	c141.867,0,153.6,0,295.467,0c-22.4-22.4-22.4-60.8,0-83.2C344.667,400.267,332.933,400.267,191.067,400.267z"/>
<g>
</g>
<g>
</g>
<g>
</g>
<g>
</g>
<g>
</g>
<g>
</g>
<g>
</g>
<g>
</g>
<g>
</g>
<g>
</g>
<g>
</g>
<g>
</g>
<g>
</g>
<g>
</g>
<g>
</g>
</svg>
