<?xml version="1.0" encoding="iso-8859-1"?>
<!-- Generator: Adobe Illustrator 19.0.0, SVG Export Plug-In . SVG Version: 6.00 Build 0)  -->
<svg version="1.1" id="Layer_1" xmlns="http://www.w3.org/2000/svg" xmlns:xlink="http://www.w3.org/1999/xlink" x="0px" y="0px"
	 viewBox="0 0 502.4 502.4" style="enable-background:new 0 0 502.4 502.4;" xml:space="preserve">
<path style="fill:#F16D6E;" d="M203.2,204.8h-160c-23.467,0-42.667,18.133-42.667,41.6v155.733c0,22.4,19.2,41.6,42.667,41.6h160
	c23.467,0,42.667-18.133,42.667-41.6v-156.8C244.8,222.933,226.667,204.8,203.2,204.8z"/>
<path style="fill:#637888;" d="M372.8,0h-160c-23.467,0-42.667,18.133-42.667,41.6v155.733c0,22.4,19.2,41.6,42.667,41.6h160
	c23.467,0,42.667-18.133,42.667-41.6V41.6C414.4,18.133,395.2,0,372.8,0z"/>
<path style="fill:#53C2EF;" d="M459.2,263.467h-160c-23.467,0-42.667,18.133-42.667,41.6V460.8c0,22.4,19.2,41.6,42.667,41.6h160
	c23.467,0,42.667-18.133,42.667-41.6V305.067C501.867,281.6,482.667,263.467,459.2,263.467z"/>
<g>
	<path style="fill:#FFFFFF;" d="M265.067,147.2l-16,48H228.8L280,43.733h24.533l51.2,151.467H334.4l-16-48L265.067,147.2
		L265.067,147.2z M314.133,131.2L299.2,87.467c-3.2-9.6-5.333-18.133-7.467-26.667l0,0c-2.133,8.533-4.267,18.133-7.467,27.733
		l-14.933,43.733h44.8V131.2z"/>
	<path style="fill:#FFFFFF;" d="M75.2,249.6c8.533-2.133,22.4-3.2,35.2-3.2c19.2,0,32,3.2,41.6,10.667
		c7.467,5.333,12.8,14.933,12.8,26.667c0,14.933-9.6,27.733-25.6,33.067l0,0c13.867,3.2,30.933,14.933,30.933,37.333
		c0,12.8-5.333,22.4-12.8,29.867c-10.667,9.6-27.733,13.867-52.267,13.867c-13.867,0-23.467-1.067-29.867-2.133L75.2,249.6
		L75.2,249.6z M94.4,311.467h18.133c20.267,0,33.067-10.667,33.067-25.6c0-18.133-13.867-24.533-33.067-24.533
		c-8.533,0-13.867,1.067-17.067,1.067v49.067H94.4z M94.4,384c4.267,1.067,9.6,1.067,16,1.067c20.267,0,38.4-7.467,38.4-29.867
		c0-20.267-18.133-28.8-39.467-28.8H94.4V384z"/>
	<path style="fill:#FFFFFF;" d="M436.8,453.333c-7.467,3.2-21.333,7.467-39.467,7.467c-42.667,0-74.667-26.667-74.667-76.8
		c0-46.933,32-78.933,78.933-78.933c19.2,0,30.933,4.267,36.267,6.4l-5.333,16c-7.467-3.2-18.133-6.4-30.933-6.4
		c-35.2,0-58.667,22.4-58.667,61.867c0,37.333,21.333,60.8,57.6,60.8c11.733,0,23.467-2.133,32-6.4L436.8,453.333z"/>
</g>
<g>
</g>
<g>
</g>
<g>
</g>
<g>
</g>
<g>
</g>
<g>
</g>
<g>
</g>
<g>
</g>
<g>
</g>
<g>
</g>
<g>
</g>
<g>
</g>
<g>
</g>
<g>
</g>
<g>
</g>
</svg>
