<?xml version="1.0" encoding="iso-8859-1"?>
<!-- Generator: Adobe Illustrator 19.0.0, SVG Export Plug-In . SVG Version: 6.00 Build 0)  -->
<svg version="1.1" id="Layer_1" xmlns="http://www.w3.org/2000/svg" xmlns:xlink="http://www.w3.org/1999/xlink" x="0px" y="0px"
	 viewBox="0 0 501.333 501.333" style="enable-background:new 0 0 501.333 501.333;" xml:space="preserve">
<path style="fill:#E14A4A;" d="M472.533,39.467H28.8c-11.733,0-20.267,8.533-20.267,19.2v422.4c0,10.667,8.533,20.267,19.2,20.267
	h444.8c10.667,0,19.2-8.533,19.2-20.267v-422.4C492.8,48,484.267,39.467,472.533,39.467z"/>
<path style="fill:#F16D6E;" d="M482.133,39.467c-153.6,0-308.267,0-461.867,0C8.533,39.467,0,48,0,58.667C0,107.733,0,156.8,0,204.8
	c0,10.667,8.533,23.467,19.2,27.733c149.333,55.467,313.6,55.467,462.933,0c10.667-4.267,19.2-16,19.2-27.733
	c0-49.067,0-98.133,0-146.133C501.333,48,492.8,39.467,482.133,39.467z"/>
<g>
	<rect x="97.067" y="185.6" style="fill:#E14A4A;" width="85.333" height="28.8"/>
	<rect x="326.4" y="185.6" style="fill:#E14A4A;" width="85.333" height="28.8"/>
</g>
<rect x="114.133" y="198.4" style="fill:#FEC656;" width="51.2" height="302.933"/>
<path style="fill:#F6F7F8;" d="M89.6,304v72.533h101.333V304H89.6z M170.667,362.667h-60.8v-43.733h60.8V362.667z"/>
<g>
	<path style="fill:#3A5569;" d="M167.467,104.533h-57.6c-20.267,0-37.333-17.067-37.333-37.333V37.333
		C72.533,17.067,89.6,0,109.867,0h57.6C187.733,0,204.8,17.067,204.8,37.333V67.2C204.8,87.467,187.733,104.533,167.467,104.533z"/>
	<path style="fill:#3A5569;" d="M391.467,104.533h-57.6c-20.267,0-37.333-17.067-37.333-37.333V37.333
		C296.533,17.067,313.6,0,333.867,0h57.6C411.733,0,428.8,17.067,428.8,37.333V67.2C428.8,87.467,412.8,104.533,391.467,104.533z"/>
</g>
<rect x="343.467" y="198.4" style="fill:#FEC656;" width="51.2" height="302.933"/>
<path style="fill:#F6F7F8;" d="M318.933,304v72.533h101.333V304H318.933z M398.933,362.667h-60.8v-43.733h60.8V362.667z"/>
<g>
</g>
<g>
</g>
<g>
</g>
<g>
</g>
<g>
</g>
<g>
</g>
<g>
</g>
<g>
</g>
<g>
</g>
<g>
</g>
<g>
</g>
<g>
</g>
<g>
</g>
<g>
</g>
<g>
</g>
</svg>
