<?xml version="1.0" encoding="iso-8859-1"?>
<!-- Generator: Adobe Illustrator 19.0.0, SVG Export Plug-In . SVG Version: 6.00 Build 0)  -->
<svg version="1.1" id="Layer_1" xmlns="http://www.w3.org/2000/svg" xmlns:xlink="http://www.w3.org/1999/xlink" x="0px" y="0px"
	 viewBox="0 0 502.4 502.4" style="enable-background:new 0 0 502.4 502.4;" xml:space="preserve">
<path style="fill:#E0E0DF;" d="M414.933,0h-326.4c-11.733,0-22.4,9.6-22.4,22.4V480c0,11.733,9.6,22.4,22.4,22.4h325.333
	c11.733,0,22.4-9.6,22.4-22.4V22.4C436.267,9.6,426.667,0,414.933,0z"/>
<g>
	<rect x="119.467" y="51.2" style="fill:#637888;" width="263.467" height="150.4"/>
	<rect x="119.467" y="240" style="fill:#637888;" width="51.2" height="51.2"/>
	<rect x="190.933" y="240" style="fill:#637888;" width="51.2" height="51.2"/>
	<rect x="261.333" y="240" style="fill:#637888;" width="51.2" height="51.2"/>
	<rect x="331.733" y="240" style="fill:#637888;" width="51.2" height="51.2"/>
	<rect x="119.467" y="316.8" style="fill:#637888;" width="51.2" height="51.2"/>
	<rect x="190.933" y="316.8" style="fill:#637888;" width="51.2" height="51.2"/>
	<rect x="261.333" y="316.8" style="fill:#637888;" width="51.2" height="51.2"/>
	<rect x="331.733" y="316.8" style="fill:#637888;" width="51.2" height="51.2"/>
	<rect x="119.467" y="393.6" style="fill:#637888;" width="51.2" height="51.2"/>
	<rect x="190.933" y="393.6" style="fill:#637888;" width="51.2" height="51.2"/>
	<rect x="261.333" y="393.6" style="fill:#637888;" width="51.2" height="51.2"/>
	<rect x="331.733" y="354.133" style="fill:#637888;" width="51.2" height="90.667"/>
</g>
<g>
</g>
<g>
</g>
<g>
</g>
<g>
</g>
<g>
</g>
<g>
</g>
<g>
</g>
<g>
</g>
<g>
</g>
<g>
</g>
<g>
</g>
<g>
</g>
<g>
</g>
<g>
</g>
<g>
</g>
</svg>
