<?xml version="1.0" encoding="iso-8859-1"?>
<!-- Generator: Adobe Illustrator 19.0.0, SVG Export Plug-In . SVG Version: 6.00 Build 0)  -->
<svg version="1.1" id="Layer_1" xmlns="http://www.w3.org/2000/svg" xmlns:xlink="http://www.w3.org/1999/xlink" x="0px" y="0px"
	 viewBox="0 0 501.333 501.333" style="enable-background:new 0 0 501.333 501.333;" xml:space="preserve">
<rect y="48" style="fill:#E14A4A;" width="501.333" height="88.533"/>
<rect y="136.533" style="fill:#F9E1B7;" width="501.333" height="364.8"/>
<g>
	<rect x="88.533" y="215.467" style="fill:#637888;" width="39.467" height="39.467"/>
	<rect x="183.467" y="215.467" style="fill:#637888;" width="39.467" height="39.467"/>
	<rect x="278.4" y="215.467" style="fill:#637888;" width="39.467" height="39.467"/>
	<rect x="373.333" y="215.467" style="fill:#637888;" width="39.467" height="39.467"/>
	<rect x="88.533" y="299.733" style="fill:#637888;" width="39.467" height="39.467"/>
	<rect x="183.467" y="299.733" style="fill:#637888;" width="39.467" height="39.467"/>
	<rect x="278.4" y="299.733" style="fill:#637888;" width="39.467" height="39.467"/>
	<rect x="373.333" y="299.733" style="fill:#637888;" width="39.467" height="39.467"/>
	<rect x="88.533" y="382.933" style="fill:#637888;" width="39.467" height="39.467"/>
	<rect x="183.467" y="382.933" style="fill:#637888;" width="39.467" height="39.467"/>
	<rect x="278.4" y="382.933" style="fill:#637888;" width="39.467" height="39.467"/>
	<rect x="373.333" y="382.933" style="fill:#637888;" width="39.467" height="39.467"/>
</g>
<circle style="fill:#BC3331;" cx="133.333" cy="92.8" r="28.8"/>
<path style="fill:#637888;" d="M133.333,0c-10.667,0-19.2,8.533-19.2,19.2v70.4c0,10.667,8.533,19.2,19.2,19.2
	c10.667,0,19.2-8.533,19.2-19.2V19.2C152.533,8.533,144,0,133.333,0z"/>
<circle style="fill:#BC3331;" cx="368" cy="92.8" r="28.8"/>
<path style="fill:#637888;" d="M368,0c-10.667,0-19.2,8.533-19.2,19.2v70.4c0,10.667,8.533,19.2,19.2,19.2
	c10.667,0,19.2-8.533,19.2-19.2V19.2C386.133,8.533,378.667,0,368,0z"/>
<g>
</g>
<g>
</g>
<g>
</g>
<g>
</g>
<g>
</g>
<g>
</g>
<g>
</g>
<g>
</g>
<g>
</g>
<g>
</g>
<g>
</g>
<g>
</g>
<g>
</g>
<g>
</g>
<g>
</g>
</svg>
