<?xml version="1.0" encoding="iso-8859-1"?>
<!-- Generator: Adobe Illustrator 19.0.0, SVG Export Plug-In . SVG Version: 6.00 Build 0)  -->
<svg version="1.1" id="Layer_1" xmlns="http://www.w3.org/2000/svg" xmlns:xlink="http://www.w3.org/1999/xlink" x="0px" y="0px"
	 viewBox="0 0 501.333 501.333" style="enable-background:new 0 0 501.333 501.333;" xml:space="preserve">
<polygon style="fill:#E7E7E7;" points="361.6,435.2 0,435.2 0,0 172.8,0 361.6,0 "/>
<g>
	<rect x="64" y="81.067" style="fill:#BEC3C6;" width="232.533" height="10.667"/>
	<rect x="64" y="146.133" style="fill:#BEC3C6;" width="232.533" height="10.667"/>
	<rect x="64" y="212.267" style="fill:#BEC3C6;" width="232.533" height="10.667"/>
	<rect x="64" y="277.333" style="fill:#BEC3C6;" width="232.533" height="10.667"/>
	<rect x="64" y="343.467" style="fill:#BEC3C6;" width="232.533" height="10.667"/>
</g>
<polygon style="fill:#F05453;" points="426.667,501.333 376.533,470.4 326.4,501.333 326.4,326.4 426.667,326.4 "/>
<polygon style="fill:#60C3AB;" points="373.333,174.933 400,155.733 417.067,183.467 449.067,178.133 453.333,210.133 
	484.267,217.6 475.733,248.533 501.333,268.8 480,293.333 496,321.067 466.133,334.933 469.333,368 436.267,369.067 425.6,398.933 
	395.733,387.2 373.333,410.667 350.933,387.2 321.067,398.933 310.4,369.067 277.333,368 279.467,334.933 250.667,321.067 
	266.667,293.333 244.267,268.8 270.933,248.533 261.333,217.6 293.333,210.133 297.6,178.133 329.6,183.467 346.667,155.733 "/>
<ellipse style="fill:#E6D8CC;" cx="373.333" cy="282.667" rx="84.267" ry="84.267"/>
<ellipse style="fill:#E14A4A;" cx="373.333" cy="282.667" rx="57.6" ry="57.6"/>
<g>
</g>
<g>
</g>
<g>
</g>
<g>
</g>
<g>
</g>
<g>
</g>
<g>
</g>
<g>
</g>
<g>
</g>
<g>
</g>
<g>
</g>
<g>
</g>
<g>
</g>
<g>
</g>
<g>
</g>
</svg>
