<?xml version="1.0" encoding="iso-8859-1"?>
<!-- Generator: Adobe Illustrator 19.0.0, SVG Export Plug-In . SVG Version: 6.00 Build 0)  -->
<svg version="1.1" id="Layer_1" xmlns="http://www.w3.org/2000/svg" xmlns:xlink="http://www.w3.org/1999/xlink" x="0px" y="0px"
	 viewBox="0 0 502.4 502.4" style="enable-background:new 0 0 502.4 502.4;" xml:space="preserve">
<path style="fill:#F05453;" d="M458.667,40.533C432,14.933,395.733,1.067,357.333,1.067S282.667,14.933,256,40.533L6.4,274.133
	C2.133,278.4,0,282.667,0,288c0,5.333,2.133,10.667,6.4,13.867c8.533,7.467,22.4,7.467,29.867,0l249.6-232.533
	c19.2-18.133,44.8-27.733,71.467-27.733S409.6,51.2,428.8,69.333s29.867,41.6,29.867,67.2S448,185.6,428.8,203.733l-249.6,233.6
	c-1.067,1.067-2.133,2.133-3.2,3.2c-1.067,1.067-2.133,1.067-3.2,2.133c-12.8,12.8-30.933,19.2-50.133,19.2s-36.267-6.4-50.133-19.2
	c-27.733-25.6-27.733-67.2,0-92.8l225.067-211.2c0,0,0-1.067,1.067-1.067c0,0,1.067,0,1.067-1.067
	c14.933-13.867,41.6-13.867,56.533,0c16,14.933,16,38.4,0,53.333L131.2,402.133c-4.267,4.267-6.4,8.533-6.4,13.867
	s2.133,10.667,6.4,13.867c4.267,4.267,9.6,6.4,14.933,6.4c5.333,0,10.667-2.133,14.933-6.4l225.067-211.2
	c32-29.867,32-78.933,0-109.867c-16-14.933-36.267-22.4-58.667-22.4S284.8,94.933,268.8,108.8c0,0,0,1.067-1.067,1.067
	c0,0-1.067,0-1.067,1.067L43.733,321.067C22.4,341.333,10.667,368,10.667,395.733c0,28.8,11.733,55.467,33.067,74.667
	c21.333,20.267,50.133,30.933,80,30.933s58.667-10.667,80-30.933c1.067-1.067,2.133-2.133,3.2-3.2
	c1.067-1.067,2.133-1.067,3.2-2.133l249.6-233.6c26.667-25.6,42.667-59.733,42.667-96S486.4,66.133,458.667,40.533z"/>
<g>
</g>
<g>
</g>
<g>
</g>
<g>
</g>
<g>
</g>
<g>
</g>
<g>
</g>
<g>
</g>
<g>
</g>
<g>
</g>
<g>
</g>
<g>
</g>
<g>
</g>
<g>
</g>
<g>
</g>
</svg>
