<?xml version="1.0" encoding="iso-8859-1"?>
<!-- Generator: Adobe Illustrator 19.0.0, SVG Export Plug-In . SVG Version: 6.00 Build 0)  -->
<svg version="1.1" id="Layer_1" xmlns="http://www.w3.org/2000/svg" xmlns:xlink="http://www.w3.org/1999/xlink" x="0px" y="0px"
	 viewBox="0 0 501.333 501.333" style="enable-background:new 0 0 501.333 501.333;" xml:space="preserve">
<g>
	<polygon style="fill:#53C2EF;" points="126.4,501.333 373.867,501.333 396.267,358.4 104,358.4 	"/>
	<polygon style="fill:#53C2EF;" points="438.933,82.133 61.333,82.133 79.467,202.667 420.8,202.667 	"/>
</g>
<polygon style="fill:#637888;" points="79.467,202.667 104,358.4 396.267,358.4 420.8,202.667 "/>
<polygon style="fill:#F16D6E;" points="373.867,0 126.4,0 61.333,82.133 438.933,82.133 "/>
<ellipse style="fill:#FFFFFF;" cx="250.133" cy="280.533" rx="83.2" ry="132.267"/>
<polygon style="fill:#E0E0DF;" points="431.467,60.8 68.8,60.8 61.333,82.133 438.933,82.133 "/>
<path style="fill:#637888;" d="M428.267,37.333H72c-8.533,0-14.933,6.4-14.933,14.933S63.467,66.133,72,66.133h357.333
	c8.533,0,14.933-6.4,14.933-13.867S436.8,37.333,428.267,37.333z"/>
<g>
</g>
<g>
</g>
<g>
</g>
<g>
</g>
<g>
</g>
<g>
</g>
<g>
</g>
<g>
</g>
<g>
</g>
<g>
</g>
<g>
</g>
<g>
</g>
<g>
</g>
<g>
</g>
<g>
</g>
</svg>
