<?xml version="1.0" encoding="iso-8859-1"?>
<!-- Generator: Adobe Illustrator 19.0.0, SVG Export Plug-In . SVG Version: 6.00 Build 0)  -->
<svg version="1.1" id="Layer_1" xmlns="http://www.w3.org/2000/svg" xmlns:xlink="http://www.w3.org/1999/xlink" x="0px" y="0px"
	 viewBox="0 0 501.333 501.333" style="enable-background:new 0 0 501.333 501.333;" xml:space="preserve">
<rect x="56.533" y="327.467" style="fill:#E14A4A;" width="388.267" height="16"/>
<g>
	<path style="fill:#4D4E5B;" d="M180.267,182.4l-72.533,140.8c-22.4,43.733-33.067,91.733-29.867,139.733l2.133,38.4l146.133-284.8
		C209.067,209.067,194.133,196.267,180.267,182.4z"/>
	<path style="fill:#4D4E5B;" d="M321.067,181.333c-10.667,17.067-25.6,32-43.733,38.4l144,281.6l2.133-38.4
		C425.6,413.867,416,365.867,393.6,323.2L321.067,181.333z"/>
	<rect x="230.4" style="fill:#4D4E5B;" width="41.6" height="72.533"/>
</g>
<path style="fill:#F16D6E;" d="M250.667,48c-56.533,0-102.4,45.867-102.4,102.4s45.867,102.4,102.4,102.4s102.4-45.867,102.4-102.4
	S307.2,48,250.667,48z M250.667,201.6c-27.733,0-51.2-22.4-51.2-51.2s22.4-51.2,51.2-51.2c27.733,0,51.2,22.4,51.2,51.2
	S278.4,201.6,250.667,201.6z"/>
<rect x="237.867" y="293.333" style="fill:#C93C3A;" width="26.667" height="96"/>
<g>
</g>
<g>
</g>
<g>
</g>
<g>
</g>
<g>
</g>
<g>
</g>
<g>
</g>
<g>
</g>
<g>
</g>
<g>
</g>
<g>
</g>
<g>
</g>
<g>
</g>
<g>
</g>
<g>
</g>
</svg>
