<?xml version="1.0" encoding="iso-8859-1"?>
<!-- Generator: Adobe Illustrator 19.0.0, SVG Export Plug-In . SVG Version: 6.00 Build 0)  -->
<svg version="1.1" id="Layer_1" xmlns="http://www.w3.org/2000/svg" xmlns:xlink="http://www.w3.org/1999/xlink" x="0px" y="0px"
	 viewBox="0 0 501.333 501.333" style="enable-background:new 0 0 501.333 501.333;" xml:space="preserve">
<polygon style="fill:#E0E0DF;" points="501.333,501.333 92.8,501.333 92.8,0 334.933,0 501.333,154.667 "/>
<polygon style="fill:#637888;" points="334.933,0 334.933,154.667 501.333,154.667 "/>
<rect y="306.133" style="fill:#F16D6E;" width="281.6" height="11.733"/>
<g>
	<path style="fill:#4D4E5B;" d="M89.6,201.6L37.333,302.933C21.333,333.867,13.867,368,16,403.2l1.067,27.733l106.667-204.8
		C110.933,220.8,99.2,211.2,89.6,201.6z"/>
	<path style="fill:#4D4E5B;" d="M192,200.533c-7.467,12.8-18.133,22.4-32,27.733l105.6,202.667l1.067-27.733
		c2.133-35.2-5.333-69.333-22.4-100.267L192,200.533z"/>
	<rect x="125.867" y="70.4" style="fill:#4D4E5B;" width="29.867" height="52.267"/>
</g>
<g>
	<path style="fill:#F16D6E;" d="M140.8,105.6c-40.533,0-74.667,33.067-74.667,73.6S99.2,252.8,140.8,252.8
		c40.533,0,74.667-33.067,74.667-73.6S182.4,105.6,140.8,105.6z M140.8,215.467c-20.267,0-37.333-16-37.333-36.267
		s17.067-36.267,37.333-36.267s37.333,16,37.333,36.267S161.067,215.467,140.8,215.467z"/>
	<rect x="131.2" y="281.6" style="fill:#F16D6E;" width="19.2" height="69.333"/>
</g>
<g>
</g>
<g>
</g>
<g>
</g>
<g>
</g>
<g>
</g>
<g>
</g>
<g>
</g>
<g>
</g>
<g>
</g>
<g>
</g>
<g>
</g>
<g>
</g>
<g>
</g>
<g>
</g>
<g>
</g>
</svg>
