<?xml version="1.0" encoding="iso-8859-1"?>
<!-- Generator: Adobe Illustrator 19.0.0, SVG Export Plug-In . SVG Version: 6.00 Build 0)  -->
<svg version="1.1" id="Layer_1" xmlns="http://www.w3.org/2000/svg" xmlns:xlink="http://www.w3.org/1999/xlink" x="0px" y="0px"
	 viewBox="0 0 500.267 500.267" style="enable-background:new 0 0 500.267 500.267;" xml:space="preserve">
<rect x="224.533" y="312.533" style="fill:#637888;" width="43.733" height="81.067"/>
<g>
	<circle style="fill:#3F3333;" cx="108.267" cy="476.8" r="23.467"/>
	<circle style="fill:#3F3333;" cx="245.867" cy="476.8" r="23.467"/>
	<circle style="fill:#3F3333;" cx="384.533" cy="476.8" r="23.467"/>
</g>
<path style="fill:#E6D8CC;" d="M114.667,302.933L114.667,302.933c-24.533,0-43.733-19.2-43.733-43.733v-77.867H88V259.2
	c0,14.933,12.8,27.733,27.733,27.733l0,0c9.6,0,11.733,0,11.733,0s-1.067,0-2.133,1.067l8.533,13.867
	C131.733,301.867,129.6,302.933,114.667,302.933z"/>
<path style="fill:#3A5569;" d="M83.733,160h-9.6C64.533,160,56,168.533,56,178.133c0,4.267,3.2,8.533,8.533,8.533H94.4
	c4.267,0,8.533-3.2,8.533-8.533C102.933,167.467,94.4,160,83.733,160z"/>
<path style="fill:#E6D8CC;" d="M385.6,302.933L385.6,302.933c24.533,0,43.733-19.2,43.733-43.733v-77.867h-17.067V259.2
	c0,14.933-12.8,27.733-27.733,27.733l0,0c-9.6,0-11.733,0-11.733,0s1.067,0,2.133,1.067l-8.533,13.867
	C368.533,301.867,370.667,302.933,385.6,302.933z"/>
<path style="fill:#3A5569;" d="M416.533,160h9.6c9.6,0,18.133,8.533,18.133,18.133c0,4.267-3.2,8.533-8.533,8.533h-29.867
	c-4.267,0-8.533-3.2-8.533-8.533C397.333,167.467,405.867,160,416.533,160z"/>
<rect x="217.067" y="148.267" style="fill:#E6D8CC;" width="58.667" height="123.733"/>
<g>
	<path style="fill:#637888;" d="M384.533,485.333c-6.4,0-10.667-5.333-10.667-10.667c0-40.533-58.667-74.667-126.933-74.667
		S120,434.133,120,474.667c0,6.4-5.333,10.667-10.667,10.667c-6.4,0-10.667-5.333-10.667-10.667
		c0-54.4,65.067-97.067,149.333-97.067s149.333,42.667,149.333,97.067C395.2,481.067,389.867,485.333,384.533,485.333z"/>
	<path style="fill:#637888;" d="M245.867,485.333c-6.4,0-10.667-5.333-10.667-10.667V312.533c0-6.4,5.333-10.667,10.667-10.667
		c5.333,0,10.667,5.333,10.667,10.667v162.133C257.6,481.067,252.267,485.333,245.867,485.333z"/>
</g>
<path style="fill:#3A5569;" d="M336.533,252.8H156.267c-22.4,0-41.6,18.133-41.6,41.6c0,22.4,18.133,41.6,41.6,41.6h180.267
	c22.4,0,41.6-18.133,41.6-41.6C378.133,270.933,358.933,252.8,336.533,252.8z"/>
<path style="fill:#637888;" d="M283.2,172.8h-74.667c-36.267,0-65.067-28.8-65.067-65.067V65.067C143.467,28.8,172.267,0,208.533,0
	H283.2c36.267,0,65.067,28.8,65.067,65.067v42.667C349.333,144,319.467,172.8,283.2,172.8z"/>
<g>
</g>
<g>
</g>
<g>
</g>
<g>
</g>
<g>
</g>
<g>
</g>
<g>
</g>
<g>
</g>
<g>
</g>
<g>
</g>
<g>
</g>
<g>
</g>
<g>
</g>
<g>
</g>
<g>
</g>
</svg>
