<?xml version="1.0" encoding="iso-8859-1"?>
<!-- Generator: Adobe Illustrator 19.0.0, SVG Export Plug-In . SVG Version: 6.00 Build 0)  -->
<svg version="1.1" id="Layer_1" xmlns="http://www.w3.org/2000/svg" xmlns:xlink="http://www.w3.org/1999/xlink" x="0px" y="0px"
	 viewBox="0 0 501.333 501.333" style="enable-background:new 0 0 501.333 501.333;" xml:space="preserve">
<g>
	<rect x="172.8" y="138.667" style="fill:#EF9F2C;" width="29.867" height="136.533"/>
	<rect x="353.067" y="138.667" style="fill:#EF9F2C;" width="29.867" height="136.533"/>
	<polygon style="fill:#EF9F2C;" points="180.267,501.333 148.267,501.333 161.067,308.267 192,308.267 	"/>
	<polygon style="fill:#EF9F2C;" points="375.467,501.333 406.4,501.333 393.6,308.267 362.667,308.267 	"/>
	<rect x="172.8" y="409.6" style="fill:#EF9F2C;" width="209.067" height="17.067"/>
</g>
<path style="fill:#FEC656;" d="M379.733,0h-204.8c-5.333,0-9.6,4.267-9.6,9.6v120.533c0,5.333,4.267,9.6,9.6,9.6h204.8
	c5.333,0,9.6-4.267,9.6-9.6V9.6C389.333,4.267,385.067,0,379.733,0z"/>
<g>
	<rect x="94.933" y="154.667" style="fill:#C57C2A;" width="150.4" height="30.933"/>
	<polygon style="fill:#C57C2A;" points="171.733,291.2 94.933,209.067 94.933,169.6 119.467,169.6 119.467,197.333 188.8,272 	"/>
</g>
<rect x="161.067" y="257.067" style="fill:#FEC656;" width="233.6" height="51.2"/>
<g>
</g>
<g>
</g>
<g>
</g>
<g>
</g>
<g>
</g>
<g>
</g>
<g>
</g>
<g>
</g>
<g>
</g>
<g>
</g>
<g>
</g>
<g>
</g>
<g>
</g>
<g>
</g>
<g>
</g>
</svg>
