<?xml version="1.0" encoding="iso-8859-1"?>
<!-- Generator: Adobe Illustrator 19.0.0, SVG Export Plug-In . SVG Version: 6.00 Build 0)  -->
<svg version="1.1" id="Layer_1" xmlns="http://www.w3.org/2000/svg" xmlns:xlink="http://www.w3.org/1999/xlink" x="0px" y="0px"
	 viewBox="0 0 501.333 501.333" style="enable-background:new 0 0 501.333 501.333;" xml:space="preserve">
<rect y="54.933" style="fill:#E6D8CC;" width="501.333" height="391.467"/>
<rect x="48" y="97.6" style="fill:#FFFFFF;" width="405.333" height="306.133"/>
<path style="fill:#F7B044;" d="M460.8,409.067H40.533V93.333h419.2v315.733H460.8z M51.2,399.467h400V102.933h-400V399.467z"/>
<g>
	<circle style="fill:#EF9F2C;" cx="37.333" cy="88" r="10.667"/>
	<circle style="fill:#EF9F2C;" cx="59.733" cy="88" r="10.667"/>
	<circle style="fill:#EF9F2C;" cx="82.133" cy="88" r="10.667"/>
	<circle style="fill:#EF9F2C;" cx="104.533" cy="88" r="10.667"/>
	<circle style="fill:#EF9F2C;" cx="126.933" cy="88" r="10.667"/>
	<circle style="fill:#EF9F2C;" cx="149.333" cy="88" r="10.667"/>
	<circle style="fill:#EF9F2C;" cx="171.733" cy="88" r="10.667"/>
	<circle style="fill:#EF9F2C;" cx="194.133" cy="88" r="10.667"/>
	<circle style="fill:#EF9F2C;" cx="216.533" cy="88" r="10.667"/>
	<circle style="fill:#EF9F2C;" cx="238.933" cy="88" r="10.667"/>
	<circle style="fill:#EF9F2C;" cx="262.4" cy="88" r="10.667"/>
	<circle style="fill:#EF9F2C;" cx="284.8" cy="88" r="10.667"/>
	<circle style="fill:#EF9F2C;" cx="307.2" cy="88" r="10.667"/>
	<circle style="fill:#EF9F2C;" cx="329.6" cy="88" r="10.667"/>
	<circle style="fill:#EF9F2C;" cx="352" cy="88" r="10.667"/>
	<circle style="fill:#EF9F2C;" cx="374.4" cy="88" r="10.667"/>
	<circle style="fill:#EF9F2C;" cx="396.8" cy="88" r="10.667"/>
	<circle style="fill:#EF9F2C;" cx="419.2" cy="88" r="10.667"/>
	<circle style="fill:#EF9F2C;" cx="441.6" cy="88" r="10.667"/>
	<circle style="fill:#EF9F2C;" cx="464" cy="88" r="10.667"/>
	<ellipse style="fill:#EF9F2C;" cx="32" cy="108.267" rx="10.667" ry="10.667"/>
	<ellipse style="fill:#EF9F2C;" cx="32" cy="130.667" rx="10.667" ry="10.667"/>
	<ellipse style="fill:#EF9F2C;" cx="32" cy="152" rx="10.667" ry="10.667"/>
	<ellipse style="fill:#EF9F2C;" cx="32" cy="174.4" rx="10.667" ry="10.667"/>
	<ellipse style="fill:#EF9F2C;" cx="32" cy="195.733" rx="10.667" ry="10.667"/>
	<ellipse style="fill:#EF9F2C;" cx="32" cy="218.133" rx="10.667" ry="10.667"/>
	<ellipse style="fill:#EF9F2C;" cx="32" cy="240.533" rx="10.667" ry="10.667"/>
	<ellipse style="fill:#EF9F2C;" cx="32" cy="261.867" rx="10.667" ry="10.667"/>
	<ellipse style="fill:#EF9F2C;" cx="32" cy="284.267" rx="10.667" ry="10.667"/>
	<ellipse style="fill:#EF9F2C;" cx="32" cy="306.667" rx="10.667" ry="10.667"/>
	<ellipse style="fill:#EF9F2C;" cx="32" cy="328" rx="10.667" ry="10.667"/>
	<ellipse style="fill:#EF9F2C;" cx="32" cy="350.4" rx="10.667" ry="10.667"/>
	<ellipse style="fill:#EF9F2C;" cx="32" cy="371.733" rx="10.667" ry="10.667"/>
	<ellipse style="fill:#EF9F2C;" cx="32" cy="394.133" rx="10.667" ry="10.667"/>
	<ellipse style="fill:#EF9F2C;" cx="469.333" cy="108.267" rx="10.667" ry="10.667"/>
	<ellipse style="fill:#EF9F2C;" cx="469.333" cy="130.667" rx="10.667" ry="10.667"/>
	<ellipse style="fill:#EF9F2C;" cx="469.333" cy="152" rx="10.667" ry="10.667"/>
	<ellipse style="fill:#EF9F2C;" cx="469.333" cy="174.4" rx="10.667" ry="10.667"/>
	<ellipse style="fill:#EF9F2C;" cx="469.333" cy="195.733" rx="10.667" ry="10.667"/>
	<ellipse style="fill:#EF9F2C;" cx="469.333" cy="218.133" rx="10.667" ry="10.667"/>
	<ellipse style="fill:#EF9F2C;" cx="469.333" cy="240.533" rx="10.667" ry="10.667"/>
	<ellipse style="fill:#EF9F2C;" cx="469.333" cy="261.867" rx="10.667" ry="10.667"/>
	<ellipse style="fill:#EF9F2C;" cx="469.333" cy="284.267" rx="10.667" ry="10.667"/>
	<ellipse style="fill:#EF9F2C;" cx="469.333" cy="306.667" rx="10.667" ry="10.667"/>
	<ellipse style="fill:#EF9F2C;" cx="469.333" cy="328" rx="10.667" ry="10.667"/>
	<ellipse style="fill:#EF9F2C;" cx="469.333" cy="350.4" rx="10.667" ry="10.667"/>
	<ellipse style="fill:#EF9F2C;" cx="469.333" cy="371.733" rx="10.667" ry="10.667"/>
	<ellipse style="fill:#EF9F2C;" cx="469.333" cy="394.133" rx="10.667" ry="10.667"/>
	<circle style="fill:#EF9F2C;" cx="37.333" cy="414.4" r="10.667"/>
	<circle style="fill:#EF9F2C;" cx="59.733" cy="414.4" r="10.667"/>
	<circle style="fill:#EF9F2C;" cx="82.133" cy="414.4" r="10.667"/>
	<circle style="fill:#EF9F2C;" cx="104.533" cy="414.4" r="10.667"/>
	<circle style="fill:#EF9F2C;" cx="126.933" cy="414.4" r="10.667"/>
	<circle style="fill:#EF9F2C;" cx="149.333" cy="414.4" r="10.667"/>
	<circle style="fill:#EF9F2C;" cx="171.733" cy="414.4" r="10.667"/>
	<circle style="fill:#EF9F2C;" cx="194.133" cy="414.4" r="10.667"/>
	<circle style="fill:#EF9F2C;" cx="216.533" cy="414.4" r="10.667"/>
	<circle style="fill:#EF9F2C;" cx="238.933" cy="414.4" r="10.667"/>
	<circle style="fill:#EF9F2C;" cx="262.4" cy="414.4" r="10.667"/>
	<circle style="fill:#EF9F2C;" cx="284.8" cy="414.4" r="10.667"/>
	<circle style="fill:#EF9F2C;" cx="307.2" cy="414.4" r="10.667"/>
	<circle style="fill:#EF9F2C;" cx="329.6" cy="414.4" r="10.667"/>
	<circle style="fill:#EF9F2C;" cx="352" cy="414.4" r="10.667"/>
	<circle style="fill:#EF9F2C;" cx="374.4" cy="414.4" r="10.667"/>
	<circle style="fill:#EF9F2C;" cx="396.8" cy="414.4" r="10.667"/>
	<circle style="fill:#EF9F2C;" cx="419.2" cy="414.4" r="10.667"/>
	<circle style="fill:#EF9F2C;" cx="441.6" cy="414.4" r="10.667"/>
	<circle style="fill:#EF9F2C;" cx="464" cy="414.4" r="10.667"/>
</g>
<path style="fill:#E6D8CC;" d="M368,207.467C343.467,164.8,298.667,139.2,249.6,139.2c-48,0-92.8,25.6-117.333,67.2l-17.067-9.6
	c27.733-46.933,78.933-76.8,134.4-76.8s107.733,29.867,135.467,77.867L368,207.467z"/>
<g>
	<rect x="87.467" y="267.2" style="fill:#E0E0DF;" width="326.4" height="9.6"/>
	<rect x="87.467" y="307.733" style="fill:#E0E0DF;" width="84.267" height="9.6"/>
</g>
<g>
	<rect x="326.4" y="362.133" style="fill:#53C2EF;" width="84.267" height="9.6"/>
	<rect x="87.467" y="362.133" style="fill:#53C2EF;" width="84.267" height="9.6"/>
</g>
<rect x="238.933" y="307.733" style="fill:#E0E0DF;" width="173.867" height="9.6"/>
<ellipse style="fill:#F16D6E;" cx="250.667" cy="206.4" rx="28.8" ry="38.4"/>
<g>
</g>
<g>
</g>
<g>
</g>
<g>
</g>
<g>
</g>
<g>
</g>
<g>
</g>
<g>
</g>
<g>
</g>
<g>
</g>
<g>
</g>
<g>
</g>
<g>
</g>
<g>
</g>
<g>
</g>
</svg>
