<?xml version="1.0" encoding="iso-8859-1"?>
<!-- Generator: Adobe Illustrator 19.0.0, SVG Export Plug-In . SVG Version: 6.00 Build 0)  -->
<svg version="1.1" id="Layer_1" xmlns="http://www.w3.org/2000/svg" xmlns:xlink="http://www.w3.org/1999/xlink" x="0px" y="0px"
	 viewBox="0 0 502.4 502.4" style="enable-background:new 0 0 502.4 502.4;" xml:space="preserve">
<path style="fill:#60C3AB;" d="M322.667,250.667C451.733,172.8,444.267,44.8,436.8,0h-61.867v1.067
	c2.133,6.4,41.6,150.4-123.733,217.6C88,152.533,125.333,7.467,127.467,1.067V0H65.6c-7.467,44.8-14.933,172.8,114.133,250.667
	C50.667,328.533,58.133,456.533,65.6,501.333h61.867v-1.067C125.333,493.867,88,348.8,251.2,283.733
	c163.2,66.133,125.867,211.2,123.733,217.6v1.067H436.8C444.267,456.533,451.733,328.533,322.667,250.667z"/>
<path style="fill:#FEC656;" d="M342.933,0H159.467c-8.533,0-14.933,6.4-14.933,14.933s6.4,14.933,14.933,14.933h183.467
	c8.533,0,14.933-6.4,14.933-14.933S351.467,0,342.933,0z"/>
<path style="fill:#60C3AB;" d="M336.533,70.4H165.867c-8.533,0-14.933,6.4-14.933,14.933s6.4,14.933,14.933,14.933h170.667
	c8.533,0,14.933-6.4,14.933-14.933S345.067,70.4,336.533,70.4z"/>
<path style="fill:#F16D6E;" d="M282.133,140.8h-60.8c-8.533,0-14.933,6.4-14.933,14.933s6.4,14.933,14.933,14.933h60.8
	c8.533,0,14.933-6.4,14.933-14.933C296,148.267,289.6,140.8,282.133,140.8z"/>
<path style="fill:#FEC656;" d="M159.467,501.333h183.467c8.533,0,14.933-6.4,14.933-14.933c0-8.533-6.4-14.933-14.933-14.933
	H159.467c-8.533,0-14.933,6.4-14.933,14.933C144.533,494.933,150.933,501.333,159.467,501.333z"/>
<path style="fill:#60C3AB;" d="M165.867,430.933h170.667c8.533,0,14.933-6.4,14.933-14.933c0-8.533-6.4-14.933-14.933-14.933
	H165.867c-8.533,0-14.933,6.4-14.933,14.933C150.933,424.533,157.333,430.933,165.867,430.933z"/>
<path style="fill:#F16D6E;" d="M220.267,360.533h60.8c8.533,0,14.933-6.4,14.933-14.933c0-8.533-6.4-14.933-14.933-14.933h-60.8
	c-8.533,0-14.933,6.4-14.933,14.933C206.4,353.067,212.8,360.533,220.267,360.533z"/>
<g>
</g>
<g>
</g>
<g>
</g>
<g>
</g>
<g>
</g>
<g>
</g>
<g>
</g>
<g>
</g>
<g>
</g>
<g>
</g>
<g>
</g>
<g>
</g>
<g>
</g>
<g>
</g>
<g>
</g>
</svg>
