<?xml version="1.0" encoding="iso-8859-1"?>
<!-- Generator: Adobe Illustrator 19.0.0, SVG Export Plug-In . SVG Version: 6.00 Build 0)  -->
<svg version="1.1" id="Layer_1" xmlns="http://www.w3.org/2000/svg" xmlns:xlink="http://www.w3.org/1999/xlink" x="0px" y="0px"
	 viewBox="0 0 501.333 501.333" style="enable-background:new 0 0 501.333 501.333;" xml:space="preserve">
<g>
	<path style="fill:#2FC0E9;" d="M452.8,56.533c6.4-6.4,9.6-14.933,9.6-23.467S459.2,16,452.8,9.6c-12.8-12.8-34.133-12.8-46.933,0
		L363.2,52.267l10.667,4.267L414.4,16c8.533-8.533,23.467-8.533,32,0c4.267,4.267,6.4,9.6,6.4,16s-2.133,11.733-6.4,16
		l-27.733,27.733l17.067-2.133L452.8,56.533z"/>
	<path style="fill:#2FC0E9;" d="M318.4,97.067c-17.067,17.067-17.067,44.8,0,61.867c8.533,8.533,20.267,12.8,30.933,12.8
		c11.733,0,22.4-4.267,30.933-12.8L443.2,97.067l-7.467-7.467L372.8,152.533c-12.8,12.8-34.133,12.8-46.933,0
		c-12.8-12.8-12.8-34.133,0-46.933L372.8,58.667L362.133,54.4L318.4,97.067z"/>
</g>
<path style="fill:#E0E0DF;" d="M389.867,46.933H58.133c-10.667,0-19.2,8.533-19.2,19.2v416c0,10.667,8.533,19.2,19.2,19.2h331.733
	c10.667,0,19.2-8.533,19.2-19.2v-416C409.067,55.467,400.533,46.933,389.867,46.933z"/>
<path style="fill:#2FC0E9;" d="M397.333,66.133l-7.467-7.467l-51.2,51.2c-8.533,8.533-8.533,22.4,0,30.933
	c8.533,8.533,22.4,8.533,30.933,0l65.067-65.067L417.6,77.867l-55.467,55.467c-4.267,4.267-11.733,4.267-16,0
	c-4.267-4.267-4.267-11.733,0-16L397.333,66.133z"/>
<g>
	<rect x="117.867" y="178.133" style="fill:#B6BCBC;" width="212.267" height="21.333"/>
	<rect x="117.867" y="332.8" style="fill:#B6BCBC;" width="212.267" height="21.333"/>
	<rect x="117.867" y="410.667" style="fill:#B6BCBC;" width="212.267" height="21.333"/>
	<rect x="117.867" y="256" style="fill:#B6BCBC;" width="212.267" height="21.333"/>
</g>
<g>
</g>
<g>
</g>
<g>
</g>
<g>
</g>
<g>
</g>
<g>
</g>
<g>
</g>
<g>
</g>
<g>
</g>
<g>
</g>
<g>
</g>
<g>
</g>
<g>
</g>
<g>
</g>
<g>
</g>
</svg>
