<?xml version="1.0" encoding="iso-8859-1"?>
<!-- Generator: Adobe Illustrator 19.0.0, SVG Export Plug-In . SVG Version: 6.00 Build 0)  -->
<svg version="1.1" id="Layer_1" xmlns="http://www.w3.org/2000/svg" xmlns:xlink="http://www.w3.org/1999/xlink" x="0px" y="0px"
	 viewBox="0 0 500.267 500.267" style="enable-background:new 0 0 500.267 500.267;" xml:space="preserve">
<path style="fill:#E7F5F6;" d="M452.808,436.267L303.475,194.133V38.4H196.808v156.8L47.475,436.267c-17.067,27.733,3.2,64,35.2,64
	h333.867C449.608,500.267,469.875,464,452.808,436.267z"/>
<path style="fill:#C5DBDD;" d="M306.675,38.4c10.667,0,19.2-8.533,19.2-19.2S317.342,0,306.675,0H193.608
	c-10.667,0-19.2,8.533-19.2,19.2s8.533,19.2,19.2,19.2h3.2h106.667H306.675z"/>
<path style="fill:#60C3AB;" d="M336.542,297.6h-172.8L69.875,450.133c-4.267,7.467-2.133,13.867,0,16
	c1.067,2.133,5.333,8.533,13.867,8.533h333.867c8.533,0,12.8-5.333,13.867-8.533c1.067-2.133,4.267-8.533,0-16L336.542,297.6z"/>
<g>
	<circle style="fill:#FFFFFF;" cx="256.542" cy="230.4" r="19.2"/>
	<circle style="fill:#FFFFFF;" cx="310.942" cy="347.733" r="19.2"/>
	<circle style="fill:#FFFFFF;" cx="200.008" cy="385.067" r="9.6"/>
	<circle style="fill:#FFFFFF;" cx="264.008" cy="420.267" r="7.467"/>
	<circle style="fill:#FFFFFF;" cx="225.608" cy="138.667" r="11.733"/>
	<circle style="fill:#FFFFFF;" cx="260.808" cy="87.467" r="20.267"/>
</g>
<g>
</g>
<g>
</g>
<g>
</g>
<g>
</g>
<g>
</g>
<g>
</g>
<g>
</g>
<g>
</g>
<g>
</g>
<g>
</g>
<g>
</g>
<g>
</g>
<g>
</g>
<g>
</g>
<g>
</g>
</svg>
