<?xml version="1.0" encoding="iso-8859-1"?>
<!-- Generator: Adobe Illustrator 19.0.0, SVG Export Plug-In . SVG Version: 6.00 Build 0)  -->
<svg version="1.1" id="Layer_1" xmlns="http://www.w3.org/2000/svg" xmlns:xlink="http://www.w3.org/1999/xlink" x="0px" y="0px"
	 viewBox="0 0 501.333 501.333" style="enable-background:new 0 0 501.333 501.333;" xml:space="preserve">
<g>
	
		<rect x="170.233" y="315.641" transform="matrix(-0.9659 -0.2588 0.2588 -0.9659 251.6405 828.6707)" style="fill:#637888;" width="20.266" height="164.262"/>
	
		<rect x="346.302" y="387.554" transform="matrix(-0.2586 -0.966 0.966 -0.2586 155.068 914.3915)" style="fill:#637888;" width="164.269" height="20.267"/>
</g>
<g>
	<rect x="245.867" y="35.2" style="fill:#E6D8CC;" width="118.4" height="20.267"/>
	<polygon style="fill:#E6D8CC;" points="341.867,178.133 341.867,44.8 268.267,44.8 268.267,178.133 245.867,206.933 
		364.267,206.933 	"/>
</g>
<path style="fill:#F7B044;" d="M364.267,206.933h-118.4l-70.4,90.667c-17.067,22.4-11.733,39.467,12.8,39.467h234.667
	c24.533,0,29.867-18.133,12.8-39.467L364.267,206.933z"/>
<g>
	<path style="fill:#637888;" d="M50.667,0C45.333,0,40,4.267,40,10.667v470.4h20.267v-470.4C61.333,4.267,56,0,50.667,0z"/>
	<path style="fill:#637888;" d="M382.4,118.4H44.267v20.267H382.4c5.333,0,10.667-4.267,10.667-10.667
		C393.067,122.667,387.733,118.4,382.4,118.4z"/>
</g>
<g>
	<circle style="fill:#FFFFFF;" cx="284.267" cy="261.333" r="16"/>
	<circle style="fill:#FFFFFF;" cx="346.133" cy="293.333" r="9.6"/>
	<circle style="fill:#FFFFFF;" cx="323.733" cy="189.867" r="9.6"/>
	<circle style="fill:#FFFFFF;" cx="291.733" cy="161.067" r="5.333"/>
	<circle style="fill:#FFFFFF;" cx="297.067" cy="88.533" r="9.6"/>
	<circle style="fill:#FFFFFF;" cx="240.533" cy="302.933" r="5.333"/>
</g>
<rect x="10.133" y="459.733" style="fill:#3A5569;" width="481.067" height="41.6"/>
<g>
</g>
<g>
</g>
<g>
</g>
<g>
</g>
<g>
</g>
<g>
</g>
<g>
</g>
<g>
</g>
<g>
</g>
<g>
</g>
<g>
</g>
<g>
</g>
<g>
</g>
<g>
</g>
<g>
</g>
</svg>
