<?xml version="1.0" encoding="iso-8859-1"?>
<!-- Generator: Adobe Illustrator 19.0.0, SVG Export Plug-In . SVG Version: 6.00 Build 0)  -->
<svg version="1.1" id="Layer_1" xmlns="http://www.w3.org/2000/svg" xmlns:xlink="http://www.w3.org/1999/xlink" x="0px" y="0px"
	 viewBox="0 0 501.333 501.333" style="enable-background:new 0 0 501.333 501.333;" xml:space="preserve">
<path style="fill:#E3E8E8;" d="M379.733,148.267C394.667,134.4,403.2,115.2,403.2,94.933v-48H250.667H99.2v48
	c0,20.267,8.533,39.467,23.467,53.333l90.667,83.2c11.733,10.667,11.733,28.8,0,39.467l-90.667,83.2
	C107.733,368,99.2,387.2,99.2,407.467v48h151.467h151.467v-48c0-20.267-8.533-39.467-23.467-53.333L288,270.933
	c-11.733-10.667-11.733-28.8,0-39.467L379.733,148.267z"/>
<g>
	<path style="fill:#53C2EF;" d="M250.667,227.2c3.2-8.533,8.533-14.933,14.933-21.333L332.8,144H168.533l67.2,61.867
		C242.133,212.267,247.467,219.733,250.667,227.2z"/>
	<path style="fill:#53C2EF;" d="M265.6,329.6c-6.4-6.4-11.733-12.8-14.933-21.333c-3.2,8.533-8.533,14.933-14.933,21.333
		l-90.667,83.2c-7.467,7.467-11.733,17.067-11.733,27.733V454.4H368v-13.867c0-10.667-4.267-20.267-11.733-27.733L265.6,329.6z"/>
</g>
<g>
	<path style="fill:#637888;" d="M435.2,0H66.133c-18.133,0-32,13.867-32,30.933l0,0c0,17.067,13.867,30.933,32,30.933h370.133
		c17.067,0,30.933-13.867,30.933-30.933l0,0C467.2,13.867,453.333,0,435.2,0z"/>
	<path style="fill:#637888;" d="M435.2,439.467H66.133c-17.067,0-30.933,13.867-30.933,30.933l0,0
		c0,17.067,13.867,30.933,30.933,30.933h370.133c17.067,0,30.933-13.867,30.933-30.933l0,0
		C467.2,453.333,453.333,439.467,435.2,439.467z"/>
</g>
<g>
	<rect x="73.6" y="61.867" style="fill:#FEC656;" width="17.067" height="376.533"/>
	<rect x="410.667" y="61.867" style="fill:#FEC656;" width="17.067" height="376.533"/>
</g>
<g>
</g>
<g>
</g>
<g>
</g>
<g>
</g>
<g>
</g>
<g>
</g>
<g>
</g>
<g>
</g>
<g>
</g>
<g>
</g>
<g>
</g>
<g>
</g>
<g>
</g>
<g>
</g>
<g>
</g>
</svg>
