<?xml version="1.0" encoding="iso-8859-1"?>
<!-- Generator: Adobe Illustrator 19.0.0, SVG Export Plug-In . SVG Version: 6.00 Build 0)  -->
<svg version="1.1" id="Layer_1" xmlns="http://www.w3.org/2000/svg" xmlns:xlink="http://www.w3.org/1999/xlink" x="0px" y="0px"
	 viewBox="0 0 501.333 501.333" style="enable-background:new 0 0 501.333 501.333;" xml:space="preserve">
<path style="fill:#637888;" d="M452.267,133.333h-403.2c-8.533,0-14.933,6.4-14.933,14.933V438.4c0,8.533,6.4,14.933,14.933,14.933
	h403.2c8.533,0,14.933-6.4,14.933-14.933V148.267C467.2,139.733,460.8,133.333,452.267,133.333z"/>
<path style="fill:#53C2EF;" d="M49.067,438.4L49.067,438.4V148.267c0,0,0-1.067,1.067-1.067h403.2c0,0,1.067,0,1.067,1.067V438.4
	c0,0,0,1.067-1.067,1.067L49.067,438.4L49.067,438.4z"/>
<rect y="453.333" style="fill:#3A5569;" width="500.267" height="32"/>
<g>
	<polygon style="fill:#637888;" points="482.133,501.333 19.2,501.333 0,485.333 501.333,485.333 	"/>
	<path style="fill:#637888;" d="M315.733,464H185.6c-3.2,0-5.333,2.133-5.333,5.333l0,0c0,3.2,2.133,5.333,5.333,5.333h130.133
		c3.2,0,5.333-2.133,5.333-5.333l0,0C321.067,466.133,318.933,464,315.733,464z"/>
</g>
<polygon style="fill:#E0E0DF;" points="315.733,0 122.667,0 122.667,329.6 378.667,329.6 378.667,62.933 "/>
<polygon style="fill:#B4BFBF;" points="315.733,62.933 378.667,62.933 315.733,0 "/>
<rect x="178.133" y="113.067" style="fill:#8A9AA3;" width="146.133" height="7.467"/>
<rect x="178.133" y="73.6" style="fill:#F16D6E;" width="87.467" height="7.467"/>
<g>
	<rect x="178.133" y="152.533" style="fill:#8A9AA3;" width="146.133" height="7.467"/>
	<rect x="178.133" y="192" style="fill:#8A9AA3;" width="146.133" height="7.467"/>
	<rect x="178.133" y="230.4" style="fill:#8A9AA3;" width="146.133" height="7.467"/>
	<rect x="178.133" y="269.867" style="fill:#8A9AA3;" width="146.133" height="7.467"/>
</g>
<polygon style="fill:#3A5569;" points="332.8,340.267 363.733,418.133 375.467,381.867 411.733,370.133 "/>
<g>
</g>
<g>
</g>
<g>
</g>
<g>
</g>
<g>
</g>
<g>
</g>
<g>
</g>
<g>
</g>
<g>
</g>
<g>
</g>
<g>
</g>
<g>
</g>
<g>
</g>
<g>
</g>
<g>
</g>
</svg>
