<?xml version="1.0" encoding="iso-8859-1"?>
<!-- Generator: Adobe Illustrator 19.0.0, SVG Export Plug-In . SVG Version: 6.00 Build 0)  -->
<svg version="1.1" id="Layer_1" xmlns="http://www.w3.org/2000/svg" xmlns:xlink="http://www.w3.org/1999/xlink" x="0px" y="0px"
	 viewBox="0 0 501.333 501.333" style="enable-background:new 0 0 501.333 501.333;" xml:space="preserve">
<path style="fill:#B06D48;" d="M384,145.067c-8.533,0-16-7.467-16-16c0-54.4-52.267-98.133-116.267-98.133
	s-116.267,43.733-116.267,98.133c0,8.533-7.467,16-16,16s-18.133-6.4-18.133-14.933C101.333,58.667,168.533,0,250.667,0
	S400,58.667,400,130.133C400,138.667,392.533,145.067,384,145.067z"/>
<rect x="24.533" y="155.733" style="fill:#E0E0DF;" width="452.267" height="312.533"/>
<g>
	<polygon style="fill:#637888;" points="124.8,360.533 105.6,352 160,247.467 179.2,257.067 	"/>
	<polygon style="fill:#637888;" points="273.067,353.067 176,259.2 190.933,244.267 288,338.133 	"/>
	<polygon style="fill:#637888;" points="337.067,353.067 317.867,342.4 365.867,261.333 384,270.933 	"/>
	<rect y="122.667" style="fill:#637888;" width="501.333" height="33.067"/>
	<rect y="468.267" style="fill:#637888;" width="501.333" height="33.067"/>
</g>
<ellipse style="fill:#BE85BA;" cx="101.333" cy="385.067" rx="43.733" ry="42.667"/>
<ellipse style="fill:#80C350;" cx="179.2" cy="232.533" rx="34.133" ry="33.067"/>
<ellipse style="fill:#F16D6E;" cx="298.667" cy="371.2" rx="52.267" ry="50.133"/>
<ellipse style="fill:#53C2EF;" cx="394.667" cy="243.2" rx="49.067" ry="46.933"/>
<g>
</g>
<g>
</g>
<g>
</g>
<g>
</g>
<g>
</g>
<g>
</g>
<g>
</g>
<g>
</g>
<g>
</g>
<g>
</g>
<g>
</g>
<g>
</g>
<g>
</g>
<g>
</g>
<g>
</g>
</svg>
