<?xml version="1.0" encoding="iso-8859-1"?>
<!-- Generator: Adobe Illustrator 19.0.0, SVG Export Plug-In . SVG Version: 6.00 Build 0)  -->
<svg version="1.1" id="Layer_1" xmlns="http://www.w3.org/2000/svg" xmlns:xlink="http://www.w3.org/1999/xlink" x="0px" y="0px"
	 viewBox="0 0 502.667 502.667" style="enable-background:new 0 0 502.667 502.667;" xml:space="preserve">
<path style="fill:#F16D6E;" d="M133.067,312.533l-120.533,121.6c-16,16-16,40.533,0,56.533s40.533,16,56.533,0l121.6-121.6
	L133.067,312.533z M32.8,469.333c-6.4-6.4-6.4-18.133,0-24.533c6.4-6.4,18.133-6.4,24.533,0c6.4,6.4,6.4,18.133,0,24.533
	C50.933,475.733,40.267,475.733,32.8,469.333z"/>
<path style="fill:#F05453;" d="M155.467,252.8L128.8,279.467c-12.8,12.8-12.8,32,0,44.8l50.133,50.133c12.8,12.8,32,12.8,44.8,0
	l26.667-26.667L155.467,252.8z"/>
<circle style="fill:#E0E0DF;" cx="315.467" cy="186.667" r="129.067"/>
<path style="fill:#637888;" d="M447.733,54.4C375.2-18.133,256.8-18.133,184.267,54.4s-72.533,190.933,0,263.467
	s190.933,72.533,263.467,0C520.267,245.333,520.267,126.933,447.733,54.4z M224.8,277.333c-50.133-50.133-50.133-131.2,0-181.333
	S356,45.867,406.133,96s50.133,131.2,0,181.333S274.933,327.467,224.8,277.333z"/>
<g>
</g>
<g>
</g>
<g>
</g>
<g>
</g>
<g>
</g>
<g>
</g>
<g>
</g>
<g>
</g>
<g>
</g>
<g>
</g>
<g>
</g>
<g>
</g>
<g>
</g>
<g>
</g>
<g>
</g>
</svg>
