<?xml version="1.0" encoding="iso-8859-1"?>
<!-- Generator: Adobe Illustrator 19.0.0, SVG Export Plug-In . SVG Version: 6.00 Build 0)  -->
<svg version="1.1" id="Layer_1" xmlns="http://www.w3.org/2000/svg" xmlns:xlink="http://www.w3.org/1999/xlink" x="0px" y="0px"
	 viewBox="0 0 502.4 502.4" style="enable-background:new 0 0 502.4 502.4;" xml:space="preserve">
<g>
	<path style="fill:#36A0C1;" d="M330.667,338.533L326.4,333.2l-2.133,6.4l-6.4,2.133l4.267,4.267l-33.067,117.333
		c0,0,97.067-6.4,139.733,24.533l36.267-38.4c-28.8-44.8-23.467-147.2-23.467-147.2L330.667,338.533z"/>
	<path style="fill:#36A0C1;" d="M166.4,14.267c-17.067-18.133-45.867-18.133-62.933,0L12.8,109.2c-17.067,18.133-17.067,48,0,66.133
		l5.333,5.333L171.733,19.6L166.4,14.267z"/>
</g>
<polygon style="fill:#53C2EF;" points="19.2,179.6 289.067,464.4 442.667,303.333 171.733,19.6 "/>
<polygon style="fill:#F05453;" points="429.867,487.867 442.667,501.733 502.4,480.4 465.067,450.533 "/>
<g>
</g>
<g>
</g>
<g>
</g>
<g>
</g>
<g>
</g>
<g>
</g>
<g>
</g>
<g>
</g>
<g>
</g>
<g>
</g>
<g>
</g>
<g>
</g>
<g>
</g>
<g>
</g>
<g>
</g>
</svg>
