<?xml version="1.0" encoding="iso-8859-1"?>
<!-- Generator: Adobe Illustrator 19.0.0, SVG Export Plug-In . SVG Version: 6.00 Build 0)  -->
<svg version="1.1" id="Layer_1" xmlns="http://www.w3.org/2000/svg" xmlns:xlink="http://www.w3.org/1999/xlink" x="0px" y="0px"
	 viewBox="0 0 501.461 501.461" style="enable-background:new 0 0 501.461 501.461;" xml:space="preserve">
<g>
	<rect x="184.064" y="379.861" style="fill:#3A5569;" width="107.733" height="108.8"/>
	<rect x="115.797" y="330.794" style="fill:#3A5569;" width="177.067" height="38.4"/>
</g>
<path style="fill:#E0E0DF;" d="M303.531,178.261h-43.733v38.4h43.733c39.467,0,70.4,32,70.4,70.4c0,39.467-32,70.4-70.4,70.4
	H173.397v38.4h130.133c59.733,0,108.8-49.067,108.8-108.8C412.331,227.328,363.264,178.261,303.531,178.261z"/>
<g>
	<path style="fill:#3A5569;" d="M385.664,501.461c-29.867-28.8-84.267-48-148.267-48c-62.933,0-118.4,19.2-148.267,48H385.664z"/>
	
		<rect x="172.167" y="236.829" transform="matrix(-0.9351 -0.3543 0.3543 -0.9351 305.8575 582.9902)" style="fill:#3A5569;" width="68.265" height="53.332"/>
	
		<rect x="263.021" y="5.528" transform="matrix(-0.9351 -0.3543 0.3543 -0.9351 537.2124 201.1467)" style="fill:#3A5569;" width="47.999" height="91.731"/>
</g>
<rect x="183.036" y="82.211" transform="matrix(-0.9351 -0.3543 0.3543 -0.9351 404.4069 419.7947)" style="fill:#E0E0DF;" width="115.197" height="181.328"/>
<circle style="fill:#3A5569;" cx="288.597" cy="193.194" r="44.8"/>
<g>
</g>
<g>
</g>
<g>
</g>
<g>
</g>
<g>
</g>
<g>
</g>
<g>
</g>
<g>
</g>
<g>
</g>
<g>
</g>
<g>
</g>
<g>
</g>
<g>
</g>
<g>
</g>
<g>
</g>
</svg>
