<?xml version="1.0" encoding="iso-8859-1"?>
<!-- Generator: Adobe Illustrator 19.0.0, SVG Export Plug-In . SVG Version: 6.00 Build 0)  -->
<svg version="1.1" id="Layer_1" xmlns="http://www.w3.org/2000/svg" xmlns:xlink="http://www.w3.org/1999/xlink" x="0px" y="0px"
	 viewBox="0 0 501.6 501.6" style="enable-background:new 0 0 501.6 501.6;" xml:space="preserve">
<rect x="0.133" y="57.6" style="fill:#637888;" width="501.333" height="369.067"/>
<rect x="21.467" y="78.933" style="fill:#F6F7F8;" width="458.667" height="326.4"/>
<rect x="308.4" y="78.933" style="fill:#E14A4A;" width="20.267" height="326.4"/>
<rect x="85.467" y="141.867" style="fill:#60C3AB;" width="81.067" height="10.667"/>
<g>
	<rect x="85.467" y="189.867" style="fill:#E0E0DF;" width="164.267" height="10.667"/>
	<rect x="85.467" y="237.867" style="fill:#E0E0DF;" width="164.267" height="10.667"/>
	<rect x="85.467" y="285.867" style="fill:#E0E0DF;" width="164.267" height="10.667"/>
	<rect x="85.467" y="333.867" style="fill:#E0E0DF;" width="164.267" height="10.667"/>
</g>
<path style="fill:#F6BA51;" d="M391.6,477.867c4.267-2.133,9.6-4.267,14.933-4.267s10.667,1.067,14.933,4.267l22.4-45.867l0,0l0,0
	c-2.133,2.133-6.4,3.2-10.667,3.2c-6.4,0-10.667-3.2-13.867-7.467c-2.133,4.267-7.467,7.467-13.867,7.467S394.8,432,391.6,427.733
	c-2.133,4.267-7.467,7.467-13.867,7.467c-4.267,0-7.467-1.067-10.667-3.2l0,0l0,0L391.6,477.867z"/>
<g>
	<path style="fill:#80C350;" d="M391.6,477.867l10.667,21.333c2.133,3.2,7.467,3.2,8.533,0l10.667-21.333
		c-4.267-2.133-9.6-4.267-14.933-4.267C401.2,473.6,395.867,474.667,391.6,477.867z"/>
	<path style="fill:#80C350;" d="M369.2,20.267v410.667c2.133,2.133,6.4,3.2,10.667,3.2c6.4,0,10.667-3.2,13.867-7.467
		c2.133,4.267,7.467,7.467,13.867,7.467c6.4,0,10.667-3.2,13.867-7.467c2.133,4.267,7.467,7.467,13.867,7.467
		c4.267,0,7.467-1.067,10.667-3.2V20.267l0,0l0,0V19.2C446,8.533,428.933,0,408.667,0c-20.267,0-37.333,8.533-37.333,19.2
		C369.2,19.2,369.2,19.2,369.2,20.267L369.2,20.267L369.2,20.267z"/>
</g>
<g>
</g>
<g>
</g>
<g>
</g>
<g>
</g>
<g>
</g>
<g>
</g>
<g>
</g>
<g>
</g>
<g>
</g>
<g>
</g>
<g>
</g>
<g>
</g>
<g>
</g>
<g>
</g>
<g>
</g>
</svg>
