<?xml version="1.0" encoding="iso-8859-1"?>
<!-- Generator: Adobe Illustrator 19.0.0, SVG Export Plug-In . SVG Version: 6.00 Build 0)  -->
<svg version="1.1" id="Layer_1" xmlns="http://www.w3.org/2000/svg" xmlns:xlink="http://www.w3.org/1999/xlink" x="0px" y="0px"
	 viewBox="0 0 480.935 480.935" style="enable-background:new 0 0 480.935 480.935;" xml:space="preserve">
<path style="fill:#8C5233;" d="M74.261,51.2c14.933,2.133,29.867,1.067,44.8,3.2c26.667,3.2,52.267,18.133,68.267,40.533
	c13.867,20.267,19.2,45.867,23.467,69.333c1.067,4.267,1.067,8.533,1.067,12.8c-1.067,3.2-2.133,6.4-3.2,9.6
	c-8.533,18.133-17.067,36.267-25.6,53.333c-1.067,3.2-3.2,6.4-5.333,7.467c-2.133,2.133-5.333-4.267-8.533-3.2
	c-56.533,12.8-121.6-48-125.867-54.4C-13.206,117.333,0.661,39.467,12.394,0C21.994,26.667,46.528,45.867,74.261,51.2z"/>
<path style="fill:#F16D6E;" d="M355.861,268.8c90.667,80,142.933,170.667,116.267,201.6c-26.667,30.933-121.6-8.533-212.267-88.533
	c-7.467-6.4-14.933-12.8-21.333-20.267l94.933-112C341.994,256,349.461,261.333,355.861,268.8z"/>
<path style="fill:#E0E0DF;" d="M239.594,361.6c-41.6-39.467-72.533-81.067-88.533-115.2l59.733-70.4
	c35.2,11.733,78.933,37.333,123.733,73.6L239.594,361.6z"/>
<path style="fill:#B06D48;" d="M136.128,224c0,0-106.667-27.733-114.133-136.533c0,0,30.933,49.067,78.933,53.333
	c48,4.267,73.6,14.933,70.4,40.533L138.261,220.8L136.128,224z"/>
<g>
</g>
<g>
</g>
<g>
</g>
<g>
</g>
<g>
</g>
<g>
</g>
<g>
</g>
<g>
</g>
<g>
</g>
<g>
</g>
<g>
</g>
<g>
</g>
<g>
</g>
<g>
</g>
<g>
</g>
</svg>
