<?xml version="1.0" encoding="iso-8859-1"?>
<!-- Generator: Adobe Illustrator 19.0.0, SVG Export Plug-In . SVG Version: 6.00 Build 0)  -->
<svg version="1.1" id="Layer_1" xmlns="http://www.w3.org/2000/svg" xmlns:xlink="http://www.w3.org/1999/xlink" x="0px" y="0px"
	 viewBox="0 0 501.6 501.6" style="enable-background:new 0 0 501.6 501.6;" xml:space="preserve">
<rect x="295.311" y="134.401" transform="matrix(-0.7071 0.7071 -0.7071 -0.7071 656.7878 123.6843)" style="fill:#E0E0DF;" width="14.933" height="126.932"/>
<path style="fill:#F16D6E;" d="M483.2,108.533c24.533-24.533,24.533-65.067,0-89.6s-65.067-24.533-89.6,0L263.467,148l89.6,89.6
	L483.2,108.533z"/>
<path style="fill:#FEC656;" d="M126.933,474.4l61.867-90.667l-36.267-36.267L116.267,311.2l-89.6,62.933
	c0,0,14.933,49.067-19.2,115.2L96,399.733c-3.2-6.4-3.2-13.867,2.133-19.2c6.4-6.4,16-6.4,22.4,0c6.4,6.4,6.4,16,0,22.4
	c-5.333,5.333-12.8,6.4-19.2,2.133l-89.6,89.6C78.933,459.467,126.933,474.4,126.933,474.4z"/>
<path style="fill:#637888;" d="M120.533,402.933c6.4-6.4,6.4-16,0-22.4c-6.4-6.4-16-6.4-22.4,0c-5.333,5.333-6.4,12.8-2.133,19.2
	l-89.6,89.6C4.267,493.6,2.133,496.8,0,501.067c4.267-2.133,7.467-4.267,11.733-6.4l89.6-89.6
	C106.667,409.333,115.2,408.267,120.533,402.933z"/>
<g>
	
		<rect x="361.684" y="56.489" transform="matrix(-0.7071 -0.7071 0.7071 -0.7071 691.1933 422.7453)" style="fill:#3A5569;" width="142.932" height="23.466"/>
	
		<rect x="377.703" y="56.456" transform="matrix(-0.7071 -0.7071 0.7071 -0.7071 569.8299 504.6757)" style="fill:#3A5569;" width="23.466" height="155.732"/>
</g>
<polygon style="fill:#F16D6E;" points="341.333,246.133 254.933,159.733 133.333,287.733 213.333,367.733 "/>
<polygon style="fill:#E0E0DF;" points="133.333,287.733 114.133,308 193.067,386.933 213.333,367.733 "/>
<g>
</g>
<g>
</g>
<g>
</g>
<g>
</g>
<g>
</g>
<g>
</g>
<g>
</g>
<g>
</g>
<g>
</g>
<g>
</g>
<g>
</g>
<g>
</g>
<g>
</g>
<g>
</g>
<g>
</g>
</svg>
