<?xml version="1.0" encoding="iso-8859-1"?>
<!-- Generator: Adobe Illustrator 19.0.0, SVG Export Plug-In . SVG Version: 6.00 Build 0)  -->
<svg version="1.1" id="Layer_1" xmlns="http://www.w3.org/2000/svg" xmlns:xlink="http://www.w3.org/1999/xlink" x="0px" y="0px"
	 viewBox="0 0 503.467 503.467" style="enable-background:new 0 0 503.467 503.467;" xml:space="preserve">
<path style="fill:#F6BA51;" d="M87.467,40.933C80,45.2,71.467,48.4,62.933,48.4c-9.6,0-18.133-2.133-24.533-6.4L0,118.8l0,0l0,0
	c4.267-4.267,10.667-6.4,17.067-6.4c9.6,0,19.2,5.333,22.4,12.8c4.267-7.467,12.8-12.8,22.4-12.8s19.2,5.333,22.4,12.8
	c4.267-7.467,12.8-12.8,22.4-12.8c6.4,0,12.8,2.133,17.067,6.4l0,0l0,0L87.467,40.933z"/>
<path style="fill:#80C350;" d="M87.467,40.933L70.4,5.733c-3.2-5.333-11.733-5.333-14.933,0L38.4,40.933
	c7.467,4.267,16,6.4,24.533,6.4C71.467,48.4,80,45.2,87.467,40.933z"/>
<path style="fill:#F6BA51;" d="M212.267,40.933c-7.467,4.267-16,6.4-24.533,6.4c-9.6,0-18.133-2.133-24.533-6.4l-38.4,76.8l0,0l0,0
	c4.267-4.267,10.667-6.4,17.067-6.4c9.6,0,19.2,5.333,22.4,12.8c4.267-7.467,12.8-12.8,22.4-12.8s19.2,5.333,22.4,12.8
	c4.267-7.467,12.8-12.8,22.4-12.8c6.4,0,12.8,2.133,17.067,6.4l0,0l0,0L212.267,40.933z"/>
<path style="fill:#F16D6E;" d="M212.267,40.933L195.2,4.667c-3.2-5.333-11.733-5.333-14.933,0L163.2,40.933
	c7.467,4.267,16,6.4,24.533,6.4C197.333,48.4,205.867,45.2,212.267,40.933z"/>
<path style="fill:#F6BA51;" d="M338.133,40.933c-7.467,4.267-16,6.4-24.533,6.4c-9.6,0-18.133-2.133-24.533-6.4l-38.4,77.867l0,0
	l0,0c4.267-4.267,10.667-6.4,17.067-6.4c9.6,0,19.2,5.333,22.4,12.8c4.267-7.467,12.8-12.8,22.4-12.8c9.6,0,19.2,5.333,22.4,12.8
	c4.267-7.467,12.8-12.8,22.4-12.8c6.4,0,12.8,2.133,17.067,6.4l0,0l0,0L338.133,40.933z"/>
<path style="fill:#53C2EF;" d="M338.133,40.933L321.067,4.667c-3.2-5.333-11.733-5.333-14.933,0l-17.067,36.267
	c7.467,4.267,16,6.4,24.533,6.4C322.133,48.4,330.667,45.2,338.133,40.933z"/>
<path style="fill:#80C350;" d="M124.8,468.667V118.8c-4.267-4.267-10.667-6.4-17.067-6.4c-9.6,0-19.2,5.333-22.4,12.8
	c-4.267-7.467-12.8-12.8-22.4-12.8s-19.2,5.333-22.4,12.8c-4.267-7.467-12.8-12.8-22.4-12.8c-6.4,0-12.8,2.133-17.067,6.4v349.867
	l0,0l0,0c0,1.067,0,1.067,0,2.133c0,17.067,27.733,32,62.933,32c34.133,0,62.933-13.867,62.933-32
	C124.8,470.8,124.8,469.733,124.8,468.667L124.8,468.667L124.8,468.667z"/>
<path style="fill:#F16C6D;" d="M250.667,468.667V118.8c-4.267-4.267-10.667-6.4-17.067-6.4c-9.6,0-19.2,5.333-22.4,12.8
	c-4.267-7.467-12.8-12.8-22.4-12.8s-19.2,5.333-22.4,12.8c-4.267-7.467-12.8-12.8-22.4-12.8c-6.4,0-12.8,2.133-17.067,6.4v349.867
	l0,0l0,0c0,1.067,0,1.067,0,2.133c0,17.067,27.733,32,62.933,32s62.933-13.867,62.933-32
	C250.667,470.8,250.667,469.733,250.667,468.667L250.667,468.667L250.667,468.667z"/>
<path style="fill:#53C2EF;" d="M375.467,468.667V118.8c-4.267-4.267-10.667-6.4-17.067-6.4c-9.6,0-19.2,5.333-22.4,12.8
	c-4.267-7.467-12.8-12.8-22.4-12.8s-19.2,5.333-22.4,12.8c-4.267-7.467-12.8-12.8-22.4-12.8c-6.4,0-12.8,2.133-17.067,6.4v349.867
	l0,0l0,0c0,1.067,0,1.067,0,2.133c0,17.067,27.733,32,62.933,32c34.133,0,62.933-13.867,62.933-32
	C375.467,470.8,375.467,469.733,375.467,468.667L375.467,468.667L375.467,468.667z"/>
<path style="fill:#F6BA51;" d="M462.933,40.933c-7.467,4.267-16,6.4-24.533,6.4c-9.6,0-18.133-2.133-24.533-6.4l-38.4,76.8l0,0l0,0
	c4.267-4.267,10.667-6.4,17.067-6.4c9.6,0,19.2,5.333,22.4,12.8c4.267-7.467,12.8-12.8,22.4-12.8c9.6,0,19.2,5.333,22.4,12.8
	c4.267-7.467,12.8-12.8,22.4-12.8c6.4,0,12.8,2.133,17.067,6.4l0,0l0,0L462.933,40.933z"/>
<g>
	<path style="fill:#637888;" d="M462.933,40.933L445.867,4.667c-3.2-5.333-11.733-5.333-14.933,0l-17.067,36.267
		c7.467,4.267,16,6.4,24.533,6.4C448,48.4,456.533,45.2,462.933,40.933z"/>
	<path style="fill:#637888;" d="M501.333,468.667V118.8c-4.267-4.267-10.667-6.4-17.067-6.4c-9.6,0-19.2,5.333-22.4,12.8
		c-4.267-7.467-12.8-12.8-22.4-12.8c-9.6,0-19.2,5.333-22.4,12.8c-4.267-7.467-12.8-12.8-22.4-12.8c-6.4,0-12.8,2.133-17.067,6.4
		v349.867l0,0l0,0c0,1.067,0,1.067,0,2.133c0,17.067,27.733,32,62.933,32c34.133,0,62.933-13.867,62.933-32
		C501.333,470.8,501.333,469.733,501.333,468.667L501.333,468.667L501.333,468.667z"/>
</g>
<g>
</g>
<g>
</g>
<g>
</g>
<g>
</g>
<g>
</g>
<g>
</g>
<g>
</g>
<g>
</g>
<g>
</g>
<g>
</g>
<g>
</g>
<g>
</g>
<g>
</g>
<g>
</g>
<g>
</g>
</svg>
