<?xml version="1.0" encoding="iso-8859-1"?>
<!-- Generator: Adobe Illustrator 19.0.0, SVG Export Plug-In . SVG Version: 6.00 Build 0)  -->
<svg version="1.1" id="Layer_1" xmlns="http://www.w3.org/2000/svg" xmlns:xlink="http://www.w3.org/1999/xlink" x="0px" y="0px"
	 viewBox="0 0 501.983 501.983" style="enable-background:new 0 0 501.983 501.983;" xml:space="preserve">
<path style="fill:#324C5A;" d="M373.718,108.383c-14.933,20.267-10.667,50.133,9.6,65.067c20.267,14.933,48,10.667,62.933-9.6
	l44.8-64l-7.467-5.333l-44.8,64c-11.733,16-34.133,20.267-50.133,7.467s-19.2-35.2-7.467-51.2l19.2-26.667l-6.4-7.467
	L373.718,108.383z"/>
<path style="fill:#E0E0DF;" d="M455.851,105.183H15.318c-8.533,0-14.933,7.467-14.933,16v364.8c0,8.533,6.4,16,14.933,16h440.533
	c8.533,0,14.933-7.467,14.933-16v-364.8C470.784,111.583,464.384,105.183,455.851,105.183z"/>
<g>
	<path style="fill:#CCCAC6;" d="M95.318,424.116l-25.6-99.2l57.6-14.933l3.2,11.733l-45.867,11.733l7.467,27.733l42.667-10.667
		l3.2,11.733l-42.667,10.667l9.6,37.333l45.867-11.733l3.2,11.733L95.318,424.116z"/>
	<path style="fill:#CCCAC6;" d="M225.451,334.516l-69.333,18.133l-3.2-10.667l69.333-18.133L225.451,334.516z M231.851,363.316
		l-69.333,18.133l-3.2-10.667l69.333-18.133L231.851,363.316z"/>
	<path style="fill:#CCCAC6;" d="M338.518,361.183l-11.733-43.733c-1.067-3.2-2.133-6.4-3.2-9.6c-1.067-3.2-2.133-5.333-3.2-6.4
		c-1.067-1.067-3.2-2.133-4.267-3.2c-2.133,0-4.267,0-6.4,0c-2.133,1.067-5.333,2.133-7.467,4.267c-2.133,2.133-4.267,5.333-6.4,9.6
		c0,1.067,0,2.133,1.067,3.2c0,1.067,1.067,2.133,1.067,3.2l12.8,49.067l-11.733,3.2l-11.733-43.733c-1.067-3.2-2.133-6.4-3.2-9.6
		c-1.067-3.2-2.133-5.333-3.2-6.4c-1.067-1.067-3.2-2.133-4.267-3.2c-2.133,0-4.267,0-6.4,0c-2.133,1.067-5.333,2.133-7.467,4.267
		c-2.133,2.133-4.267,5.333-6.4,8.533l14.933,55.467l-11.733,3.2l-19.2-74.667l10.667,0l2.133,8.533
		c2.133-4.267,4.267-7.467,7.467-9.6c2.133-2.133,5.333-4.267,9.6-5.333c4.267-1.067,8.533-1.067,11.733,0
		c3.2,1.067,7.467,4.267,9.6,8.533c2.133-5.333,5.333-9.6,7.467-12.8c3.2-3.2,6.4-5.333,9.6-6.4c3.2-1.067,5.333-1.067,8.533-1.067
		s5.333,1.067,7.467,3.2c2.133,2.133,4.267,4.267,6.4,7.467c2.133,3.2,3.2,7.467,5.333,12.8l12.8,49.067L338.518,361.183z"/>
	<path style="fill:#CCCAC6;" d="M395.051,348.383c-4.267,1.067-9.6,1.067-13.867,1.067c-4.267-1.067-8.533-2.133-11.733-4.267
		c-3.2-2.133-7.467-6.4-9.6-10.667c-3.2-4.267-5.333-9.6-6.4-17.067c-2.133-6.4-2.133-12.8-2.133-18.133
		c0-5.333,1.067-9.6,3.2-13.867c2.133-4.267,4.267-7.467,8.533-10.667c3.2-3.2,7.467-5.333,12.8-6.4
		c4.267-1.067,7.467-1.067,11.733-1.067s7.467,1.067,10.667,1.067l3.2,13.867h-1.067c-1.067-1.067-2.133-1.067-4.267-2.133
		c-1.067-1.067-3.2-1.067-5.333-2.133c-2.133,0-4.267-1.067-6.4-1.067c-2.133,0-4.267,0-6.4,1.067
		c-6.4,1.067-10.667,5.333-12.8,10.667c-2.133,6.4-2.133,13.867,0,22.4c2.133,8.533,6.4,14.933,10.667,19.2
		c5.333,4.267,10.667,5.333,17.067,3.2c4.267-1.067,7.467-3.2,10.667-5.333c3.2-2.133,5.333-5.333,7.467-8.533h1.067l3.2,13.867
		c-1.067,1.067-2.133,2.133-4.267,3.2c-1.067,1.067-3.2,2.133-4.267,3.2c-2.133,1.067-3.2,2.133-5.333,3.2
		C399.318,347.316,397.184,348.383,395.051,348.383z"/>
	<path style="fill:#CCCAC6;" d="M447.318,283.316l-32,8.533l-2.133-7.467c2.133-3.2,3.2-5.333,4.267-8.533
		c1.067-2.133,3.2-5.333,4.267-8.533c3.2-5.333,4.267-9.6,5.333-12.8c1.067-3.2,1.067-6.4,0-9.6c0-1.067-1.067-3.2-2.133-4.267
		c-1.067-1.067-2.133-2.133-2.133-2.133c-1.067,0-2.133-1.067-3.2-1.067s-2.133,0-3.2,0s-2.133,1.067-3.2,1.067
		c-1.067,1.067-2.133,1.067-3.2,2.133s-2.133,1.067-2.133,2.133c-1.067,1.067-1.067,1.067-2.133,2.133l0,0l-2.133-7.467
		c1.067-1.067,3.2-2.133,5.333-4.267c2.133-1.067,4.267-2.133,6.4-3.2c4.267-1.067,8.533-1.067,11.733,1.067
		c3.2,2.133,5.333,5.333,6.4,9.6c1.067,2.133,1.067,4.267,1.067,6.4s0,4.267-1.067,5.333c0,2.133-1.067,3.2-2.133,5.333
		c-1.067,2.133-2.133,4.267-2.133,5.333c-1.067,3.2-3.2,6.4-5.333,9.6c-2.133,3.2-3.2,6.4-4.267,8.533l25.6-6.4L447.318,283.316z"/>
</g>
<path style="fill:#324C5A;" d="M444.118,64.649l-7.467-5.333l-36.267,51.2c-7.467,10.667-5.333,25.6,5.333,33.067
	s24.533,5.333,32-5.333l57.6-82.133c10.667-16,7.467-37.333-7.467-49.067s-36.267-8.533-48,7.467l-45.867,66.133l7.467,6.4
	l46.933-66.133c7.467-11.733,23.467-13.867,34.133-5.333c10.667,8.533,13.867,24.533,5.333,35.2l-57.6,82.133
	c-4.267,6.4-12.8,7.467-19.2,3.2s-7.467-12.8-3.2-19.2L444.118,64.649z"/>
<g>
	<path style="fill:#F16C6D;" d="M71.851,399.583l-25.6-100.267l57.6-14.933l3.2,11.733l-45.867,11.733l7.467,27.733l42.667-10.667
		l3.2,11.733l-42.667,10.667l9.6,37.333l45.867-11.733l3.2,11.733L71.851,399.583z"/>
	<path style="fill:#F16C6D;" d="M201.984,309.983l-69.333,18.133l-3.2-10.667l69.333-18.133L201.984,309.983z M209.451,338.783
		l-69.333,18.133l-3.2-10.667l69.333-18.133L209.451,338.783z"/>
	<path style="fill:#F16C6D;" d="M315.051,336.649l-10.667-42.667c-1.067-3.2-2.133-6.4-3.2-9.6c-1.067-3.2-2.133-5.333-3.2-6.4
		c-1.067-1.067-3.2-2.133-4.267-3.2c-2.133,0-4.267,0-6.4,0c-2.133,1.067-5.333,2.133-7.467,4.267c-2.133,2.133-4.267,5.333-6.4,9.6
		c0,1.067,0,2.133,1.067,3.2c0,1.067,1.067,2.133,1.067,3.2l12.8,49.067l-12.8,3.2l-11.733-43.733c-1.067-3.2-2.133-6.4-3.2-9.6
		c-1.067-3.2-2.133-5.333-3.2-6.4c-1.067-1.067-3.2-2.133-4.267-3.2c-2.133,0-4.267,0-6.4,0c-2.133,1.067-5.333,2.133-7.467,4.267
		c-2.133,2.133-4.267,5.333-6.4,8.533l14.933,55.467l-11.733,5.333l-19.2-74.667l11.733-3.2l2.133,8.533
		c2.133-4.267,4.267-7.467,7.467-9.6c2.133-2.133,5.333-4.267,9.6-5.333c4.267-1.067,8.533-1.067,11.733,0
		c3.2,1.067,7.467,4.267,9.6,8.533c2.133-5.333,5.333-9.6,7.467-12.8c3.2-3.2,6.4-5.333,9.6-6.4c3.2-1.067,5.333-1.067,8.533-1.067
		c3.2,0,5.333,1.067,7.467,3.2c2.133,2.133,4.267,4.267,6.4,7.467c2.133,3.2,3.2,7.467,5.333,12.8l12.8,49.067L315.051,336.649z"/>
	<path style="fill:#F16C6D;" d="M371.584,323.849c-4.267,1.067-9.6,1.067-13.867,1.067c-4.267-1.067-8.533-2.133-11.733-4.267
		c-3.2-2.133-7.467-6.4-9.6-10.667c-3.2-4.267-5.333-9.6-6.4-17.067c-2.133-6.4-2.133-12.8-2.133-18.133
		c0-5.333,1.067-9.6,3.2-13.867s4.267-7.467,8.533-10.667c3.2-3.2,7.467-5.333,12.8-6.4c4.267-1.067,7.467-1.067,11.733-1.067
		s7.467,1.067,10.667,1.067l3.2,13.867h-1.067c-1.067-1.067-2.133-1.067-4.267-2.133c-1.067-1.067-3.2-1.067-5.333-2.133
		c-2.133,0-4.267-1.067-6.4-1.067c-2.133,0-4.267,0-6.4,1.067c-6.4,1.067-10.667,5.333-12.8,10.667c-2.133,6.4-2.133,13.867,0,22.4
		c2.133,8.533,6.4,14.933,10.667,19.2c5.333,4.267,10.667,5.333,17.067,3.2c4.267-1.067,7.467-3.2,10.667-5.333
		c3.2-2.133,5.333-5.333,7.467-8.533h1.067l3.2,13.867c-1.067,1.067-2.133,2.133-4.267,3.2c-1.067,1.067-3.2,2.133-4.267,3.2
		c-2.133,1.067-3.2,2.133-5.333,3.2C375.851,322.783,373.718,323.849,371.584,323.849z"/>
	<path style="fill:#F16C6D;" d="M424.918,258.783l-32,8.533l-2.133-7.467c2.133-3.2,3.2-5.333,4.267-8.533
		c1.067-2.133,3.2-5.333,4.267-8.533c3.2-5.333,4.267-9.6,5.333-12.8c1.067-3.2,1.067-6.4,0-9.6c0-1.067-1.067-3.2-2.133-4.267
		c-1.067-1.067-2.133-2.133-2.133-2.133c-1.067,0-2.133-1.067-3.2-1.067s-2.133,0-3.2,0s-2.133,1.067-3.2,1.067
		c-1.067,1.067-2.133,1.067-3.2,2.133s-2.133,1.067-2.133,2.133c-1.067,1.067-1.067,1.067-2.133,2.133l0,0l-2.133-7.467
		c1.067-1.067,3.2-2.133,5.333-4.267c2.133-1.067,4.267-2.133,6.4-3.2c4.267-1.067,8.533-1.067,11.733,1.067
		c3.2,2.133,5.333,5.333,6.4,9.6c1.067,2.133,1.067,4.267,1.067,6.4s0,4.267-1.067,5.333c0,2.133-1.067,3.2-2.133,5.333
		c-1.067,2.133-2.133,4.267-2.133,5.333c-1.067,3.2-3.2,6.4-5.333,9.6c-2.133,3.2-3.2,6.4-4.267,8.533l25.6-6.4L424.918,258.783z"/>
</g>
<g>
</g>
<g>
</g>
<g>
</g>
<g>
</g>
<g>
</g>
<g>
</g>
<g>
</g>
<g>
</g>
<g>
</g>
<g>
</g>
<g>
</g>
<g>
</g>
<g>
</g>
<g>
</g>
<g>
</g>
</svg>
