<?xml version="1.0" encoding="iso-8859-1"?>
<!-- Generator: Adobe Illustrator 19.0.0, SVG Export Plug-In . SVG Version: 6.00 Build 0)  -->
<svg version="1.1" id="Layer_1" xmlns="http://www.w3.org/2000/svg" xmlns:xlink="http://www.w3.org/1999/xlink" x="0px" y="0px"
	 viewBox="0 0 502.4 502.4" style="enable-background:new 0 0 502.4 502.4;" xml:space="preserve">
<path style="fill:#E0E0DF;" d="M464,0H37.333C41.6,13.867,80,37.333,80,37.333V208c24.533,9.6,70.4,17.067,147.2-4.267
	c116.267-33.067,134.4-72.533,235.733-71.467V0H464z"/>
<path style="fill:#53C2EF;" d="M464,132.267C361.6,131.2,343.467,169.6,228.267,203.733c-76.8,22.4-122.667,13.867-147.2,4.267
	v241.067c0,28.8,23.467,53.333,53.333,53.333h278.4c25.6,0,45.867-18.133,52.267-41.6V132.267H464z"/>
<g>
	<circle style="fill:#FFFFFF;" cx="284.8" cy="286.933" r="44.8"/>
	<circle style="fill:#FFFFFF;" cx="366.933" cy="231.467" r="24.533"/>
	<circle style="fill:#FFFFFF;" cx="338.133" cy="396.8" r="23.467"/>
	<rect x="131.2" y="45.867" style="fill:#FFFFFF;" width="72.533" height="22.4"/>
	<rect x="131.2" y="156.8" style="fill:#FFFFFF;" width="72.533" height="22.4"/>
	<rect x="131.2" y="101.333" style="fill:#FFFFFF;" width="36.267" height="22.4"/>
</g>
<g>
</g>
<g>
</g>
<g>
</g>
<g>
</g>
<g>
</g>
<g>
</g>
<g>
</g>
<g>
</g>
<g>
</g>
<g>
</g>
<g>
</g>
<g>
</g>
<g>
</g>
<g>
</g>
<g>
</g>
</svg>
