<?xml version="1.0" encoding="iso-8859-1"?>
<!-- Generator: Adobe Illustrator 19.0.0, SVG Export Plug-In . SVG Version: 6.00 Build 0)  -->
<svg version="1.1" id="Layer_1" xmlns="http://www.w3.org/2000/svg" xmlns:xlink="http://www.w3.org/1999/xlink" x="0px" y="0px"
	 viewBox="0 0 501.333 501.333" style="enable-background:new 0 0 501.333 501.333;" xml:space="preserve">
<path style="fill:#637888;" d="M501.333,120.533h-102.4V76.8H102.4v44.8H0v253.867h41.6v-89.6c0-33.067,26.667-58.667,58.667-58.667
	H400c33.067,0,58.667,26.667,58.667,58.667v89.6h41.6V120.533H501.333z"/>
<g>
	<rect x="113.067" y="304" style="fill:#E0E0DF;" width="274.133" height="197.333"/>
	<rect x="113.067" style="fill:#E0E0DF;" width="274.133" height="76.8"/>
</g>
<g>
	<rect x="179.2" y="426.667" style="fill:#637888;" width="142.933" height="22.4"/>
	<rect x="179.2" y="360.533" style="fill:#637888;" width="142.933" height="22.4"/>
</g>
<rect x="68.267" y="172.8" style="fill:#F16D6E;" width="25.6" height="22.4"/>
<rect x="123.733" y="172.8" style="fill:#FEC656;" width="25.6" height="22.4"/>
<path style="fill:#3A5569;" d="M401.067,226.133h-300.8C67.2,226.133,41.6,252.8,41.6,284.8v89.6h60.8V304h296.533v71.467h60.8
	v-89.6C459.733,251.733,433.067,226.133,401.067,226.133z"/>
<g>
</g>
<g>
</g>
<g>
</g>
<g>
</g>
<g>
</g>
<g>
</g>
<g>
</g>
<g>
</g>
<g>
</g>
<g>
</g>
<g>
</g>
<g>
</g>
<g>
</g>
<g>
</g>
<g>
</g>
</svg>
