<?xml version="1.0" encoding="iso-8859-1"?>
<!-- Generator: Adobe Illustrator 19.0.0, SVG Export Plug-In . SVG Version: 6.00 Build 0)  -->
<svg version="1.1" id="Layer_1" xmlns="http://www.w3.org/2000/svg" xmlns:xlink="http://www.w3.org/1999/xlink" x="0px" y="0px"
	 viewBox="0 0 502.4 502.4" style="enable-background:new 0 0 502.4 502.4;" xml:space="preserve">
<path style="fill:#E0E0DF;" d="M453.333,225.067c-12.8,0-23.467,9.6-32,24.533c-3.2,6.4-9.6,11.733-16,16
	c-14.933,9.6-34.133-1.067-34.133-18.133V128H253.867c-18.133,0-27.733-20.267-17.067-35.2c4.267-5.333,8.533-10.667,13.867-12.8
	C265.6,71.467,275.2,60.8,275.2,48c0-25.6-39.467-46.933-89.6-46.933C136.533,1.067,96,22.4,96,48c0,12.8,9.6,23.467,24.533,32
	c5.333,3.2,9.6,7.467,13.867,12.8c10.667,14.933,1.067,35.2-17.067,35.2H0v60.8c0,17.067,18.133,27.733,33.067,19.2
	c8.533-4.267,16-10.667,20.267-17.067c8.533-14.933,19.2-24.533,32-24.533c25.6,0,46.933,39.467,46.933,89.6
	c0,49.067-21.333,89.6-46.933,89.6c-12.8,0-23.467-9.6-32-24.533c-4.267-6.4-11.733-12.8-20.267-17.067
	C18.133,295.467,0,306.133,0,323.2v178.133h177.067c17.067,0,27.733-19.2,19.2-33.067c-4.267-7.467-9.6-13.867-16-17.067
	c-14.933-8.533-24.533-19.2-24.533-32c0-25.6,39.467-46.933,89.6-46.933c49.067,0,89.6,21.333,89.6,46.933
	c0,12.8-9.6,23.467-24.533,32c-6.4,3.2-11.733,10.667-16,17.067c-8.533,14.933,1.067,33.067,19.2,33.067h59.733V381.867
	c0-17.067,19.2-27.733,34.133-18.133c6.4,4.267,12.8,9.6,16,16c8.533,14.933,19.2,24.533,32,24.533
	c25.6,0,46.933-39.467,46.933-89.6C500.267,264.533,478.933,225.067,453.333,225.067z"/>
<g>
</g>
<g>
</g>
<g>
</g>
<g>
</g>
<g>
</g>
<g>
</g>
<g>
</g>
<g>
</g>
<g>
</g>
<g>
</g>
<g>
</g>
<g>
</g>
<g>
</g>
<g>
</g>
<g>
</g>
</svg>
