<?xml version="1.0" encoding="iso-8859-1"?>
<!-- Generator: Adobe Illustrator 19.0.0, SVG Export Plug-In . SVG Version: 6.00 Build 0)  -->
<svg version="1.1" id="Layer_1" xmlns="http://www.w3.org/2000/svg" xmlns:xlink="http://www.w3.org/1999/xlink" x="0px" y="0px"
	 viewBox="0 0 501.15 501.15" style="enable-background:new 0 0 501.15 501.15;" xml:space="preserve">
<path style="fill:#60C3AB;" d="M328.975,320.884c-11.733,6.4-27.733,6.4-40.533,1.067c-12.8-4.267-24.533-12.8-35.2-21.333
	s-22.4-16-33.067-24.533c8.533,0,17.067,1.067,24.533,3.2c-11.733-4.267-21.333-12.8-27.733-22.4
	c-4.267-5.333-6.4-11.733-10.667-17.067c-7.467-10.667-19.2-18.133-33.067-21.333c13.867-5.333,28.8-5.333,42.667,0
	c-9.6-3.2-18.133-6.4-27.733-10.667c-5.333-2.133-9.6-4.267-13.867-8.533c-4.267-5.333-5.333-11.733-7.467-17.067
	c-4.267-10.667-13.867-19.2-23.467-25.6c8.533,1.067,18.133,1.067,26.667,2.133c-4.267-8.533-14.933-9.6-23.467-12.8
	c-16-6.4-24.533-22.4-32-38.4c8.533-1.067,18.133,1.067,25.6,5.333c-10.667-7.467-23.467-14.933-29.867-26.667
	c-3.2-6.4-5.333-12.8-7.467-19.2c-4.267-10.667-6.4-19.2-9.6-27.733c-1.067-6.4-3.2-11.733-6.4-17.067
	c-5.333-9.6-16-16-24.533-21.333c12.8-2.133,26.667,0,39.467,2.133s25.6,4.267,37.333,7.467c30.933,9.6,57.6,33.067,70.4,62.933
	c3.2-6.4,3.2-14.933,0-21.333c18.133,18.133,37.333,38.4,40.533,62.933c3.2-6.4,4.267-14.933,2.133-22.4
	c28.8,19.2,48,50.133,53.333,84.267c4.267-10.667,4.267-18.133,2.133-28.8c6.4,13.867,19.2,24.533,27.733,37.333
	c10.667,16,14.933,37.333,10.667,56.533c4.267-1.067,8.533-4.267,10.667-8.533c9.6,14.933,10.667,35.2,6.4,52.267
	c-2.133,7.467-5.333,14.933-10.667,21.333c-5.333,6.4-12.8,10.667-20.267,10.667L328.975,320.884z"/>
<path style="fill:#3A9B81;" d="M138.042,44.617c0,0,1.067,1.067,3.2,2.133s5.333,4.267,9.6,7.467
	c4.267,3.2,8.533,7.467,13.867,11.733c5.333,4.267,10.667,9.6,17.067,16c6.4,6.4,12.8,12.8,19.2,19.2
	c6.4,7.467,13.867,14.933,21.333,22.4c7.467,8.533,13.867,17.067,21.333,25.6c6.4,8.533,13.867,18.133,20.267,26.667
	c6.4,9.6,13.867,18.133,19.2,27.733c6.4,9.6,12.8,18.133,18.133,27.733c5.333,9.6,10.667,18.133,16,26.667
	c5.333,8.533,9.6,17.067,13.867,24.533c4.267,7.467,8.533,13.867,10.667,20.267c3.2,6.4,6.4,11.733,8.533,16
	c4.267,8.533,7.467,13.867,7.467,13.867l-22.4,10.667c0,0-2.133-5.333-6.4-13.867c-2.133-4.267-4.267-9.6-7.467-16
	c-3.2-6.4-6.4-12.8-9.6-20.267c-4.267-7.467-7.467-16-11.733-24.533s-9.6-17.067-14.933-26.667s-10.667-18.133-16-27.733
	c-5.333-9.6-11.733-19.2-18.133-28.8s-12.8-18.133-19.2-27.733c-6.4-8.533-12.8-18.133-19.2-25.6c-6.4-8.533-12.8-16-19.2-23.467
	c-6.4-7.467-12.8-13.867-18.133-20.267c-5.333-6.4-11.733-11.733-16-16c-5.333-4.267-9.6-8.533-12.8-11.733
	c-3.2-3.2-6.4-5.333-8.533-7.467c-2.133-1.067-3.2-2.133-3.2-2.133L138.042,44.617z"/>
<path style="fill:#3A5569;" d="M382.309,329.417h-80c-5.333,0-10.667,4.267-11.733,9.6c-1.067,7.467,4.267,13.867,11.733,13.867
	h1.067c4.267,0,8.533,3.2,8.533,8.533v13.867h62.933v-13.867c0-4.267,3.2-8.533,8.533-8.533l0,0c5.333,0,10.667-4.267,11.733-9.6
	C395.108,335.817,389.775,329.417,382.309,329.417z"/>
<path style="fill:#637888;" d="M350.309,369.95h-17.067c-48,0-87.467,37.333-87.467,83.2v24.533c0,12.8,11.733,23.467,25.6,23.467
	h141.867c13.867,0,25.6-10.667,25.6-23.467V453.15C437.775,406.217,399.375,369.95,350.309,369.95z"/>
<g>
</g>
<g>
</g>
<g>
</g>
<g>
</g>
<g>
</g>
<g>
</g>
<g>
</g>
<g>
</g>
<g>
</g>
<g>
</g>
<g>
</g>
<g>
</g>
<g>
</g>
<g>
</g>
<g>
</g>
</svg>
