<?xml version="1.0" encoding="iso-8859-1"?>
<!-- Generator: Adobe Illustrator 19.0.0, SVG Export Plug-In . SVG Version: 6.00 Build 0)  -->
<svg version="1.1" id="Layer_1" xmlns="http://www.w3.org/2000/svg" xmlns:xlink="http://www.w3.org/1999/xlink" x="0px" y="0px"
	 viewBox="0 0 501.333 501.333" style="enable-background:new 0 0 501.333 501.333;" xml:space="preserve">
<path style="fill:#60C3AB;" d="M152.533,346.667c0,0-26.667-68.267,32-132.267c0,0,10.667,18.133,13.867,41.6
	c0,0,29.867-94.933,72.533-130.133c0,0,16,32,3.2,60.8c0,0,29.867-89.6,104.533-131.2L370.133,92.8c0,0,53.333-80,100.267-92.8
	c0,0,41.6,81.067-60.8,179.2c0,0,54.4-25.6,74.667-70.4c0,0-10.667,118.4-119.467,137.6c0,0,49.067,3.2,73.6-23.467
	c0,0-20.267,70.4-150.4,68.267c0,0,43.733,18.133,70.4,9.6c0,0-51.2,72.533-131.2,51.2c0,0,28.8,27.733,53.333,20.267
	c0,0-43.733,32-109.867,22.4l-57.6,67.2l-82.133,17.067C32,477.867,156.8,352,152.533,346.667"/>
<rect y="477.867" style="fill:#F7B044;" width="501.333" height="23.467"/>
<g>
</g>
<g>
</g>
<g>
</g>
<g>
</g>
<g>
</g>
<g>
</g>
<g>
</g>
<g>
</g>
<g>
</g>
<g>
</g>
<g>
</g>
<g>
</g>
<g>
</g>
<g>
</g>
<g>
</g>
</svg>
