<?xml version="1.0" encoding="iso-8859-1"?>
<!-- Generator: Adobe Illustrator 19.0.0, SVG Export Plug-In . SVG Version: 6.00 Build 0)  -->
<svg version="1.1" id="Layer_1" xmlns="http://www.w3.org/2000/svg" xmlns:xlink="http://www.w3.org/1999/xlink" x="0px" y="0px"
	 viewBox="0 0 500.8 500.8" style="enable-background:new 0 0 500.8 500.8;" xml:space="preserve">
<path style="fill:#60C3AB;" d="M143.733,7.2L7.2,143.733c-9.6,9.6-9.6,25.6,0,35.2L321.867,493.6c9.6,9.6,25.6,9.6,35.2,0
	L493.6,357.067c9.6-9.6,9.6-25.6,0-35.2L178.933,7.2C169.333-2.4,153.333-2.4,143.733,7.2z M136.267,136.267
	c-10.667,10.667-28.8,10.667-39.467,0c-10.667-10.667-10.667-28.8,0-39.467s28.8-10.667,39.467,0
	C146.933,107.467,146.933,125.6,136.267,136.267z"/>
<g>
	
		<rect x="95.599" y="205.532" transform="matrix(-0.7071 0.7071 -0.7071 -0.7071 381.7809 272.1248)" style="fill:#FFFFFF;" width="77.866" height="19.2"/>
	
		<rect x="136.462" y="253.809" transform="matrix(-0.7071 0.7071 -0.7071 -0.7071 457.4516 337.3351)" style="fill:#FFFFFF;" width="44.8" height="19.2"/>
	
		<rect x="168.255" y="277.799" transform="matrix(-0.7071 0.7071 -0.7071 -0.7071 556.9138 344.1157)" style="fill:#FFFFFF;" width="77.866" height="19.2"/>
	
		<rect x="209.065" y="326.022" transform="matrix(-0.7071 0.7071 -0.7071 -0.7071 632.4557 409.2726)" style="fill:#FFFFFF;" width="44.8" height="19.2"/>
	
		<rect x="240.158" y="350.755" transform="matrix(-0.7071 0.7071 -0.7071 -0.7071 731.2472 417.8183)" style="fill:#FFFFFF;" width="77.866" height="19.2"/>
	
		<rect x="281.01" y="397.524" transform="matrix(-0.7071 0.7071 -0.7071 -0.7071 805.833 480.4609)" style="fill:#FFFFFF;" width="44.8" height="19.2"/>
	
		<rect x="312.06" y="422.247" transform="matrix(-0.7071 0.7071 -0.7071 -0.7071 904.5441 489.0185)" style="fill:#FFFFFF;" width="77.866" height="19.2"/>
</g>
<g>
</g>
<g>
</g>
<g>
</g>
<g>
</g>
<g>
</g>
<g>
</g>
<g>
</g>
<g>
</g>
<g>
</g>
<g>
</g>
<g>
</g>
<g>
</g>
<g>
</g>
<g>
</g>
<g>
</g>
</svg>
