<?xml version="1.0" encoding="iso-8859-1"?>
<!-- Generator: Adobe Illustrator 19.0.0, SVG Export Plug-In . SVG Version: 6.00 Build 0)  -->
<svg version="1.1" id="Layer_1" xmlns="http://www.w3.org/2000/svg" xmlns:xlink="http://www.w3.org/1999/xlink" x="0px" y="0px"
	 viewBox="0 0 500.267 500.267" style="enable-background:new 0 0 500.267 500.267;" xml:space="preserve">
<g>
	<circle style="fill:#3A5569;" cx="85.333" cy="353.067" r="49.067"/>
	<circle style="fill:#3A5569;" cx="407.467" cy="353.067" r="49.067"/>
</g>
<path style="fill:#F7B044;" d="M0,321.067L0,321.067C0,334.933,10.667,345.6,24.533,345.6h5.333
	c3.2-27.733,26.667-49.067,55.467-49.067S137.6,317.867,140.8,345.6H352c3.2-27.733,26.667-49.067,55.467-49.067
	c28.8,0,52.267,21.333,55.467,49.067h25.6c6.4,0,11.733-5.333,11.733-11.733v-9.6c0-6.4-5.333-11.733-11.733-11.733l0,0
	l-2.133-163.2h3.2v-6.4c0-6.4-5.333-11.733-11.733-11.733h-336c-10.667,0-19.2,8.533-19.2,19.2l0,0h7.467
	c-1.067,18.133-9.6,77.867-41.6,96c-18.133,10.667-22.4,5.333-53.333,21.333c-29.867,16-24.533,53.333-24.533,53.333H0z"/>
<g>
	<polygon style="fill:#637888;" points="167.467,130.133 466.133,130.133 466.133,118.4 167.467,118.4 167.467,98.133 150.4,98.133 
		150.4,130.133 162.133,130.133 	"/>
	<circle style="fill:#637888;" cx="85.333" cy="353.067" r="25.6"/>
	<circle style="fill:#637888;" cx="407.467" cy="353.067" r="25.6"/>
</g>
<g>
	<rect x="282.667" y="170.667" style="fill:#53C2EF;" width="54.4" height="56.533"/>
	<rect x="349.867" y="170.667" style="fill:#53C2EF;" width="54.4" height="56.533"/>
	<rect x="417.067" y="170.667" style="fill:#53C2EF;" width="54.4" height="56.533"/>
	<rect x="215.467" y="170.667" style="fill:#53C2EF;" width="54.4" height="56.533"/>
	<polygon style="fill:#53C2EF;" points="147.2,170.667 147.2,231.467 147.2,242.133 147.2,323.2 201.6,323.2 201.6,242.133 
		201.6,231.467 201.6,170.667 	"/>
</g>
<g>
	<rect x="147.2" y="148.267" style="fill:#F6F7F8;" width="323.2" height="7.467"/>
	<rect x="215.467" y="242.133" style="fill:#F6F7F8;" width="256" height="7.467"/>
	<rect x="106.667" y="242.133" style="fill:#F6F7F8;" width="29.867" height="7.467"/>
</g>
<g>
</g>
<g>
</g>
<g>
</g>
<g>
</g>
<g>
</g>
<g>
</g>
<g>
</g>
<g>
</g>
<g>
</g>
<g>
</g>
<g>
</g>
<g>
</g>
<g>
</g>
<g>
</g>
<g>
</g>
</svg>
