<?xml version="1.0" encoding="iso-8859-1"?>
<!-- Generator: Adobe Illustrator 19.0.0, SVG Export Plug-In . SVG Version: 6.00 Build 0)  -->
<svg version="1.1" id="Layer_1" xmlns="http://www.w3.org/2000/svg" xmlns:xlink="http://www.w3.org/1999/xlink" x="0px" y="0px"
	 viewBox="0 0 501.333 501.333" style="enable-background:new 0 0 501.333 501.333;" xml:space="preserve">
<rect x="240" y="33.067" style="fill:#637888;" width="21.333" height="121.6"/>
<polygon style="fill:#B06D48;" points="379.733,185.6 250.667,124.8 121.6,185.6 141.867,185.6 359.467,185.6 "/>
<polygon style="fill:#60C3AB;" points="359.467,185.6 141.867,185.6 141.867,282.667 0,282.667 0,468.267 141.867,468.267 
	162.133,468.267 339.2,468.267 359.467,468.267 501.333,468.267 501.333,282.667 359.467,282.667 "/>
<rect x="210.133" y="356.267" style="fill:#3A5569;" width="81.067" height="112"/>
<g>
	<rect x="38.4" y="331.733" style="fill:#FFFFFF;" width="21.333" height="30.933"/>
	<rect x="85.333" y="331.733" style="fill:#FFFFFF;" width="21.333" height="30.933"/>
	<rect x="133.333" y="331.733" style="fill:#FFFFFF;" width="21.333" height="30.933"/>
	<rect x="38.4" y="405.333" style="fill:#FFFFFF;" width="21.333" height="30.933"/>
	<rect x="85.333" y="405.333" style="fill:#FFFFFF;" width="21.333" height="30.933"/>
	<rect x="133.333" y="405.333" style="fill:#FFFFFF;" width="21.333" height="30.933"/>
	<rect x="193.067" y="197.333" style="fill:#FFFFFF;" width="21.333" height="32"/>
	<rect x="240" y="197.333" style="fill:#FFFFFF;" width="21.333" height="32"/>
	<rect x="286.933" y="197.333" style="fill:#FFFFFF;" width="21.333" height="32"/>
	<rect x="193.067" y="270.933" style="fill:#FFFFFF;" width="21.333" height="30.933"/>
	<rect x="240" y="270.933" style="fill:#FFFFFF;" width="21.333" height="30.933"/>
	<rect x="286.933" y="270.933" style="fill:#FFFFFF;" width="21.333" height="30.933"/>
	<rect x="346.667" y="331.733" style="fill:#FFFFFF;" width="21.333" height="30.933"/>
	<rect x="393.6" y="331.733" style="fill:#FFFFFF;" width="21.333" height="30.933"/>
	<rect x="441.6" y="331.733" style="fill:#FFFFFF;" width="21.333" height="30.933"/>
	<rect x="346.667" y="405.333" style="fill:#FFFFFF;" width="21.333" height="30.933"/>
	<rect x="393.6" y="405.333" style="fill:#FFFFFF;" width="21.333" height="30.933"/>
	<rect x="441.6" y="405.333" style="fill:#FFFFFF;" width="21.333" height="30.933"/>
</g>
<polyline style="fill:#F16D6E;" points="240,33.067 180.267,33.067 180.267,75.733 240,75.733 "/>
<g>
</g>
<g>
</g>
<g>
</g>
<g>
</g>
<g>
</g>
<g>
</g>
<g>
</g>
<g>
</g>
<g>
</g>
<g>
</g>
<g>
</g>
<g>
</g>
<g>
</g>
<g>
</g>
<g>
</g>
</svg>
