<?xml version="1.0" encoding="iso-8859-1"?>
<!-- Generator: Adobe Illustrator 19.0.0, SVG Export Plug-In . SVG Version: 6.00 Build 0)  -->
<svg version="1.1" id="Layer_1" xmlns="http://www.w3.org/2000/svg" xmlns:xlink="http://www.w3.org/1999/xlink" x="0px" y="0px"
	 viewBox="0 0 501.333 501.333" style="enable-background:new 0 0 501.333 501.333;" xml:space="preserve">
<path style="fill:#637888;" d="M481.067,73.6h-11.733c-12.8-42.667-52.267-73.6-99.2-73.6c-35.2,0-67.2,18.133-85.333,45.867
	h-68.267C197.333,18.133,166.4,0,131.2,0C84.267,0,44.8,30.933,32,73.6H20.267C8.533,73.6,0,83.2,0,93.867s9.6,20.267,20.267,20.267
	h7.467C33.067,166.4,76.8,208,131.2,208c57.6,0,103.467-46.933,103.467-104.533c0-6.4-1.067-11.733-2.133-18.133h35.2
	c-1.067,5.333-2.133,11.733-2.133,18.133c0,57.6,46.933,104.533,103.467,104.533c53.333,0,98.133-41.6,103.467-93.867H480
	c11.733,0,20.267-9.6,20.267-20.267S491.733,73.6,481.067,73.6z M131.2,181.333c-41.6,0-75.733-34.133-75.733-76.8
	s34.133-76.8,75.733-76.8s75.733,34.133,75.733,76.8S172.8,181.333,131.2,181.333z M370.133,181.333
	c-41.6,0-75.733-34.133-75.733-76.8s34.133-76.8,75.733-76.8s75.733,34.133,75.733,76.8S412.8,181.333,370.133,181.333z"/>
<path style="fill:#FEC656;" d="M53.333,374.4c0-40.533,33.067-73.6,72.533-73.6h375.467v-53.333H125.867
	C56.533,247.467,0,304,0,374.4s56.533,126.933,125.867,126.933h375.467V448H125.867C85.333,448,53.333,414.933,53.333,374.4z"/>
<path style="fill:#E0E0DF;" d="M449.067,374.4c0-40.533,7.467-73.6,17.067-73.6H125.867c-40.533,0-72.533,33.067-72.533,73.6
	S86.4,448,125.867,448h340.267C456.533,448,449.067,414.933,449.067,374.4z"/>
<g>
</g>
<g>
</g>
<g>
</g>
<g>
</g>
<g>
</g>
<g>
</g>
<g>
</g>
<g>
</g>
<g>
</g>
<g>
</g>
<g>
</g>
<g>
</g>
<g>
</g>
<g>
</g>
<g>
</g>
</svg>
