<?xml version="1.0" encoding="iso-8859-1"?>
<!-- Generator: Adobe Illustrator 19.0.0, SVG Export Plug-In . SVG Version: 6.00 Build 0)  -->
<svg version="1.1" id="Layer_1" xmlns="http://www.w3.org/2000/svg" xmlns:xlink="http://www.w3.org/1999/xlink" x="0px" y="0px"
	 viewBox="0 0 501.333 501.333" style="enable-background:new 0 0 501.333 501.333;" xml:space="preserve">
<path style="fill:#E0E0DF;" d="M156.8,102.4c-9.6,0-17.067,7.467-17.067,17.067s7.467,17.067,17.067,17.067
	s17.067-7.467,17.067-17.067S166.4,102.4,156.8,102.4z M156.8,128c-5.333,0-9.6-4.267-9.6-9.6c0-5.333,4.267-9.6,9.6-9.6
	s9.6,4.267,9.6,9.6C166.4,123.733,162.133,128,156.8,128z"/>
<path style="fill:#9B9592;" d="M30.933,212.267L56.533,480c1.067,11.733,11.733,21.333,25.6,21.333H227.2
	c12.8,0,24.533-9.6,25.6-21.333l25.6-267.733H30.933z"/>
<path style="fill:#E0E0DF;" d="M291.2,169.6H22.4C9.6,169.6,0,179.2,0,190.933s10.667,21.333,22.4,21.333h268.8
	c12.8,0,22.4-9.6,22.4-21.333C314.667,179.2,304,169.6,291.2,169.6z"/>
<path style="fill:#C6C4C3;" d="M274.133,169.6C243.2,144,201.6,128,156.8,128s-86.4,16-117.333,41.6H274.133z"/>
<g>
	<path style="fill:#E0E0DF;" d="M86.4,256c-5.333,0-9.6,5.333-9.6,10.667l11.733,183.467c0,4.267,4.267,7.467,8.533,7.467
		c4.267,0,8.533-3.2,7.467-7.467l-7.467-183.467C97.067,260.267,91.733,256,86.4,256z"/>
	<path style="fill:#E0E0DF;" d="M154.667,256c-5.333,0-9.6,5.333-9.6,10.667l1.067,183.467c0,4.267,3.2,7.467,8.533,7.467
		c5.333,0,8.533-3.2,8.533-7.467l1.067-183.467C164.267,260.267,160,256,154.667,256z"/>
	<path style="fill:#E0E0DF;" d="M222.933,256c-5.333,0-9.6,5.333-10.667,10.667l-8.533,183.467c0,4.267,3.2,7.467,7.467,7.467
		c4.267,0,8.533-3.2,8.533-7.467l11.733-183.467C232.533,260.267,228.267,256,222.933,256z"/>
</g>
<path style="fill:#E14A4A;" d="M395.733,0c-9.6,0-17.067,7.467-17.067,17.067V300.8c0,9.6,7.467,17.067,17.067,17.067
	c9.6,0,17.067-7.467,17.067-17.067V17.067C412.8,7.467,405.333,0,395.733,0z"/>
<path style="fill:#637888;" d="M430.933,347.733h-70.4c-6.4,0-11.733-5.333-11.733-11.733l0,0c0-6.4,5.333-11.733,11.733-11.733
	h70.4c6.4,0,11.733,5.333,11.733,11.733l0,0C441.6,342.4,436.267,347.733,430.933,347.733z"/>
<path style="fill:#F16D6E;" d="M412.8,299.733h-34.133c-4.267,0-7.467,3.2-7.467,7.467v18.133h48V307.2
	C419.2,302.933,416,299.733,412.8,299.733z"/>
<polygon style="fill:#EF9F2C;" points="452.267,501.333 461.867,501.333 441.6,462.933 "/>
<polygon style="fill:#FEC656;" points="470.4,501.333 501.333,501.333 427.733,347.733 362.667,347.733 289.067,501.333 
	452.267,501.333 441.6,462.933 461.867,501.333 462.933,501.333 427.733,396.8 "/>
<polygon style="fill:#EF9F2C;" points="427.733,396.8 462.933,501.333 470.4,501.333 "/>
<g>
</g>
<g>
</g>
<g>
</g>
<g>
</g>
<g>
</g>
<g>
</g>
<g>
</g>
<g>
</g>
<g>
</g>
<g>
</g>
<g>
</g>
<g>
</g>
<g>
</g>
<g>
</g>
<g>
</g>
</svg>
