<?xml version="1.0" encoding="iso-8859-1"?>
<!-- Generator: Adobe Illustrator 19.0.0, SVG Export Plug-In . SVG Version: 6.00 Build 0)  -->
<svg version="1.1" id="Layer_1" xmlns="http://www.w3.org/2000/svg" xmlns:xlink="http://www.w3.org/1999/xlink" x="0px" y="0px"
	 viewBox="0 0 502.151 502.151" style="enable-background:new 0 0 502.151 502.151;" xml:space="preserve">
<g>
	<rect x="212.998" y="123.484" style="fill:#3A5569;" width="49.067" height="206.933"/>
	<path style="fill:#3A5569;" d="M401.798,463.751c-6.4,0-12.8-2.133-18.133-6.4L237.531,331.484L91.398,457.351
		c-9.6,8.533-26.667,8.533-36.267,0s-9.6-22.4,0-30.933l164.267-141.867c9.6-8.533,26.667-8.533,36.267,0l164.267,141.867
		c9.6,8.533,9.6,22.4,0,30.933C414.598,461.618,408.198,463.751,401.798,463.751z"/>
	<path style="fill:#3A5569;" d="M237.531,502.151c-13.867,0-25.6-10.667-25.6-24.533V315.484c0-13.867,11.733-24.533,25.6-24.533
		c13.867,0,25.6,10.667,25.6,24.533v162.133C263.131,491.484,251.398,502.151,237.531,502.151z"/>
</g>
<path style="fill:#2E4859;" d="M230.064,54.151L89.264,0.818c-5.333-2.133-10.667,0-11.733,5.333l-59.733,144
	c-2.133,4.267,0,9.6,5.333,11.733l140.8,53.333c5.333,2.133,10.667,0,11.733-5.333l57.6-142.933
	C237.531,61.618,234.331,56.284,230.064,54.151z"/>
<g>
	<path style="fill:#E6D8CC;" d="M14.598,150.151l3.2,1.067L76.464,5.084l-2.133-1.067C63.664-0.249,50.864,5.084,46.598,15.751
		l-44.8,107.733C-2.469,134.151,2.864,145.884,14.598,150.151z"/>
	<path style="fill:#E6D8CC;" d="M336.731,105.351l-102.4-38.4l-56.533,141.867l102.4,38.4c5.333,2.133,10.667,0,12.8-5.333
		l50.133-123.733C344.198,112.818,342.064,107.484,336.731,105.351z"/>
</g>
<path style="fill:#3A5569;" d="M436.998,149.084l-92.8-35.2l-52.267,129.067l92.8,35.2c9.6,4.267,21.333-1.067,25.6-10.667
	l38.4-93.867C451.931,164.018,446.598,153.351,436.998,149.084z"/>
<path style="fill:#F6D2BC;" d="M492.464,212.018l-52.267-19.2l-23.467,57.6l52.267,19.2c8.533,3.2,18.133-2.133,22.4-12.8
	l8.533-20.267C504.198,225.884,500.998,215.218,492.464,212.018z"/>
<g>
</g>
<g>
</g>
<g>
</g>
<g>
</g>
<g>
</g>
<g>
</g>
<g>
</g>
<g>
</g>
<g>
</g>
<g>
</g>
<g>
</g>
<g>
</g>
<g>
</g>
<g>
</g>
<g>
</g>
</svg>
