<?xml version="1.0" encoding="iso-8859-1"?>
<!-- Generator: Adobe Illustrator 19.0.0, SVG Export Plug-In . SVG Version: 6.00 Build 0)  -->
<svg version="1.1" id="Layer_1" xmlns="http://www.w3.org/2000/svg" xmlns:xlink="http://www.w3.org/1999/xlink" x="0px" y="0px"
	 viewBox="0 0 501.333 501.333" style="enable-background:new 0 0 501.333 501.333;" xml:space="preserve">
<path style="fill:#637888;" d="M250.667,0C112,0,0,112,0,250.667s112,250.667,250.667,250.667s250.667-112,250.667-250.667
	S389.333,0,250.667,0z M250.667,285.867c-19.2,0-35.2-16-35.2-35.2s16-35.2,35.2-35.2s35.2,16,35.2,35.2
	S269.867,285.867,250.667,285.867z"/>
<path style="fill:#53C2EF;" d="M250.667,146.133c-57.6,0-104.533,46.933-104.533,104.533S193.067,355.2,250.667,355.2
	S355.2,308.267,355.2,250.667S308.267,146.133,250.667,146.133z M250.667,285.867c-19.2,0-35.2-16-35.2-35.2s16-35.2,35.2-35.2
	s35.2,16,35.2,35.2S269.867,285.867,250.667,285.867z"/>
<g>
</g>
<g>
</g>
<g>
</g>
<g>
</g>
<g>
</g>
<g>
</g>
<g>
</g>
<g>
</g>
<g>
</g>
<g>
</g>
<g>
</g>
<g>
</g>
<g>
</g>
<g>
</g>
<g>
</g>
</svg>
