<?xml version="1.0" encoding="iso-8859-1"?>
<!-- Generator: Adobe Illustrator 19.0.0, SVG Export Plug-In . SVG Version: 6.00 Build 0)  -->
<svg version="1.1" id="Layer_1" xmlns="http://www.w3.org/2000/svg" xmlns:xlink="http://www.w3.org/1999/xlink" x="0px" y="0px"
	 viewBox="0 0 501.553 501.553" style="enable-background:new 0 0 501.553 501.553;" xml:space="preserve">
<path style="fill:#F16D6E;" d="M384.11,134.4c-44.8-10.667-71.467,22.4-133.333,22.4c-60.8,0-87.467-32-133.333-22.4
	c-73.6,16-108.8,112-78.933,212.267C69.443,448,153.71,515.2,227.31,499.2c8.533-2.133,14.933-8.533,23.467-8.533
	c8.533,0,14.933,6.4,23.467,8.533c73.6,16,157.867-51.2,188.8-152.533C492.91,246.4,457.71,150.4,384.11,134.4z"/>
<path style="fill:#91573B;" d="M294.51,0h-36.267C246.51,36.267,230.51,96,233.71,161.067L267.843,160
	C264.643,92.8,282.777,30.933,294.51,0z"/>
<path style="fill:#60C3AB;" d="M189.977,27.733c-28.8-22.4-67.2-28.8-106.667-19.2l0,0c-1.067,40.533,11.733,76.8,40.533,99.2
	c28.8,23.467,67.2,28.8,105.6,19.2l0,0C231.577,87.467,217.71,51.2,189.977,27.733z"/>
<g>
</g>
<g>
</g>
<g>
</g>
<g>
</g>
<g>
</g>
<g>
</g>
<g>
</g>
<g>
</g>
<g>
</g>
<g>
</g>
<g>
</g>
<g>
</g>
<g>
</g>
<g>
</g>
<g>
</g>
</svg>
