<?xml version="1.0" encoding="iso-8859-1"?>
<!-- Generator: Adobe Illustrator 19.0.0, SVG Export Plug-In . SVG Version: 6.00 Build 0)  -->
<svg version="1.1" id="Layer_1" xmlns="http://www.w3.org/2000/svg" xmlns:xlink="http://www.w3.org/1999/xlink" x="0px" y="0px"
	 viewBox="0 0 502.145 502.145" style="enable-background:new 0 0 502.145 502.145;" xml:space="preserve">
<g>
	<path style="fill:#637888;" d="M128.406,436.673l-25.6-1.067c2.133-33.067-14.933-65.067-29.867-93.867l-39.467-77.867
		c-10.667-21.333-22.4-43.733-28.8-68.267c-5.333-20.267-8.533-50.133,4.267-78.933c12.8-27.733,39.467-45.867,66.133-45.867l0,0
		c27.733,0,51.2,19.2,67.2,30.933l-16,21.333c-17.067-13.867-34.133-25.6-51.2-25.6l0,0c-17.067,0-34.133,12.8-42.667,30.933
		c-7.467,17.067-8.533,38.4-2.133,60.8c5.333,21.333,16,42.667,26.667,62.933l39.467,77.867
		C112.406,359.873,130.539,396.139,128.406,436.673z"/>
	<path style="fill:#637888;" d="M373.739,436.673l25.6-1.067c-2.133-33.067,14.933-65.067,29.867-93.867l39.467-77.867
		c10.667-21.333,22.4-43.733,28.8-68.267c5.333-20.267,8.533-50.133-4.267-78.933c-12.8-27.733-39.467-45.867-66.133-46.933l0,0
		c-27.733,0-51.2,19.2-67.2,30.933l16,21.333c17.067-13.867,34.133-25.6,51.2-25.6l0,0c17.067,0,34.133,12.8,42.667,30.933
		c7.467,17.067,8.533,38.4,2.133,60.8c-5.333,21.333-16,42.667-26.667,62.933l-39.467,77.867
		C389.739,359.873,371.606,396.139,373.739,436.673z"/>
	<path style="fill:#637888;" d="M360.939,112.406H141.206v-67.2c0-24.533,20.267-44.8,44.8-44.8h130.133
		c24.533,0,44.8,20.267,44.8,44.8V112.406z M162.539,90.006h177.067v-44.8c0-12.8-10.667-23.467-23.467-23.467H186.006
		c-12.8,0-23.467,10.667-23.467,23.467V90.006z"/>
</g>
<path style="fill:#3A5569;" d="M301.206,62.273H199.873c-69.333,0-124.8,55.467-124.8,124.8v279.467c0,19.2,16,35.2,35.2,35.2h281.6
	c19.2,0,35.2-16,35.2-35.2v-278.4C426.006,118.806,370.539,62.273,301.206,62.273z"/>
<g>
	<path style="fill:#53C2EF;" d="M370.539,355.606H131.606c-8.533,0-14.933,6.4-14.933,14.933v71.467
		c0,8.533,6.4,14.933,14.933,14.933h238.933c8.533,0,14.933-6.4,14.933-14.933v-71.467
		C385.473,363.073,379.073,355.606,370.539,355.606z"/>
	<path style="fill:#53C2EF;" d="M274.539,104.939h-48c-60.8,0-110.933,50.133-110.933,110.933v92.8
		c0,8.533,6.4,14.933,14.933,14.933h238.933c8.533,0,14.933-6.4,14.933-14.933v-92.8
		C385.473,155.073,336.406,104.939,274.539,104.939z"/>
</g>
<rect x="159.339" y="195.606" style="fill:#637888;" width="186.667" height="12.8"/>
<rect x="156.139" y="195.606" style="fill:#FAECE1;" width="21.333" height="39.467"/>
<g>
</g>
<g>
</g>
<g>
</g>
<g>
</g>
<g>
</g>
<g>
</g>
<g>
</g>
<g>
</g>
<g>
</g>
<g>
</g>
<g>
</g>
<g>
</g>
<g>
</g>
<g>
</g>
<g>
</g>
</svg>
