<?xml version="1.0" encoding="iso-8859-1"?>
<!-- Generator: Adobe Illustrator 19.0.0, SVG Export Plug-In . SVG Version: 6.00 Build 0)  -->
<svg version="1.1" id="Layer_1" xmlns="http://www.w3.org/2000/svg" xmlns:xlink="http://www.w3.org/1999/xlink" x="0px" y="0px"
	 viewBox="0 0 501.333 501.333" style="enable-background:new 0 0 501.333 501.333;" xml:space="preserve">
<g>
	<path style="fill:#F16D6E;" d="M240,174.933C164.267,172.8,96,144,50.133,100.267C20.267,139.733,2.133,187.733,0,240h240V174.933z
		"/>
	<path style="fill:#F16D6E;" d="M64,84.267c41.6,40.533,105.6,67.2,176,69.333V0C169.6,3.2,107.733,35.2,64,84.267z"/>
	<path style="fill:#F16D6E;" d="M261.333,0v152.533c71.467-2.133,134.4-28.8,176-69.333C393.6,35.2,331.733,3.2,261.333,0z"/>
	<path style="fill:#F16D6E;" d="M261.333,240h240c-2.133-52.267-20.267-100.267-50.133-139.733
		C405.333,144,337.067,171.733,261.333,174.933V240z"/>
	<path style="fill:#F16D6E;" d="M240,261.333H0C2.133,313.6,20.267,361.6,50.133,401.067C96,357.333,164.267,329.6,240,326.4
		V261.333z"/>
	<path style="fill:#F16D6E;" d="M437.333,417.067c-41.6-40.533-105.6-67.2-176-69.333v152.533
		C331.733,498.133,393.6,466.133,437.333,417.067z"/>
	<path style="fill:#F16D6E;" d="M261.333,261.333V326.4c75.733,2.133,144,30.933,189.867,74.667
		c29.867-39.467,48-87.467,50.133-139.733L261.333,261.333L261.333,261.333z"/>
	<path style="fill:#F16D6E;" d="M240,501.333v-153.6c-71.467,2.133-134.4,28.8-176,69.333
		C107.733,466.133,169.6,498.133,240,501.333z"/>
</g>
<path style="fill:#FFFFFF;" d="M261.333,261.333h240c0-3.2,0-7.467,0-10.667s0-7.467,0-10.667h-240v-65.067
	c75.733-2.133,144-30.933,189.867-74.667c-4.267-5.333-8.533-10.667-13.867-16c-41.6,40.533-105.6,67.2-176,69.333V0
	c-3.2,0-7.467,0-10.667,0S243.2,0,240,0v152.533c-71.467-2.133-134.4-28.8-176-69.333c-5.333,6.4-9.6,11.733-13.867,17.067
	C96,144,164.267,171.733,240,174.933V240H0c0,3.2,0,7.467,0,10.667s0,7.467,0,10.667h240V326.4
	c-75.733,2.133-144,30.933-189.867,74.667c4.267,5.333,8.533,10.667,13.867,16c41.6-40.533,105.6-67.2,176-69.333v152.533
	c3.2,0,7.467,0,10.667,0s7.467,0,10.667,0V347.733c71.467,2.133,134.4,28.8,176,69.333c4.267-5.333,9.6-10.667,13.867-16
	C405.333,357.333,337.067,329.6,261.333,326.4V261.333z"/>
<g>
</g>
<g>
</g>
<g>
</g>
<g>
</g>
<g>
</g>
<g>
</g>
<g>
</g>
<g>
</g>
<g>
</g>
<g>
</g>
<g>
</g>
<g>
</g>
<g>
</g>
<g>
</g>
<g>
</g>
</svg>
