<?xml version="1.0" encoding="iso-8859-1"?>
<!-- Generator: Adobe Illustrator 19.0.0, SVG Export Plug-In . SVG Version: 6.00 Build 0)  -->
<svg version="1.1" id="Layer_1" xmlns="http://www.w3.org/2000/svg" xmlns:xlink="http://www.w3.org/1999/xlink" x="0px" y="0px"
	 viewBox="0 0 501.333 501.333" style="enable-background:new 0 0 501.333 501.333;" xml:space="preserve">
<path style="fill:#637888;" d="M453.333,41.067H48c-26.667,0-48,21.333-48,48v323.2c0,26.667,21.333,48,48,48h405.333
	c26.667,0,48-21.333,48-48v-323.2C501.333,63.467,480,41.067,453.333,41.067z"/>
<path style="fill:#49B9B5;" d="M38.4,405.867V96.533c0-9.6,7.467-17.067,17.067-17.067h391.467c9.6,0,17.067,7.467,17.067,17.067
	v309.333c0,9.6-7.467,17.067-17.067,17.067H54.4C45.867,422.933,38.4,415.467,38.4,405.867z"/>
<g>
	<path style="fill:#FAECE1;" d="M119.467,309.867l-3.2-17.067l-28.8,5.333L86.4,292.8l20.267-45.867l9.6-2.133l7.467,38.4
		l8.533-2.133l1.067,6.4L124.8,289.6l3.2,17.067L119.467,309.867z M115.2,286.4l-4.267-21.333c-1.067-3.2-1.067-6.4-2.133-9.6l0,0
		c-1.067,4.267-2.133,7.467-3.2,10.667l-10.667,24.533l0,0L115.2,286.4z"/>
	<path style="fill:#FAECE1;" d="M161.067,253.333l8.533,8.533c2.133,2.133,4.267,4.267,6.4,6.4l0,0c1.067-3.2,2.133-5.333,3.2-8.533
		l4.267-10.667l9.6-2.133l-11.733,25.6l21.333,21.333l-9.6,2.133l-8.533-9.6c-2.133-2.133-4.267-4.267-6.4-7.467l0,0
		c-1.067,3.2-2.133,6.4-3.2,8.533l-4.267,11.733l-9.6,2.133l11.733-26.667L152.533,254.4L161.067,253.333z"/>
	<path style="fill:#FAECE1;" d="M228.267,289.6l-1.067-5.333l5.333-7.467c12.8-18.133,19.2-27.733,17.067-37.333
		c-1.067-6.4-5.333-11.733-14.933-9.6c-5.333,1.067-9.6,5.333-12.8,7.467l-3.2-5.333c3.2-4.267,9.6-8.533,16-9.6
		c13.867-2.133,21.333,5.333,22.4,14.933c2.133,11.733-4.267,22.4-14.933,37.333L237.867,280l0,0l27.733-5.333l1.067,7.467
		L228.267,289.6z"/>
	<path style="fill:#FAECE1;" d="M291.2,243.733l-1.067-5.333l50.133-9.6l1.067,5.333L291.2,243.733z M295.467,261.867l-1.067-5.333
		l50.133-9.6l1.067,5.333L295.467,261.867z"/>
	<path style="fill:#FAECE1;" d="M372.267,244.8c-1.067-7.467,2.133-13.867,9.6-19.2l0,0c-7.467-2.133-11.733-6.4-12.8-11.733
		c-2.133-9.6,5.333-18.133,16-20.267c11.733-2.133,19.2,4.267,21.333,11.733c1.067,5.333,0,11.733-7.467,17.067l0,0
		c8.533,1.067,13.867,6.4,16,13.867c2.133,10.667-5.333,20.267-18.133,22.4C384,259.733,374.4,254.4,372.267,244.8z M406.4,238.4
		c-1.067-7.467-7.467-10.667-16-10.667c-6.4,3.2-9.6,9.6-8.533,14.933c1.067,6.4,6.4,10.667,14.933,9.6
		C403.2,250.133,407.467,244.8,406.4,238.4z M376.533,210.667c1.067,6.4,6.4,8.533,13.867,9.6c5.333-3.2,8.533-7.467,7.467-12.8
		s-5.333-9.6-12.8-8.533C378.667,200,375.467,205.333,376.533,210.667z"/>
</g>
<g>
</g>
<g>
</g>
<g>
</g>
<g>
</g>
<g>
</g>
<g>
</g>
<g>
</g>
<g>
</g>
<g>
</g>
<g>
</g>
<g>
</g>
<g>
</g>
<g>
</g>
<g>
</g>
<g>
</g>
</svg>
