<?xml version="1.0" encoding="iso-8859-1"?>
<!-- Generator: Adobe Illustrator 19.0.0, SVG Export Plug-In . SVG Version: 6.00 Build 0)  -->
<svg version="1.1" id="Layer_1" xmlns="http://www.w3.org/2000/svg" xmlns:xlink="http://www.w3.org/1999/xlink" x="0px" y="0px"
	 viewBox="0 0 501.333 501.333" style="enable-background:new 0 0 501.333 501.333;" xml:space="preserve">
<path style="fill:#FEC656;" d="M402.133,337.067H22.4c-11.733,0-22.4-9.6-22.4-22.4V22.4C0,10.667,9.6,0,22.4,0h379.733
	c11.733,0,22.4,9.6,22.4,22.4v292.267C423.467,327.467,413.867,337.067,402.133,337.067z M44.8,313.6h333.867
	c11.733,0,22.4-9.6,22.4-22.4V45.867c0-11.733-9.6-22.4-22.4-22.4H44.8c-11.733,0-22.4,9.6-22.4,22.4v246.4
	C23.467,304,33.067,313.6,44.8,313.6z"/>
<g>
	<rect x="0" y="371.2" style="fill:#637888;" width="360.533" height="23.467"/>
	<path style="fill:#637888;" d="M23.467,35.2v266.667c0,6.4,5.333,11.733,11.733,11.733h158.933h194.133
		c6.4,0,11.733-5.333,11.733-11.733V174.933V35.2c0-6.4-5.333-11.733-11.733-11.733H35.2C28.8,23.467,23.467,28.8,23.467,35.2z"/>
</g>
<polygon style="fill:#F6F7F8;" points="151.467,276.267 117.333,153.6 139.733,147.2 173.867,269.867 "/>
<path style="fill:#53C2EF;" d="M501.333,501.333c0-6.4,0-98.133-1.067-104.533c-7.467-46.933-40.533-84.267-84.267-98.133h-72.533
	c-14.933,4.267-28.8,12.8-40.533,22.4l-68.267,25.6L184.533,268.8c-6.4-9.6-19.2-12.8-28.8-6.4c-9.6,6.4-12.8,19.2-6.4,28.8
	l59.733,91.733c4.267,6.4,10.667,9.6,18.133,9.6c2.133,0,5.333,0,7.467-1.067l28.8-10.667c-1.067,4.267-2.133,9.6-3.2,13.867
	c-1.067,6.4-2.133,99.2-2.133,106.667L501.333,501.333L501.333,501.333z"/>
<ellipse style="fill:#F16D6E;" cx="379.733" cy="241.067" rx="66.133" ry="67.2"/>
<g>
</g>
<g>
</g>
<g>
</g>
<g>
</g>
<g>
</g>
<g>
</g>
<g>
</g>
<g>
</g>
<g>
</g>
<g>
</g>
<g>
</g>
<g>
</g>
<g>
</g>
<g>
</g>
<g>
</g>
</svg>
