<?xml version="1.0" encoding="iso-8859-1"?>
<!-- Generator: Adobe Illustrator 19.0.0, SVG Export Plug-In . SVG Version: 6.00 Build 0)  -->
<svg version="1.1" id="Layer_1" xmlns="http://www.w3.org/2000/svg" xmlns:xlink="http://www.w3.org/1999/xlink" x="0px" y="0px"
	 viewBox="0 0 501.333 501.333" style="enable-background:new 0 0 501.333 501.333;" xml:space="preserve">
<path style="fill:#4EAD95;" d="M0,244.267v257.067h501.333V244.267c-70.4,25.6-156.8,40.533-250.667,40.533S70.4,269.867,0,244.267z
	"/>
<g>
	<path style="fill:#4D4E5B;" d="M286.933,380.8c-20.267,20.267-52.267,20.267-72.533,0c0-45.867,0-90.667,0-136.533
		c24.533,0,48,0,72.533,0C286.933,290.133,286.933,334.933,286.933,380.8z"/>
	<path style="fill:#4D4E5B;" d="M387.2,178.133H114.133V44.8c0-24.533,19.2-44.8,42.667-44.8h186.667
		c23.467,0,42.667,20.267,42.667,44.8v133.333H387.2z M150.4,140.8h200.533v-96c0-4.267-3.2-7.467-7.467-7.467H156.8
		c-4.267,0-7.467,3.2-7.467,7.467v96H150.4z"/>
</g>
<path style="fill:#60C3AB;" d="M0,99.2v145.067c70.4,25.6,156.8,40.533,250.667,40.533s180.267-14.933,250.667-40.533V99.2H0z"/>
<path style="fill:#F6F7F8;" d="M261.333,308.267H240c-5.333,0-10.667,4.267-10.667,10.667v34.133
	c0,5.333,4.267,10.667,10.667,10.667h21.333c5.333,0,10.667-4.267,10.667-10.667v-34.133
	C270.933,312.533,266.667,308.267,261.333,308.267z"/>
<g>
</g>
<g>
</g>
<g>
</g>
<g>
</g>
<g>
</g>
<g>
</g>
<g>
</g>
<g>
</g>
<g>
</g>
<g>
</g>
<g>
</g>
<g>
</g>
<g>
</g>
<g>
</g>
<g>
</g>
</svg>
