<?xml version="1.0" encoding="iso-8859-1"?>
<!-- Generator: Adobe Illustrator 19.0.0, SVG Export Plug-In . SVG Version: 6.00 Build 0)  -->
<svg version="1.1" id="Layer_1" xmlns="http://www.w3.org/2000/svg" xmlns:xlink="http://www.w3.org/1999/xlink" x="0px" y="0px"
	 viewBox="0 0 501.333 501.333" style="enable-background:new 0 0 501.333 501.333;" xml:space="preserve">
<rect style="fill:#F16D6E;" width="501.333" height="114.133"/>
<rect y="114.133" style="fill:#F6F7F8;" width="501.333" height="387.2"/>
<g>
	<path style="fill:#4D4E5B;" d="M160,254.933L160,254.933l-34.133,16l-6.4-30.933l45.867-21.333h34.133V393.6H160L160,254.933
		L160,254.933z"/>
	<path style="fill:#4D4E5B;" d="M374.4,252.8h-68.267l-4.267,26.667c4.267-1.067,7.467-1.067,11.733-1.067
		c17.067,0,34.133,4.267,45.867,12.8c12.8,8.533,21.333,23.467,21.333,43.733c0,33.067-27.733,60.8-74.667,60.8
		c-21.333,0-39.467-5.333-49.067-9.6l7.467-30.933C272,359.467,288,363.733,304,363.733c17.067,0,35.2-8.533,35.2-26.667
		c0-18.133-13.867-28.8-49.067-28.8c-9.6,0-16,1.067-23.467,2.133l11.733-91.733h96L374.4,252.8L374.4,252.8z"/>
</g>
<g>
	<circle style="fill:#D2535A;" cx="132.267" cy="57.6" r="22.4"/>
	<circle style="fill:#D2535A;" cx="369.067" cy="57.6" r="22.4"/>
</g>
<g>
</g>
<g>
</g>
<g>
</g>
<g>
</g>
<g>
</g>
<g>
</g>
<g>
</g>
<g>
</g>
<g>
</g>
<g>
</g>
<g>
</g>
<g>
</g>
<g>
</g>
<g>
</g>
<g>
</g>
</svg>
