<?xml version="1.0" encoding="iso-8859-1"?>
<!-- Generator: Adobe Illustrator 19.0.0, SVG Export Plug-In . SVG Version: 6.00 Build 0)  -->
<svg version="1.1" id="Layer_1" xmlns="http://www.w3.org/2000/svg" xmlns:xlink="http://www.w3.org/1999/xlink" x="0px" y="0px"
	 viewBox="0 0 501.333 501.333" style="enable-background:new 0 0 501.333 501.333;" xml:space="preserve">
<rect style="fill:#F6F7F8;" width="406.4" height="501.333"/>
<rect style="fill:#637888;" width="406.4" height="29.867"/>
<rect x="73.6" y="88.533" style="fill:#60C3AB;" width="259.2" height="10.667"/>
<g>
	<rect x="73.6" y="154.667" style="fill:#BDC2C6;" width="259.2" height="10.667"/>
	<rect x="73.6" y="221.867" style="fill:#BDC2C6;" width="259.2" height="10.667"/>
	<rect x="73.6" y="288" style="fill:#BDC2C6;" width="133.333" height="10.667"/>
	<rect x="73.6" y="354.133" style="fill:#BDC2C6;" width="133.333" height="10.667"/>
	<rect x="73.6" y="420.267" style="fill:#BDC2C6;" width="133.333" height="10.667"/>
</g>
<polygon style="fill:#E14A4A;" points="501.333,440.533 454.4,438.4 444.8,485.333 369.067,391.467 426.667,346.667 "/>
<polygon style="fill:#F16D6E;" points="259.2,440.533 305.067,438.4 315.733,485.333 390.4,391.467 333.867,346.667 "/>
<polygon style="fill:#53C2EF;" points="379.733,256 397.867,244.267 409.6,262.4 430.933,258.133 433.067,280.533 454.4,284.8 
	448,306.133 466.133,318.933 451.2,336 461.867,354.133 442.667,363.733 443.733,386.133 422.4,386.133 414.933,406.4 
	394.667,397.867 379.733,413.867 364.8,397.867 344.533,406.4 338.133,386.133 315.733,386.133 317.867,363.733 297.6,354.133 
	308.267,336 294.4,318.933 311.467,306.133 305.067,284.8 326.4,280.533 329.6,258.133 350.933,262.4 361.6,244.267 "/>
<ellipse style="fill:#FEC656;" cx="379.733" cy="328.533" rx="51.2" ry="51.2"/>
<g>
</g>
<g>
</g>
<g>
</g>
<g>
</g>
<g>
</g>
<g>
</g>
<g>
</g>
<g>
</g>
<g>
</g>
<g>
</g>
<g>
</g>
<g>
</g>
<g>
</g>
<g>
</g>
<g>
</g>
</svg>
