<?xml version="1.0" encoding="iso-8859-1"?>
<!-- Generator: Adobe Illustrator 19.0.0, SVG Export Plug-In . SVG Version: 6.00 Build 0)  -->
<svg version="1.1" id="Layer_1" xmlns="http://www.w3.org/2000/svg" xmlns:xlink="http://www.w3.org/1999/xlink" x="0px" y="0px"
	 viewBox="0 0 502.4 502.4" style="enable-background:new 0 0 502.4 502.4;" xml:space="preserve">
<path style="fill:#E0E0DF;" d="M413.867,302.4L316.8,171.2V66.667c0-5.333,4.267-9.6,9.6-9.6l0,0c5.333,0,9.6-4.267,9.6-9.6v-16
	c0-5.333-4.267-9.6-9.6-9.6h-97.067c-5.333,0-9.6,4.267-9.6,9.6v16c0,5.333,4.267,9.6,9.6,9.6l0,0c5.333,0,9.6,4.267,9.6,9.6v105.6
	l-97.067,131.2c-14.933,20.267-3.2,36.267,25.6,36.267h220.8C417.067,339.733,428.8,322.667,413.867,302.4z"/>
<path style="fill:#60C3AB;" d="M340.267,226.667h-124.8L153.6,310.933c-3.2,4.267-4.267,7.467-3.2,8.533
	c1.067,1.067,6.4,4.267,17.067,4.267h220.8c11.733,0,17.067-3.2,17.067-4.267c0-1.067,0-4.267-3.2-8.533L340.267,226.667z"/>
<path style="fill:#3A5569;" d="M71.467,0.533c-8.533,0-16,7.467-16,16v427.733h32V16.533C87.467,8,80,0.533,71.467,0.533z"/>
<path style="fill:#637888;" d="M472.533,444.267H28.8c-16,0-28.8,12.8-28.8,28.8s12.8,28.8,28.8,28.8h444.8
	c16,0,28.8-12.8,28.8-28.8C501.333,457.067,488.533,444.267,472.533,444.267z"/>
<rect x="24.533" y="114.667" style="fill:#FEC656;" width="349.867" height="25.6"/>
<rect x="12.8" y="98.667" style="fill:#EF9F2C;" width="11.733" height="57.6"/>
<g>
	<ellipse style="fill:#FFFFFF;" cx="220.8" cy="286.4" rx="11.733" ry="11.733"/>
	<circle style="fill:#FFFFFF;" cx="298.667" cy="246.933" r="6.4"/>
	<circle style="fill:#FFFFFF;" cx="352" cy="299.2" r="6.4"/>
	<ellipse style="fill:#FFFFFF;" cx="272" cy="184" rx="9.6" ry="9.6"/>
	<circle style="fill:#FFFFFF;" cx="293.333" cy="98.667" r="6.4"/>
	<circle style="fill:#FFFFFF;" cx="266.667" cy="49.6" r="6.4"/>
</g>
<g>
	<path style="fill:#E14A4A;" d="M267.733,355.733c1.067,1.067,2.133,2.133,3.2,3.2C270.933,356.8,269.867,354.667,267.733,355.733z"
		/>
	<path style="fill:#E14A4A;" d="M174.933,431.467h220.8c0-23.467-6.4-45.867-18.133-65.067c2.133,6.4,1.067,13.867-3.2,19.2
		c-2.133,3.2-6.4,6.4-8.533,8.533c-2.133,2.133-3.2,4.267-4.267,7.467c0-18.133-6.4-36.267-17.067-51.2
		c2.133,6.4-1.067,14.933-6.4,19.2c-5.333,5.333-11.733,8.533-18.133,10.667c-5.333,2.133-10.667,3.2-13.867,7.467
		c-4.267,5.333-3.2,12.8-2.133,19.2c-7.467-7.467-12.8-18.133-12.8-28.8c-4.267,6.4-7.467,12.8-7.467,20.267
		c1.067-14.933-3.2-29.867-12.8-41.6l0,0c0,13.867-20.267,22.4-20.267,36.267c0,6.4,3.2,11.733,6.4,16
		c-6.4-3.2-12.8-6.4-14.933-13.867c-1.067-2.133-1.067-5.333-1.067-8.533c-1.067-12.8-4.267-24.533-10.667-35.2
		c0,8.533-8.533,13.867-16,18.133c-5.333,3.2-10.667,7.467-14.933,11.733c-2.133,3.2-4.267,6.4-5.333,9.6
		c-1.067-5.333-3.2-9.6-6.4-12.8C182.4,371.733,176,367.467,172.8,360c1.067,6.4,1.067,13.867-2.133,19.2
		c-1.067,2.133-3.2,3.2-5.333,5.333c-5.333,6.4-5.333,16-2.133,24.533C165.333,419.733,169.6,425.067,174.933,431.467z"/>
</g>
<path style="fill:#3A5569;" d="M389.333,431.467H166.4c-7.467,0-13.867,6.4-13.867,13.867h249.6
	C403.2,437.867,396.8,431.467,389.333,431.467z"/>
<circle style="fill:#EF9F2C;" cx="71.467" cy="127.467" r="27.733"/>
<path style="fill:#FEC656;" d="M384,431.467c0-1.067,0-2.133,0-4.267c0-2.133,0-4.267-1.067-6.4
	c-1.067-2.133-4.267-2.133-5.333-1.067c-1.067-3.2-3.2-6.4-4.267-9.6c-4.267,2.133-6.4,6.4-8.533,10.667
	c-1.067-2.133-2.133-5.333-3.2-7.467c-3.2,3.2-7.467,6.4-10.667,8.533c5.333-9.6,3.2-22.4-5.333-28.8c0,3.2,0,6.4,0,8.533
	c-1.067,3.2-3.2,5.333-5.333,6.4s-4.267,0-6.4,0c-3.2,0-6.4,3.2-9.6,5.333c-4.267,3.2-9.6,7.467-10.667,13.867
	c-5.333,0-10.667-2.133-13.867-6.4c-1.067-1.067-2.133-2.133-3.2-3.2c-1.067-1.067-3.2-1.067-4.267,0
	c-1.067,1.067-1.067,2.133-2.133,2.133c-1.067,1.067-3.2,1.067-4.267,0c-1.067-1.067-2.133-3.2-2.133-4.267
	c-1.067,0-2.133,1.067-3.2,2.133c-2.133-3.2-4.267-6.4-5.333-10.667c-5.333,6.4-10.667,13.867-9.6,22.4
	c-6.4-3.2-13.867-5.333-20.267-8.533c-4.267-1.067-7.467-3.2-10.667-6.4c-5.333-5.333-6.4-12.8-6.4-20.267
	c-9.6,7.467-14.933,17.067-13.867,27.733c-1.067-2.133-3.2-3.2-5.333-4.267c-2.133-1.067-5.333,1.067-5.333,3.2
	c-4.267-2.133-8.533-5.333-11.733-8.533c-1.067,3.2-1.067,6.4,0,9.6c-6.4-4.267-12.8-9.6-12.8-16c-3.2,8.533-3.2,18.133,1.067,25.6
	H384z"/>
<g>
</g>
<g>
</g>
<g>
</g>
<g>
</g>
<g>
</g>
<g>
</g>
<g>
</g>
<g>
</g>
<g>
</g>
<g>
</g>
<g>
</g>
<g>
</g>
<g>
</g>
<g>
</g>
<g>
</g>
</svg>
