<?xml version="1.0" encoding="iso-8859-1"?>
<!-- Generator: Adobe Illustrator 19.0.0, SVG Export Plug-In . SVG Version: 6.00 Build 0)  -->
<svg version="1.1" id="Layer_1" xmlns="http://www.w3.org/2000/svg" xmlns:xlink="http://www.w3.org/1999/xlink" x="0px" y="0px"
	 viewBox="0 0 502.4 502.4" style="enable-background:new 0 0 502.4 502.4;" xml:space="preserve">
<path style="fill:#E0E0DF;" d="M251.2,110.933c-29.867,0-55.467-24.533-55.467-55.467S220.267,0,251.2,0
	c29.867,0,55.467,24.533,55.467,55.467S281.067,110.933,251.2,110.933z M251.2,14.933c-22.4,0-40.533,18.133-40.533,40.533
	S228.8,96,251.2,96s40.533-18.133,40.533-40.533S273.6,14.933,251.2,14.933z"/>
<path style="fill:#3A5569;" d="M251.2,80c-11.733,0-21.333,5.333-21.333,11.733v30.933h42.667V91.733
	C272.533,85.333,262.933,80,251.2,80z"/>
<circle style="fill:#60C3AB;" cx="251.2" cy="309.333" r="193.067"/>
<circle style="fill:#E0E0DF;" cx="251.2" cy="309.333" r="153.6"/>
<g>
	<path style="fill:#637888;" d="M232,222.933V172.8h7.467l16,25.6c3.2,5.333,6.4,10.667,8.533,16l0,0
		c-1.067-6.4-1.067-12.8-1.067-20.267V172.8h6.4v50.133h-6.4l-16-25.6c-3.2-5.333-6.4-11.733-9.6-17.067l0,0c0,6.4,0,12.8,0,20.267
		v21.333H232V222.933z"/>
	<path style="fill:#637888;" d="M237.333,442.667c3.2,2.133,7.467,3.2,11.733,3.2c6.4,0,10.667-3.2,10.667-8.533
		c0-4.267-2.133-7.467-9.6-9.6c-8.533-3.2-12.8-7.467-12.8-13.867c0-7.467,6.4-13.867,16-13.867c5.333,0,8.533,1.067,10.667,2.133
		l-2.133,5.333c-2.133-1.067-5.333-2.133-9.6-2.133c-6.4,0-9.6,4.267-9.6,7.467c0,4.267,3.2,7.467,9.6,9.6
		c8.533,3.2,12.8,7.467,12.8,14.933S259.733,451.2,248,451.2c-5.333,0-9.6-1.067-12.8-3.2L237.333,442.667z"/>
	<path style="fill:#637888;" d="M123.2,334.933L110.4,284.8h6.4l6.4,25.6c1.067,6.4,3.2,12.8,3.2,17.067l0,0
		c1.067-5.333,2.133-10.667,4.267-17.067l6.4-25.6h7.467l6.4,25.6c1.067,6.4,3.2,11.733,3.2,17.067l0,0
		c1.067-5.333,2.133-10.667,4.267-17.067l6.4-25.6h6.4l-13.867,50.133h-6.4l-6.4-26.667c-1.067-6.4-2.133-11.733-3.2-16l0,0
		c-1.067,5.333-2.133,9.6-4.267,16l-7.467,25.6h-6.4V334.933z"/>
	<path style="fill:#637888;" d="M381.333,311.467h-19.2V329.6h21.333v5.333h-27.733V284.8H382.4v5.333h-20.267v16h19.2V311.467z"/>
</g>
<polygon style="fill:#2FC0E9;" points="148.8,411.733 269.333,328.533 233.067,291.2 "/>
<polygon style="fill:#F16D6E;" points="233.067,291.2 269.333,328.533 353.6,208 "/>
<circle style="fill:#FFFFFF;" cx="251.2" cy="309.333" r="19.2"/>
<circle style="fill:#3A5569;" cx="251.2" cy="309.333" r="11.733"/>
<g>
</g>
<g>
</g>
<g>
</g>
<g>
</g>
<g>
</g>
<g>
</g>
<g>
</g>
<g>
</g>
<g>
</g>
<g>
</g>
<g>
</g>
<g>
</g>
<g>
</g>
<g>
</g>
<g>
</g>
</svg>
