<?xml version="1.0" encoding="iso-8859-1"?>
<!-- Generator: Adobe Illustrator 19.0.0, SVG Export Plug-In . SVG Version: 6.00 Build 0)  -->
<svg version="1.1" id="Layer_1" xmlns="http://www.w3.org/2000/svg" xmlns:xlink="http://www.w3.org/1999/xlink" x="0px" y="0px"
	 viewBox="0 0 501.333 501.333" style="enable-background:new 0 0 501.333 501.333;" xml:space="preserve">
<path style="fill:#637888;" d="M458.667,241.067c0,11.733-8.533,21.333-20.267,21.333H62.933c-10.667,0-20.267-9.6-20.267-21.333
	V21.333C42.667,9.6,51.2,0,62.933,0H438.4c10.667,0,20.267,9.6,20.267,21.333L458.667,241.067L458.667,241.067z"/>
<path style="fill:#53C2EF;" d="M62.933,249.6c-5.333,0-8.533-4.267-8.533-9.6V21.333c0-5.333,4.267-9.6,8.533-9.6H438.4
	c5.333,0,8.533,4.267,8.533,9.6v219.733c0,5.333-4.267,9.6-8.533,9.6H62.933V249.6z"/>
<rect x="166.4" y="262.4" style="fill:#3A5569;" width="168.533" height="61.867"/>
<path style="fill:#637888;" d="M363.733,317.867H137.6c-18.133,0-34.133,10.667-34.133,23.467h294.4
	C397.867,328.533,382.933,317.867,363.733,317.867z"/>
<rect y="342.4" style="fill:#3A5569;" width="501.333" height="158.933"/>
<g>
	<rect x="268.8" y="375.467" style="fill:#637888;" width="194.133" height="45.867"/>
	<rect x="28.8" y="364.8" style="fill:#637888;" width="11.733" height="113.067"/>
	<rect x="60.8" y="364.8" style="fill:#637888;" width="11.733" height="113.067"/>
	<rect x="91.733" y="364.8" style="fill:#637888;" width="11.733" height="113.067"/>
	<rect x="122.667" y="364.8" style="fill:#637888;" width="11.733" height="113.067"/>
	<rect x="153.6" y="364.8" style="fill:#637888;" width="11.733" height="113.067"/>
</g>
<circle style="fill:#F16D6E;" cx="225.067" cy="400" r="11.733"/>
<circle style="fill:#60C3AB;" cx="225.067" cy="443.733" r="11.733"/>
<g>
</g>
<g>
</g>
<g>
</g>
<g>
</g>
<g>
</g>
<g>
</g>
<g>
</g>
<g>
</g>
<g>
</g>
<g>
</g>
<g>
</g>
<g>
</g>
<g>
</g>
<g>
</g>
<g>
</g>
</svg>
