<?xml version="1.0" encoding="iso-8859-1"?>
<!-- Generator: Adobe Illustrator 19.0.0, SVG Export Plug-In . SVG Version: 6.00 Build 0)  -->
<svg version="1.1" id="Layer_1" xmlns="http://www.w3.org/2000/svg" xmlns:xlink="http://www.w3.org/1999/xlink" x="0px" y="0px"
	 viewBox="0 0 501.333 501.333" style="enable-background:new 0 0 501.333 501.333;" xml:space="preserve">
<rect x="0.02" style="fill:#E0E0DF;" width="407.467" height="501.333"/>
<g>
	<rect x="3.22" y="55.467" style="fill:#F6F7F8;" width="401.067" height="3.2"/>
	<rect x="3.22" y="75.733" style="fill:#F6F7F8;" width="401.067" height="3.2"/>
	<rect x="3.22" y="96" style="fill:#F6F7F8;" width="401.067" height="3.2"/>
	<rect x="3.22" y="116.267" style="fill:#F6F7F8;" width="401.067" height="3.2"/>
	<rect x="3.22" y="135.467" style="fill:#F6F7F8;" width="401.067" height="3.2"/>
	<rect x="3.22" y="155.733" style="fill:#F6F7F8;" width="401.067" height="3.2"/>
	<rect x="3.22" y="176" style="fill:#F6F7F8;" width="401.067" height="3.2"/>
	<rect x="3.22" y="195.2" style="fill:#F6F7F8;" width="401.067" height="3.2"/>
	<rect x="3.22" y="215.467" style="fill:#F6F7F8;" width="401.067" height="3.2"/>
	<rect x="3.22" y="235.733" style="fill:#F6F7F8;" width="401.067" height="3.2"/>
	<rect x="3.22" y="256" style="fill:#F6F7F8;" width="401.067" height="3.2"/>
	<rect x="3.22" y="275.2" style="fill:#F6F7F8;" width="401.067" height="3.2"/>
	<rect x="3.22" y="295.467" style="fill:#F6F7F8;" width="401.067" height="3.2"/>
	<rect x="3.22" y="315.733" style="fill:#F6F7F8;" width="401.067" height="3.2"/>
	<rect x="3.22" y="336" style="fill:#F6F7F8;" width="401.067" height="3.2"/>
	<rect x="3.22" y="355.2" style="fill:#F6F7F8;" width="401.067" height="3.2"/>
	<rect x="3.22" y="375.467" style="fill:#F6F7F8;" width="401.067" height="3.2"/>
	<rect x="3.22" y="395.733" style="fill:#F6F7F8;" width="401.067" height="3.2"/>
	<rect x="3.22" y="416" style="fill:#F6F7F8;" width="401.067" height="3.2"/>
	<rect x="3.22" y="435.2" style="fill:#F6F7F8;" width="401.067" height="3.2"/>
	<rect x="3.22" y="455.467" style="fill:#F6F7F8;" width="401.067" height="3.2"/>
	<rect x="3.22" y="475.733" style="fill:#F6F7F8;" width="401.067" height="3.2"/>
</g>
<rect x="241.865" y="293.537" transform="matrix(-0.8485 -0.5292 0.5292 -0.8485 525.534 748.1935)" style="fill:#E14A4A;" width="256.001" height="10.667"/>
<g>
	<path style="fill:#4D4E5B;" d="M384.02,187.733l-88.533,53.333c-27.733,16-50.133,39.467-65.067,68.267l-11.733,22.4l180.267-108.8
		C390.42,212.267,386.154,200.533,384.02,187.733z"/>
	<path style="fill:#4D4E5B;" d="M461.887,235.733c-11.733,6.4-25.6,8.533-37.333,6.4l-17.067,208l14.933-20.267
		c18.133-26.667,28.8-56.533,32-88.533L461.887,235.733z"/>
	<polygon style="fill:#4D4E5B;" points="472.554,157.867 449.087,144 474.687,103.467 498.154,117.333 	"/>
</g>
<path style="fill:#F16D6E;" d="M469.354,137.6c-32-19.2-73.6-9.6-92.8,21.333s-9.6,73.6,21.333,92.8c32,19.2,73.6,9.6,92.8-21.333
	C510.954,198.4,501.354,156.8,469.354,137.6z M416.02,222.933c-16-9.6-20.267-30.933-10.667-45.867
	c9.6-16,30.933-20.267,45.867-10.667c16,9.6,20.267,30.933,10.667,45.867C452.287,228.267,432.02,232.533,416.02,222.933z"/>
<polygon style="fill:#C93C3A;" points="358.42,332.8 343.487,324.267 376.554,269.867 391.487,279.467 "/>
<rect x="62.954" y="5.333" style="fill:#637888;" width="3.2" height="489.6"/>
<g>
</g>
<g>
</g>
<g>
</g>
<g>
</g>
<g>
</g>
<g>
</g>
<g>
</g>
<g>
</g>
<g>
</g>
<g>
</g>
<g>
</g>
<g>
</g>
<g>
</g>
<g>
</g>
<g>
</g>
</svg>
