<?xml version="1.0" encoding="iso-8859-1"?>
<!-- Generator: Adobe Illustrator 19.0.0, SVG Export Plug-In . SVG Version: 6.00 Build 0)  -->
<svg version="1.1" id="Layer_1" xmlns="http://www.w3.org/2000/svg" xmlns:xlink="http://www.w3.org/1999/xlink" x="0px" y="0px"
	 viewBox="0 0 501.333 501.333" style="enable-background:new 0 0 501.333 501.333;" xml:space="preserve">
<path style="fill:#2597B1;" d="M466.133,331.733H170.667V33.067h295.467V331.733z M195.2,306.133h245.333V58.667H195.2V306.133z"/>
<g>
	<ellipse style="fill:#EF9F2C;" cx="453.333" cy="49.067" rx="48" ry="49.067"/>
	<ellipse style="fill:#EF9F2C;" cx="183.467" cy="49.067" rx="48" ry="49.067"/>
	<ellipse style="fill:#EF9F2C;" cx="453.333" cy="315.733" rx="48" ry="49.067"/>
	<ellipse style="fill:#EF9F2C;" cx="183.467" cy="315.733" rx="48" ry="49.067"/>
</g>
<g>
	<path style="fill:#2FC0E9;" d="M330.667,468.267H35.2V169.6h295.467V468.267z M60.8,442.667h245.333V195.2H60.8L60.8,442.667
		L60.8,442.667z"/>
	<path style="fill:#2FC0E9;" d="M453.333,45.867c-5.333-5.333-12.8-5.333-18.133,0l-125.867,128L327.467,192L453.333,64
		C458.667,58.667,458.667,51.2,453.333,45.867z"/>
	<path style="fill:#2FC0E9;" d="M453.333,318.933c-5.333-5.333-12.8-5.333-18.133,0l-125.867,128l18.133,18.133l125.867-128
		C458.667,331.733,458.667,324.267,453.333,318.933z"/>
	<path style="fill:#2FC0E9;" d="M183.467,318.933c-5.333-5.333-12.8-5.333-18.133,0l-125.867,128L57.6,465.067l125.867-128
		C187.733,331.733,187.733,324.267,183.467,318.933z"/>
	<path style="fill:#2FC0E9;" d="M183.467,45.867c-5.333-5.333-12.8-5.333-18.133,0l-125.867,128L57.6,192L183.467,64
		C187.733,58.667,187.733,51.2,183.467,45.867z"/>
</g>
<g>
	<ellipse style="fill:#F7B044;" cx="317.867" cy="185.6" rx="48" ry="49.067"/>
	<ellipse style="fill:#F7B044;" cx="48" cy="185.6" rx="48" ry="49.067"/>
	<ellipse style="fill:#F7B044;" cx="317.867" cy="452.267" rx="48" ry="49.067"/>
	<ellipse style="fill:#F7B044;" cx="48" cy="452.267" rx="48" ry="49.067"/>
</g>
<g>
</g>
<g>
</g>
<g>
</g>
<g>
</g>
<g>
</g>
<g>
</g>
<g>
</g>
<g>
</g>
<g>
</g>
<g>
</g>
<g>
</g>
<g>
</g>
<g>
</g>
<g>
</g>
<g>
</g>
</svg>
