<?xml version="1.0" encoding="iso-8859-1"?>
<!-- Generator: Adobe Illustrator 19.0.0, SVG Export Plug-In . SVG Version: 6.00 Build 0)  -->
<svg version="1.1" id="Layer_1" xmlns="http://www.w3.org/2000/svg" xmlns:xlink="http://www.w3.org/1999/xlink" x="0px" y="0px"
	 viewBox="0 0 501.832 501.832" style="enable-background:new 0 0 501.832 501.832;" xml:space="preserve">
<polygon style="fill:#E0E0DF;" points="306.133,197.55 210.133,281.817 0,41.817 133.333,0.217 "/>
<polygon style="fill:#2FC0E9;" points="480,341.55 329.6,472.75 64,169.817 81.067,89.817 214.4,38.617 "/>
<path style="fill:#3A5569;" d="M329.6,472.75c30.933,35.2,84.267,38.4,120.533,8.533l22.4-19.2
	c35.2-30.933,39.467-84.267,8.533-119.467L329.6,472.75z"/>
<polygon style="fill:#C6CCCA;" points="414.933,342.617 339.2,408.75 129.067,169.817 205.867,102.617 "/>
<path style="fill:#3A5569;" d="M358.4,288.217l-66.133,57.6c-5.333,4.267-5.333,11.733-1.067,16l38.4,43.733
	c4.267,4.267,11.733,5.333,16,1.067l66.133-57.6c5.333-4.267,5.333-11.733,1.067-16l-38.4-43.733
	C370.133,283.95,362.667,283.95,358.4,288.217z"/>
<g>
	<path style="fill:#637888;" d="M307.2,344.75c-1.067,1.067-1.067,2.133,0,4.267l38.4,43.733c1.067,1.067,2.133,1.067,4.267,0
		c1.067-1.067,1.067-2.133,0-4.267l-38.4-43.733C310.4,343.683,308.267,343.683,307.2,344.75z"/>
	<path style="fill:#637888;" d="M323.2,329.817c-1.067,1.067-1.067,2.133,0,4.267l38.4,43.733c1.067,1.067,2.133,1.067,4.267,0
		c1.067-1.067,1.067-2.133,0-4.267l-38.4-43.733C326.4,329.817,324.267,329.817,323.2,329.817z"/>
	<path style="fill:#637888;" d="M339.2,315.95c-1.067,1.067-1.067,2.133,0,4.267l38.4,43.733c1.067,1.067,2.133,1.067,4.267,0
		c1.067-1.067,1.067-2.133,0-4.267l-38.4-43.733C342.4,315.95,340.267,314.883,339.2,315.95z"/>
	<path style="fill:#637888;" d="M355.2,302.083c-1.067,1.067-1.067,2.133,0,4.267l38.4,43.733c1.067,1.067,2.133,1.067,4.267,0
		c1.067-1.067,1.067-2.133,0-4.267l-38.4-43.733C358.4,301.017,357.333,301.017,355.2,302.083z"/>
</g>
<g>
</g>
<g>
</g>
<g>
</g>
<g>
</g>
<g>
</g>
<g>
</g>
<g>
</g>
<g>
</g>
<g>
</g>
<g>
</g>
<g>
</g>
<g>
</g>
<g>
</g>
<g>
</g>
<g>
</g>
</svg>
