<?xml version="1.0" encoding="iso-8859-1"?>
<!-- Generator: Adobe Illustrator 19.0.0, SVG Export Plug-In . SVG Version: 6.00 Build 0)  -->
<svg version="1.1" id="Layer_1" xmlns="http://www.w3.org/2000/svg" xmlns:xlink="http://www.w3.org/1999/xlink" x="0px" y="0px"
	 viewBox="0 0 501.62 501.62" style="enable-background:new 0 0 501.62 501.62;" xml:space="preserve">
<path style="fill:#F05453;" d="M486.544,242.443c-22.4-8.533-39.467-9.6-52.267-4.267c-9.6,4.267-19.2,12.8-28.8,21.333
	c-8.533,8.533-18.133,17.067-29.867,24.533c-32,20.267-73.6,21.333-107.733,4.267l22.4-43.733c18.133,9.6,41.6,8.533,58.667-2.133
	c7.467-4.267,13.867-11.733,21.333-18.133c11.733-10.667,32-29.867,50.133-38.4c26.667-12.8,45.867-17.067,80-4.267l-30.933,23.467
	L486.544,242.443z"/>
<path style="fill:#E14A4A;" d="M15.077,236.043c22.4,8.533,39.467,9.6,52.267,4.267c9.6-4.267,19.2-12.8,28.8-21.333
	c8.533-8.533,18.133-17.067,29.867-24.533c32-20.267,73.6-21.333,107.733-4.267l-22.4,43.733c-18.133-9.6-41.6-8.533-58.667,2.133
	c-7.467,4.267-13.867,11.733-21.333,18.133c-11.733,10.667-32,29.867-50.133,38.4c-26.667,12.8-45.867,17.067-80,4.267
	l30.933-23.467L15.077,236.043z"/>
<path style="fill:#EF9F2C;" d="M42.81,346.976c-33.067,36.267-3.2,136.533,80,151.467c142.933,25.6,161.067-110.933,151.467-142.933
	l-2.133-104.533L209.21,240.31C210.277,240.31,76.944,310.71,42.81,346.976z"/>
<path style="fill:#C57A2A;" d="M119.61,382.176l62.933-94.933l18.133,49.067c0,0-7.467,37.333-12.8,46.933
	C180.41,396.043,156.944,408.843,119.61,382.176z"/>
<path style="fill:#FEC656;" d="M186.81,385.376c0,0,23.467-37.333-36.267-64c-40.533-18.133-81.067-1.067-107.733,25.6
	c0,0,36.267-39.467,78.933-73.6C183.61,224.31,248.677,147.51,263.61,60.043c0,0,49.067-46.933,112,11.733
	C375.61,71.776,260.41,207.243,186.81,385.376z"/>
<path style="fill:#FCD797;" d="M275.344,398.176c0,0-6.4-126.933-98.133-122.667c0,0,133.333-87.467,169.6-275.2
	c0,0,62.933-8.533,102.4,64C449.21,64.31,303.077,192.31,275.344,398.176z"/>
<path style="fill:#F16D6E;" d="M186.81,211.51c0,0,92.8-44.8,122.667,57.6l25.6-53.333c0,0-37.333-72.533-110.933-54.4
	L186.81,211.51z"/>
<g>
</g>
<g>
</g>
<g>
</g>
<g>
</g>
<g>
</g>
<g>
</g>
<g>
</g>
<g>
</g>
<g>
</g>
<g>
</g>
<g>
</g>
<g>
</g>
<g>
</g>
<g>
</g>
<g>
</g>
</svg>
