<?xml version="1.0" encoding="iso-8859-1"?>
<!-- Generator: Adobe Illustrator 19.0.0, SVG Export Plug-In . SVG Version: 6.00 Build 0)  -->
<svg version="1.1" id="Layer_1" xmlns="http://www.w3.org/2000/svg" xmlns:xlink="http://www.w3.org/1999/xlink" x="0px" y="0px"
	 viewBox="0 0 501.143 501.143" style="enable-background:new 0 0 501.143 501.143;" xml:space="preserve">
<rect x="215.158" y="422.209" style="fill:#294354;" width="48" height="70.4"/>
<path style="fill:#3A5569;" d="M320.758,465.943H156.491c-19.2,0-35.2,16-35.2,35.2h235.733
	C355.958,481.943,341.025,465.943,320.758,465.943z"/>
<rect x="224.85" y="-9.118" transform="matrix(-0.7071 -0.7071 0.7071 -0.7071 260.3175 521.5873)" style="fill:#3A5569;" width="26.666" height="431.996"/>
<circle style="fill:#2FC0E9;" cx="238.625" cy="206.743" r="179.2"/>
<path style="fill:#3A5569;" d="M74.358,372.076c-17.067-17.067-32-37.333-42.667-58.667c-3.2-6.4-1.067-14.933,6.4-18.133
	c6.4-3.2,14.933-1.067,18.133,6.4c9.6,19.2,22.4,37.333,38.4,52.267c80,80,210.133,80,290.133,0
	c78.933-82.133,78.933-212.267-1.067-292.267c-14.933-14.933-30.933-26.667-50.133-36.267c-6.4-3.2-9.6-11.733-5.333-18.133
	c3.2-6.4,11.733-9.6,18.133-5.333c20.267,10.667,39.467,24.533,56.533,41.6c90.667,90.667,90.667,237.867,0,328.533
	S165.025,461.676,74.358,372.076z"/>
<g>
	<path style="fill:#FFFFFF;" d="M127.691,318.743c-60.8-60.8-60.8-161.067,0-222.933s161.067-60.8,222.933,0
		c60.8,60.8,60.8,161.067,0,222.933S188.491,379.543,127.691,318.743z M335.691,110.743c-53.333-53.333-140.8-53.333-194.133,0
		s-53.333,140.8,0,194.133s140.8,53.333,194.133,0S389.025,164.076,335.691,110.743z"/>
	<path style="fill:#FFFFFF;" d="M127.691,318.743c-36.267-36.267-16-114.133,45.867-176s139.733-83.2,176-46.933
		s16,114.133-45.867,176S163.958,355.009,127.691,318.743z M335.691,110.743c-27.733-27.733-94.933-6.4-147.2,46.933
		s-73.6,119.467-46.933,146.133s94.933,6.4,147.2-46.933S362.358,137.409,335.691,110.743z"/>
	
		<rect x="228.05" y="63.415" transform="matrix(-0.7071 -0.7071 0.7071 -0.7071 260.3175 521.5873)" style="fill:#FFFFFF;" width="20.266" height="286.931"/>
	
		<rect x="165.024" y="141.796" transform="matrix(-0.7071 -0.7071 0.7071 -0.7071 394.6113 467.3118)" style="fill:#FFFFFF;" width="258.131" height="20.266"/>
	
		<rect x="91.362" y="197.124" transform="matrix(-0.7071 -0.7071 0.7071 -0.7071 260.6946 522.4977)" style="fill:#FFFFFF;" width="294.397" height="20.266"/>
	
		<rect x="53.976" y="252.452" transform="matrix(-0.7071 -0.7071 0.7071 -0.7071 126.7962 577.6912)" style="fill:#FFFFFF;" width="258.131" height="20.266"/>
</g>
<g>
</g>
<g>
</g>
<g>
</g>
<g>
</g>
<g>
</g>
<g>
</g>
<g>
</g>
<g>
</g>
<g>
</g>
<g>
</g>
<g>
</g>
<g>
</g>
<g>
</g>
<g>
</g>
<g>
</g>
</svg>
