<?xml version="1.0" encoding="iso-8859-1"?>
<!-- Generator: Adobe Illustrator 19.0.0, SVG Export Plug-In . SVG Version: 6.00 Build 0)  -->
<svg version="1.1" id="Layer_1" xmlns="http://www.w3.org/2000/svg" xmlns:xlink="http://www.w3.org/1999/xlink" x="0px" y="0px"
	 viewBox="0 0 501.333 501.333" style="enable-background:new 0 0 501.333 501.333;" xml:space="preserve">
<g>
	<path style="fill:#3A5569;" d="M229.467,449.067c-65.067,0-126.933-25.6-172.8-71.467C46,366.933,35.333,354.133,26.8,342.4
		l17.067-11.733c7.467,11.733,17.067,22.4,26.667,33.067c42.667,42.667,99.2,66.133,158.933,66.133S345.733,406.4,388.4,363.733
		c87.467-87.467,87.467-230.4,0-317.867C377.733,35.2,366,25.6,353.2,17.067L364.933,0c13.867,9.6,26.667,19.2,38.4,32
		c94.933,94.933,94.933,250.667,0,346.667C356.4,423.467,295.6,449.067,229.467,449.067z"/>
	
		<rect x="373.245" y="32.122" transform="matrix(-0.7071 -0.7071 0.7071 -0.7071 618.1768 358.701)" style="fill:#3A5569;" width="20.266" height="38.4"/>
	
		<rect x="66.066" y="339.301" transform="matrix(-0.7071 -0.7071 0.7071 -0.7071 -123.4174 665.8799)" style="fill:#3A5569;" width="20.266" height="38.4"/>
	<rect x="219.867" y="439.467" style="fill:#3A5569;" width="20.267" height="52.267"/>
</g>
<g>
	<path style="fill:#E0E0DF;" d="M219.867,340.267c4.267-7.467,8.533-14.933,7.467-23.467c-1.067-8.533-9.6-14.933-17.067-19.2
		c-8.533-4.267-17.067-6.4-24.533-11.733c-8.533-5.333-14.933-14.933-23.467-21.333c-8.533-6.4-20.267-10.667-28.8-5.333
		c-3.2,2.133-5.333,4.267-8.533,5.333c-3.2,1.067-7.467,1.067-9.6-1.067c-1.067-2.133-1.067-5.333-1.067-7.467
		c-1.067-5.333-5.333-9.6-10.667-11.733s-10.667-3.2-14.933-5.333c-6.4-4.267-10.667-12.8-9.6-20.267
		c1.067-7.467,8.533-14.933,16-16c8.533-1.067,17.067,4.267,25.6,4.267c12.8,0,23.467-9.6,29.867-20.267
		c6.4-10.667,11.733-22.4,22.4-30.933c4.267-3.2,9.6-6.4,12.8-10.667c4.267-4.267,6.4-9.6,5.333-14.933
		c-2.133-6.4-9.6-8.533-13.867-13.867s-6.4-11.733-10.667-17.067c-4.267-4.267-11.733-6.4-18.133-4.267
		c-6.4,2.133-10.667,8.533-10.667,14.933c0,3.2,0,6.4-1.067,8.533c-2.133,4.267-9.6,4.267-12.8,1.067
		c-4.267-3.2-4.267-9.6-4.267-13.867c0-6.4,1.067-11.733,5.333-17.067c4.267-4.267,10.667-6.4,16-3.2
		c2.133-8.533,5.333-17.067,9.6-25.6c1.067,6.4,1.067,11.733,2.133,18.133c7.467,4.267,18.133,2.133,23.467-5.333
		c5.333-7.467,3.2-18.133-4.267-23.467c-6.4,0-10.667-1.067-13.867-3.2s-6.4-7.467-5.333-10.667c2.133-4.267,7.467-5.333,11.733-6.4
		c4.267-1.067,9.6-4.267,9.6-8.533c12.8,7.467,27.733,17.067,27.733,32c0,11.733-8.533,24.533-1.067,33.067
		c2.133,2.133,5.333,4.267,6.4,6.4c2.133,4.267,0,8.533,0,12.8s5.333,8.533,8.533,5.333c-2.133-5.333-3.2-13.867,3.2-14.933
		c2.133,0,4.267,0,5.333-1.067c2.133-1.067,2.133-3.2,2.133-5.333c1.067-10.667,7.467-21.333,17.067-27.733
		c4.267-3.2,9.6-5.333,13.867-8.533c6.4-4.267,9.6-11.733,12.8-19.2s7.467-16,8.533-24.533c-16-4.267-32-6.4-49.067-6.4
		c-110.933,0-200.533,89.6-201.6,200.533c8.533,2.133,16,7.467,20.267,14.933c5.333,10.667,5.333,25.6,14.933,33.067
		c6.4,4.267,13.867,3.2,20.267,4.267c7.467,1.067,14.933,4.267,16,11.733c0,2.133,0,4.267,1.067,6.4c1.067,4.267,6.4,6.4,9.6,7.467
		c2.133,1.067,4.267,1.067,5.333,3.2c0,1.067,1.067,2.133,1.067,3.2c0,7.467-2.133,16,0,23.467
		c4.267,18.133,29.867,25.6,30.933,43.733c0,6.4-2.133,11.733-3.2,17.067c-1.067,5.333-2.133,10.667-2.133,14.933
		c11.733,6.4,24.533,10.667,38.4,13.867c2.133-2.133,4.267-4.267,5.333-6.4C198.533,377.6,209.2,359.467,219.867,340.267z"/>
	<path style="fill:#E0E0DF;" d="M432.133,204.8c0-61.867-27.733-118.4-72.533-154.667c-5.333,6.4-12.8,10.667-14.933,19.2
		c-1.067,4.267,1.067,8.533,0,11.733c-1.067,13.867-19.2,20.267-19.2,34.133c0,5.333,2.133,9.6,2.133,14.933
		c-1.067,5.333-7.467,9.6-10.667,5.333c0-7.467,0-16-3.2-22.4c-3.2-6.4-12.8-10.667-19.2-7.467c-2.133,6.4-1.067,14.933,4.267,19.2
		c2.133,2.133,3.2,3.2,4.267,5.333s1.067,4.267,1.067,6.4c0,4.267,0,7.467,0,11.733c0,1.067,0,2.133-1.067,3.2
		c-1.067,1.067-3.2,1.067-4.267,1.067c-4.267,0-7.467,4.267-7.467,8.533c-1.067,4.267,1.067,8.533,3.2,11.733
		c1.067,1.067,1.067,2.133,2.133,2.133c1.067,0,2.133,0,3.2,0c12.8-4.267,24.533-12.8,29.867-25.6
		c1.067-3.2,2.133-5.333,5.333-7.467c6.4-6.4,18.133,0,23.467,7.467c5.333,7.467,8.533,17.067,17.067,21.333
		c4.267,2.133,9.6,2.133,13.867,1.067c-2.133-7.467-5.333-16-3.2-24.533s10.667-14.933,18.133-11.733c8.533,3.2,9.6,14.933,6.4,22.4
		c-1.067,3.2-2.133,6.4-4.267,8.533c-2.133,1.067-4.267,2.133-6.4,3.2c-5.333,2.133-9.6,6.4-11.733,11.733
		c3.2,4.267,9.6,5.333,14.933,7.467c5.333,1.067,11.733,4.267,11.733,10.667c0,6.4-6.4,10.667-11.733,9.6
		c-6.4,0-10.667-4.267-16-7.467c-3.2,5.333-4.267,10.667-4.267,17.067c-4.267,3.2-9.6,2.133-13.867-1.067
		c-4.267-3.2-6.4-7.467-9.6-11.733c-7.467-9.6-18.133-17.067-29.867-20.267c-6.4-2.133-13.867-2.133-19.2,3.2
		c-1.067,1.067-2.133,3.2-4.267,4.267c-3.2,1.067-8.533-2.133-10.667,1.067c-1.067,1.067-1.067,3.2-2.133,4.267
		c-1.067,3.2-5.333,3.2-7.467,4.267c-6.4,5.333,1.067,17.067-4.267,24.533c-2.133,3.2-7.467,4.267-9.6,7.467
		C270,236.8,270,240,270,242.133c-1.067,9.6-3.2,19.2-1.067,27.733c2.133,9.6,8.533,18.133,18.133,20.267
		c8.533,2.133,16-2.133,24.533-4.267c7.467-2.133,18.133-2.133,23.467,4.267c4.267,5.333,3.2,13.867,0,21.333
		c-3.2,6.4-6.4,12.8-6.4,20.267c0,8.533,5.333,16,6.4,24.533c1.067,5.333,0,10.667,0,16c0,3.2,1.067,5.333,2.133,8.533
		C393.733,340.267,432.133,277.333,432.133,204.8z"/>
</g>
<g>
	<path style="fill:#78BCC4;" d="M147.333,353.067c-1.067-18.133-26.667-25.6-30.933-43.733c-2.133-7.467,0-14.933,0-23.467
		c0-1.067,0-2.133-1.067-3.2c-1.067-2.133-3.2-2.133-5.333-3.2c-4.267-1.067-8.533-3.2-9.6-7.467c-1.067-2.133,0-4.267-1.067-6.4
		c-1.067-6.4-9.6-10.667-16-11.733C75.867,252.8,68.4,252.8,63.067,249.6c-10.667-6.4-9.6-22.4-14.933-33.067
		c-4.267-7.467-11.733-12.8-20.267-14.933v1.067c0,80,45.867,148.267,113.067,181.333c0-5.333,1.067-10.667,2.133-14.933
		C145.2,364.8,147.333,359.467,147.333,353.067z"/>
	<path style="fill:#78BCC4;" d="M334,352c-1.067-8.533-6.4-16-6.4-24.533c0-7.467,4.267-13.867,6.4-20.267
		c3.2-6.4,4.267-14.933,0-21.333c-5.333-6.4-14.933-6.4-23.467-4.267c-7.467,2.133-16,6.4-24.533,4.267
		c-9.6-2.133-16-10.667-18.133-20.267c-2.133-9.6-1.067-19.2,1.067-27.733c0-3.2,1.067-5.333,2.133-7.467
		c2.133-3.2,7.467-4.267,9.6-7.467c5.333-6.4-2.133-19.2,4.267-24.533c2.133-2.133,6.4-2.133,7.467-4.267
		c1.067-1.067,1.067-3.2,2.133-4.267c2.133-3.2,7.467,0,10.667-1.067c2.133-1.067,3.2-2.133,4.267-4.267
		c4.267-5.333,12.8-4.267,19.2-3.2c11.733,3.2,22.4,10.667,29.867,20.267c3.2,4.267,5.333,8.533,9.6,11.733
		c4.267,3.2,10.667,4.267,13.867,1.067c0-5.333,1.067-11.733,4.267-17.067c4.267,3.2,9.6,7.467,16,7.467
		c6.4,0,12.8-4.267,11.733-9.6c0-5.333-6.4-8.533-11.733-10.667c-5.333-1.067-11.733-2.133-14.933-7.467
		c2.133-5.333,6.4-9.6,11.733-11.733c2.133-1.067,5.333-1.067,6.4-3.2c2.133-2.133,4.267-5.333,4.267-8.533
		c2.133-8.533,1.067-19.2-6.4-22.4c-7.467-3.2-16,3.2-18.133,11.733s0,16,3.2,24.533c-4.267,2.133-9.6,1.067-13.867-1.067
		c-8.533-4.267-11.733-13.867-17.067-21.333c-5.333-7.467-16-13.867-23.467-7.467c-2.133,2.133-3.2,5.333-5.333,7.467
		c-6.4,12.8-17.067,21.333-29.867,25.6c-1.067,0-2.133,1.067-3.2,0c-1.067,0-2.133-1.067-2.133-2.133
		c-2.133-3.2-4.267-7.467-3.2-11.733c1.067-4.267,4.267-7.467,7.467-8.533c1.067,0,3.2,0,4.267-1.067
		c1.067-1.067,1.067-2.133,1.067-3.2c0-4.267,0-7.467,0-11.733c0-2.133,0-4.267-1.067-6.4c-1.067-2.133-3.2-4.267-4.267-5.333
		c-4.267-5.333-6.4-12.8-4.267-19.2c6.4-4.267,14.933,1.067,19.2,7.467c3.2,6.4,4.267,14.933,3.2,22.4c3.2,4.267,9.6,0,10.667-5.333
		c1.067-5.333-2.133-9.6-2.133-14.933c0-13.867,18.133-20.267,20.267-34.133c0-4.267-1.067-8.533,0-11.733
		c1.067-8.533,9.6-12.8,13.867-19.2c-22.4-16-49.067-29.867-80-37.333c-1.067,8.533-4.267,17.067-8.533,24.533
		c-3.2,6.4-6.4,13.867-12.8,19.2c-4.267,3.2-9.6,5.333-13.867,8.533c-9.6,6.4-16,16-17.067,27.733c0,2.133,0,4.267-2.133,5.333
		c-2.133,1.067-4.267,0-5.333,1.067c-5.333,1.067-5.333,9.6-3.2,14.933c-2.133,2.133-7.467-2.133-7.467-6.4
		c0-4.267,1.067-8.533,0-12.8c-1.067-3.2-4.267-4.267-6.4-6.4c-7.467-8.533,1.067-21.333,1.067-33.067
		c0-14.933-14.933-24.533-27.733-32c0,4.267-5.333,7.467-9.6,8.533s-10.667,2.133-11.733,6.4c-1.067,4.267,1.067,8.533,5.333,10.667
		c2.133,3.2,6.4,4.267,9.6,7.467c7.467,5.333,8.533,16,4.267,23.467c-5.333,7.467-16,9.6-23.467,5.333
		c-1.067-6.4-1.067-11.733-2.133-18.133c-4.267,7.467-7.467,16-9.6,25.6C133.467,84.267,126,86.4,122.8,90.667
		c-4.267,4.267-5.333,10.667-5.333,17.067c0,5.333,1.067,10.667,4.267,13.867c4.267,3.2,10.667,3.2,12.8-1.067
		C135.6,118.4,135.6,115.2,135.6,112c0-6.4,5.333-12.8,10.667-14.933c6.4-2.133,13.867-1.067,18.133,4.267
		c4.267,5.333,6.4,11.733,10.667,17.067s11.733,7.467,13.867,13.867c2.133,5.333-1.067,10.667-5.333,14.933s-8.533,6.4-12.8,10.667
		c-9.6,8.533-14.933,20.267-22.4,30.933c-6.4,10.667-17.067,20.267-29.867,20.267c-8.533,0-17.067-5.333-25.6-4.267
		c-7.467,1.067-14.933,7.467-16,16c-1.067,7.467,3.2,16,9.6,20.267c4.267,3.2,10.667,3.2,14.933,5.333
		c5.333,2.133,9.6,5.333,10.667,11.733c0,2.133,0,5.333,1.067,7.467c2.133,3.2,6.4,3.2,9.6,1.067c3.2-1.067,5.333-4.267,8.533-5.333
		c8.533-5.333,21.333-1.067,28.8,5.333c8.533,6.4,13.867,16,23.467,21.333c7.467,5.333,16,7.467,24.533,11.733
		s16,10.667,17.067,19.2c1.067,8.533-3.2,16-7.467,23.467c-10.667,18.133-21.333,37.333-35.2,53.333
		c-2.133,2.133-4.267,4.267-5.333,6.4c16,4.267,33.067,6.4,50.133,6.4c39.467,0,75.733-11.733,106.667-30.933
		c-1.067-3.2-2.133-5.333-2.133-8.533C332.933,362.667,334,357.333,334,352z"/>
</g>
<path style="fill:#3A5569;" d="M348.933,501.333c-23.467-20.267-68.267-33.067-118.4-33.067c-51.2,0-94.933,13.867-118.4,33.067
	H348.933z"/>
<g>
</g>
<g>
</g>
<g>
</g>
<g>
</g>
<g>
</g>
<g>
</g>
<g>
</g>
<g>
</g>
<g>
</g>
<g>
</g>
<g>
</g>
<g>
</g>
<g>
</g>
<g>
</g>
<g>
</g>
</svg>
