<?xml version="1.0" encoding="iso-8859-1"?>
<!-- Generator: Adobe Illustrator 19.0.0, SVG Export Plug-In . SVG Version: 6.00 Build 0)  -->
<svg version="1.1" id="Layer_1" xmlns="http://www.w3.org/2000/svg" xmlns:xlink="http://www.w3.org/1999/xlink" x="0px" y="0px"
	 viewBox="0 0 502.4 502.4" style="enable-background:new 0 0 502.4 502.4;" xml:space="preserve">
<path style="fill:#E6D8CC;" d="M211.2,190.933V39.467h21.333V0H92.8v39.467h21.333v151.467C48,211.2,0,270.933,0,342.4
	c0,87.467,72.533,158.933,162.133,158.933S324.267,429.867,324.267,342.4C324.267,270.933,276.267,211.2,211.2,190.933z"/>
<path style="fill:#60C3AB;" d="M27.733,274.133C17.067,294.4,10.667,317.867,10.667,342.4c0,82.133,68.267,148.267,151.467,148.267
	S313.6,424.533,313.6,342.4c0-24.533-6.4-48-17.067-68.267L27.733,274.133L27.733,274.133z"/>
<path style="fill:#E6D8CC;" d="M501.333,134.4H365.867v32H387.2v305.067c0,17.067,13.867,30.933,30.933,30.933h32
	c17.067,0,30.933-13.867,30.933-30.933V165.333H502.4V134.4H501.333z"/>
<path style="fill:#F16D6E;" d="M396.8,243.2v227.2c0,11.733,9.6,20.267,20.267,20.267h32c11.733,0,20.267-9.6,20.267-20.267V243.2
	H396.8z"/>
<g>
	<circle style="fill:#FFFFFF;" cx="120.533" cy="238.933" r="11.733"/>
	<circle style="fill:#FFFFFF;" cx="131.2" cy="327.467" r="16"/>
	<circle style="fill:#FFFFFF;" cx="198.4" cy="334.933" r="10.667"/>
	<circle style="fill:#FFFFFF;" cx="108.8" cy="404.267" r="21.333"/>
	<circle style="fill:#FFFFFF;" cx="189.867" cy="247.467" r="8.533"/>
	<circle style="fill:#FFFFFF;" cx="444.8" cy="178.133" r="16"/>
	<circle style="fill:#FFFFFF;" cx="435.2" cy="285.867" r="12.8"/>
	<circle style="fill:#FFFFFF;" cx="437.333" cy="371.2" r="11.733"/>
	<circle style="fill:#FFFFFF;" cx="445.867" cy="422.4" r="8.533"/>
	<circle style="fill:#FFFFFF;" cx="155.733" cy="101.333" r="18.133"/>
</g>
<g>
</g>
<g>
</g>
<g>
</g>
<g>
</g>
<g>
</g>
<g>
</g>
<g>
</g>
<g>
</g>
<g>
</g>
<g>
</g>
<g>
</g>
<g>
</g>
<g>
</g>
<g>
</g>
<g>
</g>
</svg>
