<?xml version="1.0" encoding="iso-8859-1"?>
<!-- Generator: Adobe Illustrator 19.0.0, SVG Export Plug-In . SVG Version: 6.00 Build 0)  -->
<svg version="1.1" id="Layer_1" xmlns="http://www.w3.org/2000/svg" xmlns:xlink="http://www.w3.org/1999/xlink" x="0px" y="0px"
	 viewBox="0 0 502.4 502.4" style="enable-background:new 0 0 502.4 502.4;" xml:space="preserve">
<polygon style="fill:#E0E0DF;" points="72,161.067 130.667,0 483.733,123.733 449.6,217.6 363.2,330.667 "/>
<path style="fill:#FEC656;" d="M464.533,217.6H264L242.667,192c-13.867-18.133-27.733-30.933-48-30.933h-156.8
	C17.6,161.067,0.533,174.933,0.533,192v56.533v14.933v208c0,17.067,17.067,30.933,37.333,30.933h426.667
	c20.267,0,37.333-13.867,37.333-30.933V248.533C501.867,231.467,484.8,217.6,464.533,217.6z"/>
<rect x="170.083" y="111.941" transform="matrix(-0.9422 -0.3349 0.3349 -0.9422 509.9075 333.1422)" style="fill:#C9C7C9;" width="227.188" height="21.332"/>
<g>
</g>
<g>
</g>
<g>
</g>
<g>
</g>
<g>
</g>
<g>
</g>
<g>
</g>
<g>
</g>
<g>
</g>
<g>
</g>
<g>
</g>
<g>
</g>
<g>
</g>
<g>
</g>
<g>
</g>
</svg>
