<?xml version="1.0" encoding="iso-8859-1"?>
<!-- Generator: Adobe Illustrator 19.0.0, SVG Export Plug-In . SVG Version: 6.00 Build 0)  -->
<svg version="1.1" id="Layer_1" xmlns="http://www.w3.org/2000/svg" xmlns:xlink="http://www.w3.org/1999/xlink" x="0px" y="0px"
	 viewBox="0 0 501.6 501.6" style="enable-background:new 0 0 501.6 501.6;" xml:space="preserve">
<path style="fill:#FEC656;" d="M491.798,266.933c0,0-60.8-49.067-58.667-77.867c1.067-10.667,7.467-23.467,8.533-34.133
	c3.2-34.133-61.867-96-96-96c-10.667,0-23.467,7.467-34.133,8.533c-28.8,3.2-77.867-58.667-77.867-58.667
	c-11.733-11.733-32-11.733-44.8,0l-44.8,46.933c-11.733,11.733-11.733,32,0,44.8l88.533,88.533L0.064,420.533L81.131,501.6
	l232.533-232.533l88.533,88.533c11.733,11.733,32,11.733,44.8,0l45.867-45.867C504.598,298.933,504.598,278.667,491.798,266.933z"/>
<g>
</g>
<g>
</g>
<g>
</g>
<g>
</g>
<g>
</g>
<g>
</g>
<g>
</g>
<g>
</g>
<g>
</g>
<g>
</g>
<g>
</g>
<g>
</g>
<g>
</g>
<g>
</g>
<g>
</g>
</svg>
