<?xml version="1.0" encoding="iso-8859-1"?>
<!-- Generator: Adobe Illustrator 19.0.0, SVG Export Plug-In . SVG Version: 6.00 Build 0)  -->
<svg version="1.1" id="Layer_1" xmlns="http://www.w3.org/2000/svg" xmlns:xlink="http://www.w3.org/1999/xlink" x="0px" y="0px"
	 viewBox="0 0 501.333 501.333" style="enable-background:new 0 0 501.333 501.333;" xml:space="preserve">
<path style="fill:#E0E0DF;" d="M204.837,134.4l-27.733-21.333h-96L53.371,134.4C19.237,160,0.037,200.533,0.037,242.133v213.333
	c0,25.6,21.333,45.867,46.933,45.867h164.267c25.6,0,46.933-20.267,46.933-45.867V242.133
	C258.171,199.467,237.904,160,204.837,134.4z"/>
<path style="fill:#E14A4A;" d="M150.437,67.2h-43.733c-14.933,0-26.667,11.733-26.667,26.667v19.2h98.133v-19.2
	C178.171,78.933,165.371,67.2,150.437,67.2z"/>
<polygon style="fill:#F16D6E;" points="125.904,0 109.904,67.2 147.237,67.2 131.237,0 "/>
<rect x="33.104" y="236.8" style="fill:#FEC656;" width="193.067" height="201.6"/>
<path style="fill:#4EAD95;" d="M155.771,211.2l246.4,122.667l20.267,71.467l-210.133-99.2
	C211.237,306.133,154.704,273.067,155.771,211.2z"/>
<path style="fill:#53C2EF;" d="M414.971,311.467c-25.6,17.067-32,51.2-14.933,75.733c17.067,25.6,51.2,32,76.8,14.933
	s32-51.2,14.933-75.733C474.704,300.8,440.571,294.4,414.971,311.467z M462.971,380.8c-13.867,8.533-32,5.333-40.533-8.533
	s-5.333-32,8.533-40.533c13.867-8.533,32-5.333,40.533,8.533S475.771,372.267,462.971,380.8z"/>
<path style="fill:#60C3AB;" d="M285.904,124.8l21.333,272l59.733,45.867l-12.8-231.467C354.171,211.2,343.504,146.133,285.904,124.8
	z"/>
<path style="fill:#53C2EF;" d="M265.637,476.8c17.067,25.6,51.2,32,76.8,14.933s32-51.2,14.933-75.733
	c-17.067-25.6-51.2-32-76.8-14.933C254.971,418.133,248.571,452.267,265.637,476.8z M286.971,462.933
	c-9.6-13.867-5.333-32,8.533-40.533c13.867-8.533,32-5.333,40.533,8.533c9.6,13.867,5.333,32-8.533,40.533
	C314.704,480,296.571,475.733,286.971,462.933z"/>
<path style="fill:#637888;" d="M339.237,322.133c4.267,5.333,2.133,12.8-3.2,17.067c-5.333,3.2-12.8,2.133-17.067-3.2
	c-4.267-5.333-2.133-12.8,3.2-17.067C328.571,314.667,336.037,315.733,339.237,322.133z"/>
<g>
</g>
<g>
</g>
<g>
</g>
<g>
</g>
<g>
</g>
<g>
</g>
<g>
</g>
<g>
</g>
<g>
</g>
<g>
</g>
<g>
</g>
<g>
</g>
<g>
</g>
<g>
</g>
<g>
</g>
</svg>
