<?xml version="1.0" encoding="iso-8859-1"?>
<!-- Generator: Adobe Illustrator 19.0.0, SVG Export Plug-In . SVG Version: 6.00 Build 0)  -->
<svg version="1.1" id="Layer_1" xmlns="http://www.w3.org/2000/svg" xmlns:xlink="http://www.w3.org/1999/xlink" x="0px" y="0px"
	 viewBox="0 0 502.163 502.163" style="enable-background:new 0 0 502.163 502.163;" xml:space="preserve">
<path style="fill:#3A5569;" d="M444.149,0.415H58.016c-8.533,0-16,7.467-16,17.067v279.467c0,9.6,7.467,17.067,16,17.067h386.133
	c8.533,0,16-7.467,16-17.067V17.481C460.149,7.881,452.683,0.415,444.149,0.415z"/>
<rect x="63.349" y="21.748" style="fill:#CDCDCE;" width="375.467" height="270.933"/>
<path style="fill:#637888;" d="M501.749,485.748l-38.4-161.067c-1.067-5.333-6.4-9.6-11.733-9.6h-400
	c-5.333,0-10.667,4.267-11.733,9.6L0.416,485.748c-2.133,8.533,4.267,16,11.733,16h476.8
	C497.483,501.748,503.883,493.215,501.749,485.748z"/>
<g>
	<polygon style="fill:#2FC0E9;" points="460.149,417.481 42.016,417.481 55.883,334.281 446.283,334.281 	"/>
	<polygon style="fill:#2FC0E9;" points="304.416,481.481 197.749,481.481 199.883,431.348 302.283,431.348 	"/>
</g>
<g>
</g>
<g>
</g>
<g>
</g>
<g>
</g>
<g>
</g>
<g>
</g>
<g>
</g>
<g>
</g>
<g>
</g>
<g>
</g>
<g>
</g>
<g>
</g>
<g>
</g>
<g>
</g>
<g>
</g>
</svg>
