<?xml version="1.0" encoding="iso-8859-1"?>
<!-- Generator: Adobe Illustrator 19.0.0, SVG Export Plug-In . SVG Version: 6.00 Build 0)  -->
<svg version="1.1" id="Layer_1" xmlns="http://www.w3.org/2000/svg" xmlns:xlink="http://www.w3.org/1999/xlink" x="0px" y="0px"
	 viewBox="0 0 501.877 501.877" style="enable-background:new 0 0 501.877 501.877;" xml:space="preserve">
<path style="fill:#E0E0DF;" d="M445.072,92.005H56.805c-6.4,0-11.733,5.333-11.733,10.667v245.333c0,6.4,5.333,10.667,11.733,10.667
	h389.333c6.4,0,11.733-5.333,11.733-10.667V102.672C456.805,97.338,451.472,92.005,445.072,92.005z"/>
<rect x="63.205" y="110.138" style="fill:#637888;" width="375.467" height="231.467"/>
<path style="fill:#C6C4C3;" d="M496.272,501.605H5.605c-4.267,0-6.4-3.2-5.333-7.467l42.667-128c1.067-3.2,4.267-5.333,8.533-5.333
	h398.933c3.2,0,7.467,2.133,8.533,5.333l42.667,128C502.672,498.405,500.539,501.605,496.272,501.605z"/>
<g>
	<path style="fill:#637888;" d="M457.872,444.005H44.005c-4.267,0-6.4-3.2-5.333-6.4l17.067-56.533
		c1.067-3.2,4.267-5.333,8.533-5.333h373.333c3.2,0,7.467,2.133,8.533,5.333l17.067,56.533
		C464.272,440.805,462.138,444.005,457.872,444.005z"/>
	<path style="fill:#637888;" d="M294.672,492.005h-87.467c-4.267,0-7.467-3.2-7.467-7.467l1.067-23.467
		c0-4.267,4.267-7.467,7.467-7.467h83.2c4.267,0,7.467,3.2,7.467,7.467l1.067,23.467
		C302.138,487.738,298.939,492.005,294.672,492.005z"/>
</g>
<ellipse style="fill:#53C2EF;" cx="250.938" cy="141.072" rx="141.867" ry="140.8"/>
<g>
	<path style="fill:#FFFFFF;" d="M250.938,269.072c-70.4,0-128-57.6-128-128s57.6-128,128-128s128,57.6,128,128
		S321.339,269.072,250.938,269.072z M250.938,26.938c-64,0-115.2,51.2-115.2,115.2s51.2,114.133,115.2,114.133
		s115.2-51.2,115.2-115.2S314.939,26.938,250.938,26.938z"/>
	<path style="fill:#FFFFFF;" d="M250.938,269.072c-43.733,0-76.8-56.533-76.8-128s34.133-128,76.8-128
		c43.733,0,76.8,56.533,76.8,128S294.672,269.072,250.938,269.072z M250.938,26.938c-35.2,0-64,51.2-64,115.2s28.8,115.2,64,115.2
		s64-51.2,64-115.2S286.138,26.938,250.938,26.938z"/>
	<rect x="244.538" y="20.538" style="fill:#FFFFFF;" width="12.8" height="241.067"/>
	<rect x="147.472" y="72.805" style="fill:#FFFFFF;" width="208" height="12.8"/>
	<rect x="129.339" y="134.672" style="fill:#FFFFFF;" width="242.133" height="12.8"/>
	<rect x="147.472" y="197.605" style="fill:#FFFFFF;" width="208" height="12.8"/>
</g>
<g>
</g>
<g>
</g>
<g>
</g>
<g>
</g>
<g>
</g>
<g>
</g>
<g>
</g>
<g>
</g>
<g>
</g>
<g>
</g>
<g>
</g>
<g>
</g>
<g>
</g>
<g>
</g>
<g>
</g>
</svg>
