<?xml version="1.0" encoding="iso-8859-1"?>
<!-- Generator: Adobe Illustrator 19.0.0, SVG Export Plug-In . SVG Version: 6.00 Build 0)  -->
<svg version="1.1" id="Layer_1" xmlns="http://www.w3.org/2000/svg" xmlns:xlink="http://www.w3.org/1999/xlink" x="0px" y="0px"
	 viewBox="0 0 501.333 501.333" style="enable-background:new 0 0 501.333 501.333;" xml:space="preserve">
<rect x="0.533" y="375.467" style="fill:#80C350;" width="430.933" height="125.867"/>
<rect x="102.933" y="249.6" style="fill:#E0E0DF;" width="370.133" height="125.867"/>
<rect x="49.6" y="124.8" style="fill:#637888;" width="370.133" height="125.867"/>
<rect x="130.667" style="fill:#F16D6E;" width="370.133" height="125.867"/>
<g>
	<rect x="164.8" style="fill:#FEC656;" width="19.2" height="125.867"/>
	<rect x="204.267" style="fill:#FEC656;" width="19.2" height="125.867"/>
	<rect x="448.533" style="fill:#FEC656;" width="19.2" height="125.867"/>
	<rect x="74.133" y="124.8" style="fill:#FEC656;" width="20.267" height="125.867"/>
	<rect x="115.733" y="124.8" style="fill:#FEC656;" width="20.267" height="125.867"/>
	<rect x="376" y="124.8" style="fill:#FEC656;" width="20.267" height="125.867"/>
	<rect x="31.467" y="375.467" style="fill:#FEC656;" width="20.267" height="125.867"/>
	<rect x="73.067" y="375.467" style="fill:#FEC656;" width="20.267" height="125.867"/>
	<rect x="379.2" y="375.467" style="fill:#FEC656;" width="20.267" height="125.867"/>
</g>
<g>
	<rect x="128.533" y="249.6" style="fill:#F16D6E;" width="20.267" height="125.867"/>
	<rect x="170.133" y="249.6" style="fill:#F16D6E;" width="20.267" height="125.867"/>
	<rect x="428.267" y="249.6" style="fill:#F16D6E;" width="20.267" height="125.867"/>
</g>
<g>
</g>
<g>
</g>
<g>
</g>
<g>
</g>
<g>
</g>
<g>
</g>
<g>
</g>
<g>
</g>
<g>
</g>
<g>
</g>
<g>
</g>
<g>
</g>
<g>
</g>
<g>
</g>
<g>
</g>
</svg>
