<?xml version="1.0" encoding="iso-8859-1"?>
<!-- Generator: Adobe Illustrator 19.0.0, SVG Export Plug-In . SVG Version: 6.00 Build 0)  -->
<svg version="1.1" id="Layer_1" xmlns="http://www.w3.org/2000/svg" xmlns:xlink="http://www.w3.org/1999/xlink" x="0px" y="0px"
	 viewBox="0 0 501.717 501.717" style="enable-background:new 0 0 501.717 501.717;" xml:space="preserve">
<polygon style="fill:#E14A4A;" points="183.658,330.667 308.458,330.667 501.525,0 376.725,0 "/>
<polygon style="fill:#F16D6E;" points="318.058,330.667 193.258,330.667 0.192,0 124.992,0 "/>
<path style="fill:#FEC656;" d="M408.725,356.267c1.067-9.6,11.733-29.867,9.6-39.467c-1.067-9.6-16-26.667-19.2-36.267
	s-3.2-30.933-9.6-39.467c-5.333-8.533-25.6-16-34.133-22.4c-7.467-6.4-18.133-25.6-26.667-30.933
	c-8.533-4.267-30.933-2.133-40.533-4.267s-27.733-14.933-38.4-14.933s-27.733,12.8-38.4,14.933c-9.6,2.133-32,0-40.533,4.267
	c-8.533,4.267-19.2,23.467-26.667,30.933c-7.467,7.467-27.733,14.933-34.133,22.4c-5.333,8.533-5.333,29.867-9.6,39.467
	c-3.2,9.6-18.133,25.6-19.2,36.267c-1.067,9.6,8.533,29.867,9.6,39.467c1.067,9.6-4.267,30.933,0,40.533
	c3.2,9.6,21.333,22.4,27.733,29.867c5.333,8.533,10.667,29.867,19.2,36.267c7.467,6.4,28.8,9.6,38.4,13.867
	c8.533,4.267,23.467,21.333,33.067,23.467c10.667,3.2,30.933-4.267,41.6-4.267s30.933,7.467,40.533,5.333
	c9.6-2.133,24.533-19.2,33.067-23.467c8.533-4.267,30.933-7.467,38.4-13.867c7.467-6.4,12.8-27.733,19.2-36.267
	c5.333-8.533,23.467-20.267,27.733-29.867C411.925,387.2,407.658,365.867,408.725,356.267z"/>
<circle style="fill:#60C3AB;" cx="250.858" cy="334.933" r="91.733"/>
<g>
</g>
<g>
</g>
<g>
</g>
<g>
</g>
<g>
</g>
<g>
</g>
<g>
</g>
<g>
</g>
<g>
</g>
<g>
</g>
<g>
</g>
<g>
</g>
<g>
</g>
<g>
</g>
<g>
</g>
</svg>
