<?xml version="1.0" encoding="iso-8859-1"?>
<!-- Generator: Adobe Illustrator 19.0.0, SVG Export Plug-In . SVG Version: 6.00 Build 0)  -->
<svg version="1.1" id="Layer_1" xmlns="http://www.w3.org/2000/svg" xmlns:xlink="http://www.w3.org/1999/xlink" x="0px" y="0px"
	 viewBox="0 0 501.386 501.386" style="enable-background:new 0 0 501.386 501.386;" xml:space="preserve">
<rect x="447.107" y="-2.848" transform="matrix(-0.7071 -0.7071 0.7071 -0.7071 758.3975 394.8422)" style="fill:#F7B044;" width="27.733" height="86.399"/>
<path style="fill:#3A5569;" d="M132.098,77.083c-13.867,9.6-26.667,21.333-38.4,33.067c-105.6,105.6-124.8,258.133-42.667,340.267
	s234.667,62.933,340.267-42.667c12.8-12.8,23.467-25.6,33.067-38.4L132.098,77.083z"/>
<path style="fill:#637888;" d="M433.964,67.483C361.431-5.05,233.431,1.35,132.098,77.083l146.133,146.133L433.964,67.483
	L433.964,67.483z"/>
<path style="fill:#586E7B;" d="M433.964,67.483L278.231,223.216L424.364,369.35C500.098,268.016,506.498,140.016,433.964,67.483z"/>
<path style="fill:#2D4656;" d="M384.898,116.55c-7.467-7.467-18.133-7.467-25.6,0l-53.333,53.333c-7.467,7.467-7.467,18.133,0,25.6
	c7.467,7.467,18.133,7.467,25.6,0l53.333-53.333C392.364,134.683,392.364,122.95,384.898,116.55z"/>
<g>
</g>
<g>
</g>
<g>
</g>
<g>
</g>
<g>
</g>
<g>
</g>
<g>
</g>
<g>
</g>
<g>
</g>
<g>
</g>
<g>
</g>
<g>
</g>
<g>
</g>
<g>
</g>
<g>
</g>
</svg>
