<?xml version="1.0" encoding="iso-8859-1"?>
<!-- Generator: Adobe Illustrator 19.0.0, SVG Export Plug-In . SVG Version: 6.00 Build 0)  -->
<svg version="1.1" id="Layer_1" xmlns="http://www.w3.org/2000/svg" xmlns:xlink="http://www.w3.org/1999/xlink" x="0px" y="0px"
	 viewBox="0 0 501.333 501.333" style="enable-background:new 0 0 501.333 501.333;" xml:space="preserve">
<rect x="28.8" style="fill:#637888;" width="373.333" height="501.333"/>
<g>
	<path style="fill:#E0E0DF;" d="M51.2,32H6.4C3.2,32,0,35.2,0,38.4s3.2,6.4,6.4,6.4h44.8c3.2,0,6.4-3.2,6.4-6.4
		C57.6,34.133,55.467,32,51.2,32z"/>
	<path style="fill:#E0E0DF;" d="M51.2,67.2H6.4c-3.2,0-6.4,3.2-6.4,6.4S3.2,80,6.4,80h44.8c3.2,0,6.4-3.2,6.4-6.4
		C57.6,70.4,55.467,67.2,51.2,67.2z"/>
	<path style="fill:#E0E0DF;" d="M51.2,102.4H6.4c-3.2,0-6.4,3.2-6.4,6.4s3.2,6.4,6.4,6.4h44.8c3.2,0,6.4-3.2,6.4-6.4
		C57.6,105.6,55.467,102.4,51.2,102.4z"/>
	<path style="fill:#E0E0DF;" d="M51.2,137.6H6.4c-3.2,0-6.4,3.2-6.4,6.4c0,3.2,3.2,6.4,6.4,6.4h44.8c3.2,0,6.4-3.2,6.4-6.4
		C57.6,140.8,55.467,137.6,51.2,137.6z"/>
	<path style="fill:#E0E0DF;" d="M51.2,173.867H6.4c-3.2,0-6.4,3.2-6.4,6.4c0,3.2,3.2,6.4,6.4,6.4h44.8c3.2,0,6.4-3.2,6.4-6.4
		C57.6,176,55.467,173.867,51.2,173.867z"/>
	<path style="fill:#E0E0DF;" d="M51.2,209.067H6.4c-3.2,0-6.4,3.2-6.4,6.4c0,3.2,3.2,6.4,6.4,6.4h44.8c3.2,0,6.4-3.2,6.4-6.4
		C57.6,211.2,55.467,209.067,51.2,209.067z"/>
	<path style="fill:#E0E0DF;" d="M51.2,244.267H6.4c-3.2,0-6.4,3.2-6.4,6.4c0,3.2,3.2,6.4,6.4,6.4h44.8c3.2,0,6.4-3.2,6.4-6.4
		C57.6,247.467,55.467,244.267,51.2,244.267z"/>
	<path style="fill:#E0E0DF;" d="M51.2,279.467H6.4c-3.2,0-6.4,3.2-6.4,6.4c0,3.2,3.2,6.4,6.4,6.4h44.8c3.2,0,6.4-3.2,6.4-6.4
		C57.6,282.667,55.467,279.467,51.2,279.467z"/>
	<path style="fill:#E0E0DF;" d="M51.2,314.667H6.4c-3.2,0-6.4,3.2-6.4,6.4c0,3.2,3.2,6.4,6.4,6.4h44.8c3.2,0,6.4-3.2,6.4-6.4
		C57.6,317.867,55.467,314.667,51.2,314.667z"/>
	<path style="fill:#E0E0DF;" d="M51.2,349.867H6.4c-3.2,0-6.4,3.2-6.4,6.4c0,3.2,3.2,6.4,6.4,6.4h44.8c3.2,0,6.4-3.2,6.4-6.4
		C57.6,353.067,55.467,349.867,51.2,349.867z"/>
	<path style="fill:#E0E0DF;" d="M51.2,386.133H6.4c-3.2,0-6.4,3.2-6.4,6.4c0,3.2,3.2,6.4,6.4,6.4h44.8c3.2,0,6.4-3.2,6.4-6.4
		C57.6,388.267,55.467,386.133,51.2,386.133z"/>
	<path style="fill:#E0E0DF;" d="M51.2,421.333H6.4c-3.2,0-6.4,3.2-6.4,6.4c0,3.2,3.2,6.4,6.4,6.4h44.8c3.2,0,6.4-3.2,6.4-6.4
		C57.6,424.533,55.467,421.333,51.2,421.333z"/>
	<path style="fill:#E0E0DF;" d="M51.2,456.533H6.4c-3.2,0-6.4,3.2-6.4,6.4s3.2,6.4,6.4,6.4h44.8c3.2,0,6.4-3.2,6.4-6.4
		C57.6,459.733,55.467,456.533,51.2,456.533z"/>
	<rect x="126.933" y="162.133" style="fill:#E0E0DF;" width="178.133" height="177.067"/>
</g>
<path style="fill:#4F2F36;" d="M472.533,48c-16,0-28.8,12.8-28.8,27.733V211.2h56.533V75.733C501.333,59.733,488.533,48,472.533,48z
	"/>
<polygon style="fill:#B06D48;" points="493.867,438.4 452.267,438.4 448,211.2 498.133,211.2 "/>
<path style="fill:#FEC656;" d="M485.333,438.4h-12.8h-12.8l-4.267,22.4c13.867,12.8,17.067,35.2,17.067,35.2s3.2-22.4,17.067-35.2
	L485.333,438.4z"/>
<circle style="fill:#637888;" cx="472.533" cy="455.467" r="3.2"/>
<rect x="444.8" y="75.733" style="fill:#FEC656;" width="56.533" height="7.467"/>
<rect x="480" y="80" style="fill:#EF9F2C;" width="10.667" height="115.2"/>
<g>
</g>
<g>
</g>
<g>
</g>
<g>
</g>
<g>
</g>
<g>
</g>
<g>
</g>
<g>
</g>
<g>
</g>
<g>
</g>
<g>
</g>
<g>
</g>
<g>
</g>
<g>
</g>
<g>
</g>
</svg>
