<?xml version="1.0" encoding="iso-8859-1"?>
<!-- Generator: Adobe Illustrator 19.0.0, SVG Export Plug-In . SVG Version: 6.00 Build 0)  -->
<svg version="1.1" id="Layer_1" xmlns="http://www.w3.org/2000/svg" xmlns:xlink="http://www.w3.org/1999/xlink" x="0px" y="0px"
	 viewBox="0 0 501.333 501.333" style="enable-background:new 0 0 501.333 501.333;" xml:space="preserve">
<path style="fill:#E0E0DF;" d="M452.267,467.2c0-10.667,2.133-19.2,5.333-21.333v-3.2H46.933v48h409.6v-3.2
	C454.4,486.4,452.267,477.867,452.267,467.2z"/>
<g>
	<polygon style="fill:#53C2EF;" points="464,450.133 452.267,0 93.867,0 93.867,450.133 	"/>
	<rect x="93.867" y="485.333" style="fill:#53C2EF;" width="370.133" height="16"/>
</g>
<path style="fill:#37B2CD;" d="M70.4,485.333c-6.4,0-11.733-3.2-14.933-8.533S51.2,465.067,54.4,458.667
	c4.267-5.333,9.6-8.533,16-8.533h23.467V0H76.8C55.467,0,37.333,17.067,37.333,39.467V470.4l0,0c0,5.333,2.133,10.667,5.333,16
	c6.4,9.6,17.067,14.933,27.733,14.933h23.467v-16H70.4z"/>
<polygon style="fill:#E0E0DF;" points="369.067,280.533 169.6,280.533 169.6,156.8 364.8,156.8 "/>
<g>
	<rect x="199.467" y="184.533" style="fill:#BCB2AF;" width="138.667" height="16"/>
	<rect x="199.467" y="236.8" style="fill:#BCB2AF;" width="138.667" height="16"/>
</g>
<g>
</g>
<g>
</g>
<g>
</g>
<g>
</g>
<g>
</g>
<g>
</g>
<g>
</g>
<g>
</g>
<g>
</g>
<g>
</g>
<g>
</g>
<g>
</g>
<g>
</g>
<g>
</g>
<g>
</g>
</svg>
