<?xml version="1.0" encoding="iso-8859-1"?>
<!-- Generator: Adobe Illustrator 19.0.0, SVG Export Plug-In . SVG Version: 6.00 Build 0)  -->
<svg version="1.1" id="Layer_1" xmlns="http://www.w3.org/2000/svg" xmlns:xlink="http://www.w3.org/1999/xlink" x="0px" y="0px"
	 viewBox="0 0 501.341 501.341" style="enable-background:new 0 0 501.341 501.341;" xml:space="preserve">
<rect x="51.2" y="28.804" style="fill:#BDC8C4;" width="402.133" height="472.533"/>
<rect x="23.467" y="0.004" style="fill:#EBE9EA;" width="402.133" height="472.533"/>
<circle style="fill:#637888;" cx="89.6" cy="144.004" r="19.2"/>
<path style="fill:#F3B74B;" d="M89.6,135.47H8.533c-4.267,0-8.533,4.267-8.533,8.533s4.267,8.533,8.533,8.533H89.6
	c4.267,0,8.533-4.267,8.533-8.533C98.133,139.737,93.867,135.47,89.6,135.47z"/>
<circle style="fill:#637888;" cx="89.6" cy="328.537" r="19.2"/>
<path style="fill:#F3B74B;" d="M89.6,320.004H8.533c-4.267,0-8.533,4.267-8.533,8.533s4.267,8.533,8.533,8.533H89.6
	c4.267,0,8.533-4.267,8.533-8.533C98.133,323.204,93.867,320.004,89.6,320.004z"/>
<path style="fill:#E14A4A;" d="M482.133,70.404L482.133,70.404c-20.267-14.933-49.067-9.6-64,10.667L342.4,188.804l74.667,52.267
	L492.8,133.337C507.733,113.07,502.4,84.27,482.133,70.404z"/>
<polygon style="fill:#F16D6E;" points="344.533,189.87 235.733,345.604 306.133,395.737 416,240.004 "/>
<rect x="345.702" y="194.363" transform="matrix(-0.819 -0.5738 0.5738 -0.819 597.9821 586.9586)" style="fill:#EFC737;" width="91.734" height="9.6"/>
<path style="fill:#F3B74B;" d="M484.267,66.137c-6.4-4.267-16-2.133-21.333,6.4L368,208.004c-5.333,7.467-4.267,18.133,1.067,22.4
	c6.4,4.267,16,2.133,21.333-6.4l94.933-135.467C491.733,81.07,490.667,71.47,484.267,66.137z"/>
<polygon style="fill:#BECAC6;" points="306.133,395.737 235.733,345.604 216.533,420.27 241.067,437.337 "/>
<path style="fill:#3A5569;" d="M216.533,420.27l-4.267,16c-2.133,10.667,5.333,16,13.867,9.6l13.867-9.6L216.533,420.27z"/>
<g>
</g>
<g>
</g>
<g>
</g>
<g>
</g>
<g>
</g>
<g>
</g>
<g>
</g>
<g>
</g>
<g>
</g>
<g>
</g>
<g>
</g>
<g>
</g>
<g>
</g>
<g>
</g>
<g>
</g>
</svg>
