<?xml version="1.0" encoding="iso-8859-1"?>
<!-- Generator: Adobe Illustrator 19.0.0, SVG Export Plug-In . SVG Version: 6.00 Build 0)  -->
<svg version="1.1" id="Layer_1" xmlns="http://www.w3.org/2000/svg" xmlns:xlink="http://www.w3.org/1999/xlink" x="0px" y="0px"
	 viewBox="0 0 501.333 501.333" style="enable-background:new 0 0 501.333 501.333;" xml:space="preserve">
<rect x="54.4" y="52.267" style="fill:#B06D48;" width="392.533" height="449.067"/>
<rect x="90.667" y="70.4" style="fill:#F6F7F8;" width="320" height="395.733"/>
<path style="fill:#637888;" d="M323.2,40.533h-40.533c1.067-2.133,1.067-5.333,1.067-7.467C283.733,14.933,268.8,0,250.667,0
	S217.6,14.933,217.6,33.067c0,2.133,0,5.333,1.067,7.467h-40.533c0,36.267-37.333,59.733-37.333,59.733h109.867h108.8
	C359.467,100.267,323.2,76.8,323.2,40.533z M234.667,33.067c0-8.533,7.467-16,16-16s16,7.467,16,16c0,3.2-1.067,5.333-2.133,7.467
	h-13.867H236.8C235.733,38.4,234.667,36.267,234.667,33.067z"/>
<g>
	<rect x="210.133" y="193.067" style="fill:#60C3AB;" width="158.933" height="10.667"/>
	<rect x="210.133" y="277.333" style="fill:#60C3AB;" width="158.933" height="10.667"/>
	<rect x="210.133" y="361.6" style="fill:#60C3AB;" width="158.933" height="10.667"/>
</g>
<g>
	<rect x="133.333" y="170.667" style="fill:#E0E0DF;" width="56.533" height="56.533"/>
	<rect x="133.333" y="254.933" style="fill:#E0E0DF;" width="56.533" height="56.533"/>
	<rect x="133.333" y="339.2" style="fill:#E0E0DF;" width="56.533" height="56.533"/>
</g>
<polygon style="fill:#F16D6E;" points="139.733,276.267 157.867,300.8 196.267,261.333 157.867,288 "/>
<g>
	<path style="fill:#637888;" d="M169.6,213.333l-4.267-6.4c-2.133-2.133-3.2-4.267-4.267-5.333l0,0
		c-1.067,2.133-2.133,3.2-4.267,5.333l-4.267,6.4H147.2l11.733-14.933L147.2,184.533h5.333l5.333,6.4
		c1.067,2.133,2.133,3.2,3.2,5.333l0,0c1.067-2.133,2.133-3.2,3.2-5.333l5.333-6.4h5.333L163.2,198.4l11.733,14.933H169.6z"/>
	<path style="fill:#637888;" d="M169.6,381.867l-4.267-6.4c-2.133-2.133-3.2-4.267-4.267-5.333l0,0
		c-1.067,2.133-2.133,3.2-4.267,5.333l-4.267,6.4H147.2l11.733-14.933L147.2,353.067h5.333l5.333,6.4
		c1.067,2.133,2.133,3.2,3.2,5.333l0,0c1.067-2.133,2.133-3.2,3.2-5.333l5.333-6.4h5.333L163.2,366.933l11.733,14.933H169.6z"/>
</g>
<g>
</g>
<g>
</g>
<g>
</g>
<g>
</g>
<g>
</g>
<g>
</g>
<g>
</g>
<g>
</g>
<g>
</g>
<g>
</g>
<g>
</g>
<g>
</g>
<g>
</g>
<g>
</g>
<g>
</g>
</svg>
