<?xml version="1.0" encoding="iso-8859-1"?>
<!-- Generator: Adobe Illustrator 19.0.0, SVG Export Plug-In . SVG Version: 6.00 Build 0)  -->
<svg version="1.1" id="Layer_1" xmlns="http://www.w3.org/2000/svg" xmlns:xlink="http://www.w3.org/1999/xlink" x="0px" y="0px"
	 viewBox="0 0 502.4 502.4" style="enable-background:new 0 0 502.4 502.4;" xml:space="preserve">
<path style="fill:#E0E0DF;" d="M436.267,0h-371.2C51.2,0,40.533,10.667,40.533,24.533v453.333c0,13.867,10.667,24.533,24.533,24.533
	h372.267c13.867,0,24.533-10.667,24.533-24.533V24.533C460.8,10.667,450.133,0,436.267,0z M77.867,459.733
	c-7.467,0-14.933-6.4-14.933-14.933c0-7.467,6.4-14.933,14.933-14.933S92.8,436.267,92.8,444.8
	C92.8,453.333,86.4,459.733,77.867,459.733z M77.867,394.667c-7.467,0-14.933-6.4-14.933-14.933c0-7.467,6.4-14.933,14.933-14.933
	S92.8,371.2,92.8,379.733C92.8,388.267,86.4,394.667,77.867,394.667z M77.867,330.667c-7.467,0-14.933-6.4-14.933-14.933
	s6.4-14.933,14.933-14.933S92.8,307.2,92.8,315.733S86.4,330.667,77.867,330.667z M77.867,265.6c-7.467,0-14.933-6.4-14.933-14.933
	c0-8.533,6.4-14.933,14.933-14.933s14.933,6.4,14.933,14.933C92.8,259.2,86.4,265.6,77.867,265.6z M77.867,200.533
	c-7.467,0-14.933-6.4-14.933-14.933c0-7.467,6.4-14.933,14.933-14.933S92.8,177.067,92.8,185.6
	C92.8,194.133,86.4,200.533,77.867,200.533z M77.867,135.467c-7.467,0-14.933-6.4-14.933-14.933c0-7.467,6.4-14.933,14.933-14.933
	S92.8,112,92.8,120.533C92.8,129.067,86.4,135.467,77.867,135.467z M77.867,70.4c-7.467,0-14.933-6.4-14.933-14.933
	s6.4-14.933,14.933-14.933S92.8,48,92.8,55.467S86.4,70.4,77.867,70.4z"/>
<rect x="149.333" y="85.333" style="fill:#60C3AB;" width="234.667" height="16"/>
<g>
	<rect x="149.333" y="164.267" style="fill:#AFB3B2;" width="234.667" height="16"/>
	<rect x="149.333" y="242.133" style="fill:#AFB3B2;" width="234.667" height="16"/>
	<rect x="149.333" y="321.067" style="fill:#AFB3B2;" width="234.667" height="16"/>
	<rect x="149.333" y="398.933" style="fill:#AFB3B2;" width="234.667" height="16"/>
</g>
<g>
</g>
<g>
</g>
<g>
</g>
<g>
</g>
<g>
</g>
<g>
</g>
<g>
</g>
<g>
</g>
<g>
</g>
<g>
</g>
<g>
</g>
<g>
</g>
<g>
</g>
<g>
</g>
<g>
</g>
</svg>
