<?xml version="1.0" encoding="iso-8859-1"?>
<!-- Generator: Adobe Illustrator 19.0.0, SVG Export Plug-In . SVG Version: 6.00 Build 0)  -->
<svg version="1.1" id="Layer_1" xmlns="http://www.w3.org/2000/svg" xmlns:xlink="http://www.w3.org/1999/xlink" x="0px" y="0px"
	 viewBox="0 0 501.333 501.333" style="enable-background:new 0 0 501.333 501.333;" xml:space="preserve">
<g>
	<path style="fill:#F6F7F8;" d="M20.267,10.667L62.933,0c0,0,162.133,48,168.533,51.2c9.6,5.333,19.2,18.133,19.2,38.4
		s-18.133,62.933-18.133,62.933l-154.667-64L20.267,10.667z"/>
	<path style="fill:#F6F7F8;" d="M481.067,10.667L438.4,0c0,0-162.133,48-168.533,51.2c-9.6,5.333-19.2,18.133-19.2,38.4
		s18.133,62.933,18.133,62.933l154.667-64L481.067,10.667z"/>
</g>
<path style="fill:#E14A4A;" d="M279.467,488.533c-17.067,17.067-41.6,17.067-58.667,0c0-137.6,0-274.133,0-411.733
	c17.067,17.067,41.6,17.067,58.667,0C279.467,214.4,279.467,350.933,279.467,488.533z"/>
<polygon style="fill:#60C3AB;" points="0,4.267 0,416 185.6,476.8 185.6,65.067 "/>
<g>
	<polygon style="fill:#F16C6D;" points="221.867,76.8 185.6,65.067 185.6,476.8 221.867,488.533 	"/>
	<polygon style="fill:#F16C6D;" points="279.467,76.8 279.467,488.533 315.733,476.8 315.733,65.067 	"/>
</g>
<polygon style="fill:#60C3AB;" points="501.333,4.267 315.733,65.067 315.733,476.8 501.333,416 "/>
<g>
</g>
<g>
</g>
<g>
</g>
<g>
</g>
<g>
</g>
<g>
</g>
<g>
</g>
<g>
</g>
<g>
</g>
<g>
</g>
<g>
</g>
<g>
</g>
<g>
</g>
<g>
</g>
<g>
</g>
</svg>
