<?xml version="1.0" encoding="iso-8859-1"?>
<!-- Generator: Adobe Illustrator 19.0.0, SVG Export Plug-In . SVG Version: 6.00 Build 0)  -->
<svg version="1.1" id="Layer_1" xmlns="http://www.w3.org/2000/svg" xmlns:xlink="http://www.w3.org/1999/xlink" x="0px" y="0px"
	 viewBox="0 0 501.333 501.333" style="enable-background:new 0 0 501.333 501.333;" xml:space="preserve">
<ellipse style="fill:#53C2EF;" cx="206.933" cy="211.2" rx="206.933" ry="211.2"/>
<g>
	<path style="fill:#FFFFFF;" d="M206.933,402.133c-103.467,0-186.667-85.333-186.667-190.933s83.2-190.933,186.667-190.933
		S393.6,105.6,393.6,211.2S309.333,402.133,206.933,402.133z M206.933,39.467c-92.8,0-168.533,76.8-168.533,171.733
		s75.733,171.733,168.533,171.733s168.533-76.8,168.533-171.733S299.733,39.467,206.933,39.467z"/>
	<path style="fill:#FFFFFF;" d="M206.933,402.133C144,402.133,93.867,317.867,93.867,211.2S144,20.267,206.933,20.267
		S320,104.533,320,211.2S269.867,402.133,206.933,402.133z M206.933,39.467c-52.267,0-93.867,76.8-93.867,171.733
		s42.667,171.733,93.867,171.733S300.8,306.133,300.8,211.2S258.133,39.467,206.933,39.467z"/>
	<rect x="197.333" y="30.933" style="fill:#FFFFFF;" width="18.133" height="360.533"/>
	<rect x="55.467" y="107.733" style="fill:#FFFFFF;" width="302.933" height="19.2"/>
	<rect x="29.867" y="201.6" style="fill:#FFFFFF;" width="353.067" height="19.2"/>
	<rect x="55.467" y="295.467" style="fill:#FFFFFF;" width="302.933" height="19.2"/>
</g>
<rect x="87.467" y="213.333" style="fill:#444652;" width="413.867" height="288"/>
<polygon style="fill:#C9C5C3;" points="470.4,195.2 481.067,214.4 481.067,481.067 105.6,481.067 105.6,213.333 119.467,195.2 
	294.4,243.2 "/>
<path style="fill:#F6F7F8;" d="M294.4,464c-56.533-21.333-118.4-21.333-176,0c0-89.6,0-179.2,0-268.8
	c56.533-21.333,118.4-21.333,176,0C294.4,284.8,294.4,374.4,294.4,464z"/>
<g>
	<path style="fill:#E0E0DF;" d="M470.4,464c-56.533-21.333-118.4-21.333-176,0c0-89.6,0-179.2,0-268.8
		c56.533-21.333,118.4-21.333,176,0C470.4,284.8,470.4,374.4,470.4,464z"/>
	<path style="fill:#E0E0DF;" d="M270.933,237.867c-41.6-16-87.467-16-129.067,0c0-4.267,0-7.467,0-11.733
		c41.6-16,87.467-16,129.067,0C270.933,229.333,270.933,233.6,270.933,237.867z"/>
	<path style="fill:#E0E0DF;" d="M270.933,281.6c-41.6-16-87.467-16-129.067,0c0-4.267,0-7.467,0-11.733c41.6-16,87.467-16,129.067,0
		C270.933,273.067,270.933,277.333,270.933,281.6z"/>
	<path style="fill:#E0E0DF;" d="M270.933,325.333c-41.6-16-87.467-16-129.067,0c0-4.267,0-7.467,0-11.733
		c41.6-16,87.467-16,129.067,0C270.933,316.8,270.933,321.067,270.933,325.333z"/>
	<path style="fill:#E0E0DF;" d="M270.933,369.067c-41.6-16-87.467-16-129.067,0c0-4.267,0-7.467,0-11.733
		c41.6-16,87.467-16,129.067,0C270.933,360.533,270.933,364.8,270.933,369.067z"/>
	<path style="fill:#E0E0DF;" d="M270.933,412.8c-41.6-16-87.467-16-129.067,0c0-4.267,0-7.467,0-11.733c41.6-16,87.467-16,129.067,0
		C270.933,404.267,270.933,408.533,270.933,412.8z"/>
</g>
<g>
	<path style="fill:#C9C5C3;" d="M446.933,237.867c-41.6-16-87.467-16-129.067,0c0-4.267,0-7.467,0-11.733
		c41.6-16,87.467-16,129.067,0C446.933,229.333,446.933,233.6,446.933,237.867z"/>
	<path style="fill:#C9C5C3;" d="M446.933,281.6c-41.6-16-87.467-16-129.067,0c0-4.267,0-7.467,0-11.733c41.6-16,87.467-16,129.067,0
		C446.933,273.067,446.933,277.333,446.933,281.6z"/>
	<path style="fill:#C9C5C3;" d="M446.933,325.333c-41.6-16-87.467-16-129.067,0c0-4.267,0-7.467,0-11.733
		c41.6-16,87.467-16,129.067,0C446.933,316.8,446.933,321.067,446.933,325.333z"/>
	<path style="fill:#C9C5C3;" d="M446.933,369.067c-41.6-16-87.467-16-129.067,0c0-4.267,0-7.467,0-11.733
		c41.6-16,87.467-16,129.067,0C446.933,360.533,446.933,364.8,446.933,369.067z"/>
	<path style="fill:#C9C5C3;" d="M446.933,412.8c-41.6-16-87.467-16-129.067,0c0-4.267,0-7.467,0-11.733c41.6-16,87.467-16,129.067,0
		C446.933,404.267,446.933,408.533,446.933,412.8z"/>
</g>
<g>
</g>
<g>
</g>
<g>
</g>
<g>
</g>
<g>
</g>
<g>
</g>
<g>
</g>
<g>
</g>
<g>
</g>
<g>
</g>
<g>
</g>
<g>
</g>
<g>
</g>
<g>
</g>
<g>
</g>
</svg>
