<?xml version="1.0" encoding="iso-8859-1"?>
<!-- Generator: Adobe Illustrator 19.0.0, SVG Export Plug-In . SVG Version: 6.00 Build 0)  -->
<svg version="1.1" id="Layer_1" xmlns="http://www.w3.org/2000/svg" xmlns:xlink="http://www.w3.org/1999/xlink" x="0px" y="0px"
	 viewBox="0 0 501.737 501.737" style="enable-background:new 0 0 501.737 501.737;" xml:space="preserve">
<path style="fill:#FEC656;" d="M427.935,421.737L427.935,421.737c-42.667-5.333-76.8-67.2-76.8-144
	c0-43.733,10.667-82.133,28.8-108.8c-33.067-46.933-78.933-76.8-129.067-76.8s-96,29.867-129.067,76.8
	c17.067,26.667,28.8,65.067,28.8,108.8c0,75.733-34.133,137.6-76.8,142.933l0,0h354.133V421.737z"/>
<g>
	<path style="fill:#EF9F2C;" d="M165.535,332.137c-14.933,0-24.533-20.267-26.667-22.4l8.533-6.4
		c2.133,5.333,10.667,17.067,18.133,17.067c6.4,0,11.733-10.667,14.933-19.2l8.533,5.333
		C182.602,323.603,175.135,332.137,165.535,332.137C166.602,332.137,166.602,332.137,165.535,332.137z"/>
	<path style="fill:#EF9F2C;" d="M221.002,332.137c-14.933,0-24.533-20.267-26.667-22.4l8.533-6.4
		c2.133,5.333,10.667,17.067,18.133,17.067c6.4,0,11.733-10.667,14.933-19.2l8.533,5.333
		C238.068,323.603,230.602,332.137,221.002,332.137C222.068,332.137,222.068,332.137,221.002,332.137z"/>
	<path style="fill:#EF9F2C;" d="M276.468,332.137c-14.933,0-24.533-20.267-26.667-22.4l8.533-6.4
		c2.133,5.333,10.667,17.067,18.133,17.067c6.4,0,11.733-10.667,14.933-19.2l8.533,5.333
		C293.535,323.603,286.068,332.137,276.468,332.137C277.535,332.137,277.535,332.137,276.468,332.137z"/>
	<path style="fill:#EF9F2C;" d="M331.935,332.137c-14.933,0-24.533-20.267-26.667-22.4l8.533-6.4
		c2.133,5.333,10.667,17.067,18.133,17.067c6.4,0,11.733-10.667,14.933-19.2l8.533,5.333
		C349.002,323.603,341.535,332.137,331.935,332.137C333.002,332.137,333.002,332.137,331.935,332.137z"/>
	<path style="fill:#EF9F2C;" d="M137.802,292.67c-14.933,0-24.533-20.267-26.667-22.4l8.533-6.4
		c2.133,5.333,10.667,17.067,18.133,17.067c6.4,0,11.733-10.667,14.933-19.2l8.533,5.333
		C154.868,284.137,147.402,292.67,137.802,292.67C138.868,292.67,138.868,292.67,137.802,292.67z"/>
	<path style="fill:#EF9F2C;" d="M193.268,292.67c-14.933,0-24.533-20.267-26.667-22.4l8.533-6.4
		c2.133,5.333,10.667,17.067,18.133,17.067c6.4,0,11.733-10.667,14.933-19.2l8.533,5.333
		C210.335,284.137,202.868,292.67,193.268,292.67C194.335,292.67,194.335,292.67,193.268,292.67z"/>
	<path style="fill:#EF9F2C;" d="M248.735,292.67c-14.933,0-24.533-20.267-26.667-22.4l8.533-6.4
		c2.133,5.333,10.667,17.067,18.133,17.067c6.4,0,11.733-10.667,14.933-19.2l8.533,5.333
		C265.802,284.137,258.335,292.67,248.735,292.67C249.802,292.67,249.802,292.67,248.735,292.67z"/>
	<path style="fill:#EF9F2C;" d="M304.202,292.67c-14.933,0-24.533-20.267-26.667-22.4l8.533-6.4
		c2.133,5.333,10.667,17.067,18.133,17.067c6.4,0,11.733-10.667,14.933-19.2l8.533,5.333
		C321.268,284.137,313.802,292.67,304.202,292.67C305.268,292.67,305.268,292.67,304.202,292.67z"/>
	<path style="fill:#EF9F2C;" d="M359.668,292.67c-14.933,0-24.533-20.267-26.667-22.4l8.533-6.4
		c2.133,5.333,10.667,17.067,18.133,17.067c6.4,0,11.733-10.667,14.933-19.2l8.533,5.333
		C376.735,284.137,369.268,292.67,359.668,292.67C360.735,292.67,360.735,292.67,359.668,292.67z"/>
	<path style="fill:#EF9F2C;" d="M165.535,416.403c-14.933,0-24.533-20.267-26.667-22.4l8.533-6.4
		c2.133,5.333,10.667,17.067,18.133,17.067c6.4,0,11.733-10.667,14.933-19.2l8.533,5.333
		C182.602,407.87,175.135,416.403,165.535,416.403C166.602,416.403,166.602,416.403,165.535,416.403z"/>
	<path style="fill:#EF9F2C;" d="M221.002,416.403c-14.933,0-24.533-20.267-26.667-22.4l8.533-6.4
		c2.133,5.333,10.667,17.067,18.133,17.067c6.4,0,11.733-10.667,14.933-19.2l8.533,5.333
		C238.068,407.87,230.602,416.403,221.002,416.403C222.068,416.403,222.068,416.403,221.002,416.403z"/>
	<path style="fill:#EF9F2C;" d="M276.468,416.403c-14.933,0-24.533-20.267-26.667-22.4l8.533-6.4
		c2.133,5.333,10.667,17.067,18.133,17.067c6.4,0,11.733-10.667,14.933-19.2l8.533,5.333
		C293.535,407.87,286.068,416.403,276.468,416.403C277.535,416.403,277.535,416.403,276.468,416.403z"/>
	<path style="fill:#EF9F2C;" d="M331.935,416.403c-14.933,0-24.533-20.267-26.667-22.4l8.533-6.4
		c2.133,5.333,10.667,17.067,18.133,17.067c6.4,0,11.733-10.667,14.933-19.2l8.533,5.333
		C349.002,407.87,341.535,416.403,331.935,416.403C333.002,416.403,333.002,416.403,331.935,416.403z"/>
	<path style="fill:#EF9F2C;" d="M165.535,248.937c-14.933,0-24.533-20.267-26.667-22.4l8.533-6.4
		c2.133,5.333,10.667,17.067,18.133,17.067c6.4,0,11.733-10.667,14.933-19.2l8.533,5.333
		C182.602,240.403,175.135,248.937,165.535,248.937C166.602,248.937,166.602,248.937,165.535,248.937z"/>
	<path style="fill:#EF9F2C;" d="M221.002,248.937c-14.933,0-24.533-20.267-26.667-22.4l8.533-6.4
		c2.133,5.333,10.667,17.067,18.133,17.067c6.4,0,11.733-10.667,14.933-19.2l8.533,5.333
		C238.068,240.403,230.602,248.937,221.002,248.937C222.068,248.937,222.068,248.937,221.002,248.937z"/>
	<path style="fill:#EF9F2C;" d="M276.468,248.937c-14.933,0-24.533-20.267-26.667-22.4l8.533-6.4
		c2.133,5.333,10.667,17.067,18.133,17.067c6.4,0,11.733-10.667,14.933-19.2l8.533,5.333
		C293.535,240.403,286.068,248.937,276.468,248.937C277.535,248.937,277.535,248.937,276.468,248.937z"/>
	<path style="fill:#EF9F2C;" d="M331.935,248.937c-14.933,0-24.533-20.267-26.667-22.4l8.533-6.4
		c2.133,5.333,10.667,17.067,18.133,17.067c6.4,0,11.733-10.667,14.933-19.2l8.533,5.333
		C349.002,240.403,341.535,248.937,331.935,248.937C333.002,248.937,333.002,248.937,331.935,248.937z"/>
	<path style="fill:#EF9F2C;" d="M137.802,376.937c-14.933,0-24.533-20.267-26.667-22.4l8.533-6.4
		c2.133,5.333,10.667,17.067,18.133,17.067c6.4,0,11.733-10.667,14.933-19.2l8.533,5.333
		C154.868,368.403,147.402,376.937,137.802,376.937C138.868,376.937,138.868,376.937,137.802,376.937z"/>
	<path style="fill:#EF9F2C;" d="M193.268,376.937c-14.933,0-24.533-20.267-26.667-22.4l8.533-6.4
		c2.133,5.333,10.667,17.067,18.133,17.067c6.4,0,11.733-10.667,14.933-19.2l8.533,5.333
		C210.335,368.403,202.868,376.937,193.268,376.937C194.335,376.937,194.335,376.937,193.268,376.937z"/>
	<path style="fill:#EF9F2C;" d="M248.735,376.937c-14.933,0-24.533-20.267-26.667-22.4l8.533-6.4
		c2.133,5.333,10.667,17.067,18.133,17.067c6.4,0,11.733-10.667,14.933-19.2l8.533,5.333
		C265.802,368.403,258.335,376.937,248.735,376.937C249.802,376.937,249.802,376.937,248.735,376.937z"/>
	<path style="fill:#EF9F2C;" d="M304.202,376.937c-14.933,0-24.533-20.267-26.667-22.4l8.533-6.4
		c2.133,5.333,10.667,17.067,18.133,17.067c6.4,0,11.733-10.667,14.933-19.2l8.533,5.333
		C321.268,368.403,313.802,376.937,304.202,376.937C305.268,376.937,305.268,376.937,304.202,376.937z"/>
	<path style="fill:#EF9F2C;" d="M359.668,376.937c-14.933,0-24.533-20.267-26.667-22.4l8.533-6.4
		c2.133,5.333,10.667,17.067,18.133,17.067c6.4,0,11.733-10.667,14.933-19.2l8.533,5.333
		C376.735,368.403,369.268,376.937,359.668,376.937C360.735,376.937,360.735,376.937,359.668,376.937z"/>
</g>
<g>
	<path style="fill:#3F3333;" d="M150.602,277.737c0-43.733-10.667-82.133-28.8-108.8c-33.067,48-53.333,113.067-53.333,185.6
		c0,22.4,2.133,44.8,6.4,66.133C116.468,415.337,150.602,353.47,150.602,277.737z"/>
	<path style="fill:#3F3333;" d="M379.935,168.937c-17.067,26.667-28.8,65.067-28.8,108.8c0,75.733,34.133,137.6,76.8,142.933
		c4.267-21.333,6.4-42.667,6.4-66.133C434.335,283.07,414.068,216.937,379.935,168.937z"/>
</g>
<rect x="138.868" y="7.87" style="fill:#3A5569;" width="222.933" height="100.267"/>
<g>
	<ellipse style="fill:#F6F7F8;" cx="189.002" cy="122.003" rx="83.2" ry="83.2"/>
	<ellipse style="fill:#F6F7F8;" cx="312.735" cy="122.003" rx="83.2" ry="83.2"/>
</g>
<ellipse style="fill:#2FC0E9;" cx="313.802" cy="122.003" rx="50.133" ry="50.133"/>
<circle style="fill:#341F13;" cx="313.802" cy="122.003" r="24.533"/>
<circle style="fill:#FFFFFF;" cx="331.935" cy="108.137" r="13.867"/>
<ellipse style="fill:#2FC0E9;" cx="187.935" cy="122.003" rx="50.133" ry="50.133"/>
<circle style="fill:#341F13;" cx="187.935" cy="122.003" r="24.533"/>
<circle style="fill:#FFFFFF;" cx="206.068" cy="108.137" r="13.867"/>
<path style="fill:#DFE5E4;" d="M258.335,84.67L387.402,6.803c0,0-93.867-36.267-135.467,58.667
	C209.268-29.463,116.468,6.803,116.468,6.803L245.535,84.67l5.333,4.267L258.335,84.67z"/>
<path style="fill:#F16D6E;" d="M250.868,135.87c-14.933-7.467-51.2,32-34.133,38.4c17.067,7.467,34.133,58.667,34.133,58.667
	s17.067-51.2,34.133-58.667C302.068,167.87,265.802,128.403,250.868,135.87z"/>
<path style="fill:#E6EEEE;" d="M16.202,419.603l34.133-34.133c0,0,69.333,11.733,92.8,5.333c22.4-6.4,97.067-12.8,107.733,26.667v64
	l-5.333,7.467l-39.467-20.267l-189.867-41.6V419.603z"/>
<path style="fill:#53C2EF;" d="M250.868,501.737c-22.4,0-36.267-16-41.6-24.533L0.202,437.737l4.267-19.2l217.6,41.6l2.133,4.267
	c0,0,9.6,18.133,26.667,18.133V501.737z"/>
<path style="fill:#D7E1E2;" d="M485.535,419.603l-34.133-34.133c0,0-69.333,11.733-92.8,5.333c-22.4-6.4-97.067-12.8-107.733,26.667
	v64l5.333,7.467l39.467-20.267l189.867-41.6V419.603z"/>
<path style="fill:#53C2EF;" d="M250.868,501.737c22.4,0,36.267-16,41.6-24.533l209.067-40.533l-4.267-19.2l-217.6,41.6l-2.133,4.267
	c0,0-9.6,18.133-26.667,18.133L250.868,501.737L250.868,501.737z"/>
<g>
</g>
<g>
</g>
<g>
</g>
<g>
</g>
<g>
</g>
<g>
</g>
<g>
</g>
<g>
</g>
<g>
</g>
<g>
</g>
<g>
</g>
<g>
</g>
<g>
</g>
<g>
</g>
<g>
</g>
</svg>
