<?xml version="1.0" encoding="iso-8859-1"?>
<!-- Generator: Adobe Illustrator 19.0.0, SVG Export Plug-In . SVG Version: 6.00 Build 0)  -->
<svg version="1.1" id="Layer_1" xmlns="http://www.w3.org/2000/svg" xmlns:xlink="http://www.w3.org/1999/xlink" x="0px" y="0px"
	 viewBox="0 0 501.333 501.333" style="enable-background:new 0 0 501.333 501.333;" xml:space="preserve">
<path style="fill:#FEC656;" d="M366.933,340.267L317.867,201.6h-67.2h-67.2L134.4,340.267c50.133,16,93.867,108.8,109.867,146.133
	V317.867c-12.8-3.2-23.467-14.933-23.467-28.8c0-16,12.8-28.8,28.8-28.8s28.8,12.8,28.8,28.8c0,13.867-9.6,25.6-23.467,28.8V486.4
	C272,450.133,316.8,356.267,366.933,340.267z"/>
<path style="fill:#637888;" d="M279.467,289.067c0-16-12.8-28.8-28.8-28.8s-28.8,12.8-28.8,28.8c0,13.867,9.6,25.6,23.467,28.8
	V486.4c4.267,9.6,6.4,14.933,6.4,14.933s2.133-5.333,6.4-14.933V317.867C269.867,314.667,279.467,302.933,279.467,289.067z"/>
<rect x="157.867" y="173.867" style="fill:#E6D8CC;" width="184.533" height="32"/>
<polygon style="fill:#637888;" points="371.2,0 130.133,0 157.867,173.867 343.467,173.867 "/>
<g>
</g>
<g>
</g>
<g>
</g>
<g>
</g>
<g>
</g>
<g>
</g>
<g>
</g>
<g>
</g>
<g>
</g>
<g>
</g>
<g>
</g>
<g>
</g>
<g>
</g>
<g>
</g>
<g>
</g>
</svg>
