<?xml version="1.0" encoding="iso-8859-1"?>
<!-- Generator: Adobe Illustrator 19.0.0, SVG Export Plug-In . SVG Version: 6.00 Build 0)  -->
<svg version="1.1" id="Layer_1" xmlns="http://www.w3.org/2000/svg" xmlns:xlink="http://www.w3.org/1999/xlink" x="0px" y="0px"
	 viewBox="0 0 501.722 501.722" style="enable-background:new 0 0 501.722 501.722;" xml:space="preserve">
<path style="fill:#637888;" d="M6.789,76l-6.4-43.733c-3.2-18.133,13.867-34.133,32-30.933l44.8,7.467L6.789,76z"/>
<path style="fill:#FEC656;" d="M121.989,70.666c-13.867-3.2-28.8,1.067-39.467,10.667C71.856,92,67.589,106.933,70.789,120.8
	c-13.867-3.2-28.8,1.067-39.467,10.667c-7.467,6.4-10.667,16-11.733,24.533l-12.8-80l70.4-68.267l81.067,12.8
	c-8.533,1.067-18.133,5.333-24.533,11.733C123.056,42.933,118.789,57.866,121.989,70.666z"/>
<path style="fill:#F16D6E;" d="M485.722,423.733l-64,61.867c-21.333,20.267-55.467,20.267-76.8,0l140.8-137.6
	C507.056,369.333,507.056,403.466,485.722,423.733z"/>
<path style="fill:#59B247;" d="M486.789,348l-44.8,43.733l-320-321.067c-3.2-12.8,1.067-27.733,11.733-38.4
	c7.467-6.4,16-10.667,24.533-11.733h2.133L486.789,348C485.722,348,486.789,348,486.789,348z"/>
<path style="fill:#94CB66;" d="M344.922,485.6L344.922,485.6L19.589,159.2v-2.133c1.067-8.533,5.333-17.067,11.733-24.533
	c10.667-10.667,25.6-13.867,39.467-10.667l320,321.067L344.922,485.6z"/>
<path style="fill:#82C355;" d="M390.789,441.866l-320-321.067c-3.2-13.867,1.067-28.8,11.733-39.467s25.6-13.867,39.467-10.667
	l320,321.067L390.789,441.866z"/>
<g>
</g>
<g>
</g>
<g>
</g>
<g>
</g>
<g>
</g>
<g>
</g>
<g>
</g>
<g>
</g>
<g>
</g>
<g>
</g>
<g>
</g>
<g>
</g>
<g>
</g>
<g>
</g>
<g>
</g>
</svg>
