<?xml version="1.0" encoding="iso-8859-1"?>
<!-- Generator: Adobe Illustrator 19.0.0, SVG Export Plug-In . SVG Version: 6.00 Build 0)  -->
<svg version="1.1" id="Layer_1" xmlns="http://www.w3.org/2000/svg" xmlns:xlink="http://www.w3.org/1999/xlink" x="0px" y="0px"
	 viewBox="0 0 501.333 501.333" style="enable-background:new 0 0 501.333 501.333;" xml:space="preserve">
<path style="fill:#53C2EF;" d="M216.533,485.333c18.133,21.333,49.067,21.333,67.2,0l54.4-64H163.2L216.533,485.333z"/>
<path style="fill:#FAECE1;" d="M339.2,206.933C322.133,237.867,288,259.2,250.667,259.2c-38.4,0-71.467-21.333-88.533-52.267
	c-17.067,30.933-51.2,52.267-88.533,52.267c-27.733,0-53.333-11.733-71.467-29.867l161.067,192h174.933l162.133-192
	C482.133,247.467,456.533,259.2,428.8,259.2C390.4,259.2,357.333,237.867,339.2,206.933z"/>
<path style="fill:#F16D6E;" d="M501.333,0H0v228.267l1.067,1.067C19.2,247.467,44.8,259.2,72.533,259.2
	c38.4,0,71.467-21.333,88.533-52.267c17.067,30.933,51.2,52.267,88.533,52.267c38.4,0,71.467-21.333,88.533-52.267
	c17.067,30.933,51.2,52.267,88.533,52.267c27.733,0,53.333-11.733,71.467-29.867l1.067-1.067V0H501.333z"/>
<g>
</g>
<g>
</g>
<g>
</g>
<g>
</g>
<g>
</g>
<g>
</g>
<g>
</g>
<g>
</g>
<g>
</g>
<g>
</g>
<g>
</g>
<g>
</g>
<g>
</g>
<g>
</g>
<g>
</g>
</svg>
