<?xml version="1.0" encoding="iso-8859-1"?>
<!-- Generator: Adobe Illustrator 19.0.0, SVG Export Plug-In . SVG Version: 6.00 Build 0)  -->
<svg version="1.1" id="Layer_1" xmlns="http://www.w3.org/2000/svg" xmlns:xlink="http://www.w3.org/1999/xlink" x="0px" y="0px"
	 viewBox="0 0 502.008 502.008" style="enable-background:new 0 0 502.008 502.008;" xml:space="preserve">
<rect x="251.305" y="9.884" transform="matrix(-0.8692 -0.4945 0.4945 -0.8692 499.8251 530.6697)" style="fill:#FEC656;" width="137.603" height="378.674"/>
<g>
	
		<rect x="353.956" y="27.428" transform="matrix(-0.8692 -0.4945 0.4945 -0.8692 688.5394 246.6079)" style="fill:#3A5569;" width="45.868" height="9.6"/>
	
		<rect x="340.259" y="48.714" transform="matrix(-0.8692 -0.4945 0.4945 -0.8692 630.4798 273.8211)" style="fill:#3A5569;" width="22.4" height="9.6"/>
	
		<rect x="323.08" y="81.912" transform="matrix(-0.8692 -0.4945 0.4945 -0.8692 603.8846 333.1805)" style="fill:#3A5569;" width="45.868" height="9.6"/>
	
		<rect x="309.373" y="103.177" transform="matrix(-0.8692 -0.4945 0.4945 -0.8692 545.8157 360.3485)" style="fill:#3A5569;" width="22.4" height="9.6"/>
	
		<rect x="292.193" y="136.3" transform="matrix(-0.8692 -0.4945 0.4945 -0.8692 519.2574 419.5683)" style="fill:#3A5569;" width="45.868" height="9.6"/>
	
		<rect x="277.958" y="158.566" transform="matrix(-0.8692 -0.4945 0.4945 -0.8692 459.7071 448.3481)" style="fill:#3A5569;" width="22.4" height="9.6"/>
	
		<rect x="261.306" y="190.805" transform="matrix(-0.8692 -0.4945 0.4945 -0.8692 434.5721 506.1755)" style="fill:#3A5569;" width="45.868" height="9.6"/>
	
		<rect x="247.072" y="213.018" transform="matrix(-0.8692 -0.4945 0.4945 -0.8692 375.0482 534.8556)" style="fill:#3A5569;" width="22.4" height="9.6"/>
	
		<rect x="229.892" y="246.195" transform="matrix(-0.8692 -0.4945 0.4945 -0.8692 348.4635 594.175)" style="fill:#3A5569;" width="45.868" height="9.6"/>
	
		<rect x="216.185" y="267.481" transform="matrix(-0.8692 -0.4945 0.4945 -0.8692 290.384 621.383)" style="fill:#3A5569;" width="22.4" height="9.6"/>
	
		<rect x="198.984" y="300.657" transform="matrix(-0.8692 -0.4945 0.4945 -0.8692 263.7595 680.692)" style="fill:#3A5569;" width="45.868" height="9.6"/>
	
		<rect x="184.371" y="321.416" transform="matrix(-0.8692 -0.4945 0.4945 -0.8692 204.2477 706.466)" style="fill:#3A5569;" width="22.4" height="9.6"/>
</g>
<path style="fill:#637888;" d="M35.942,47.608l4.267-30.933c2.133-12.8,14.933-20.267,26.667-14.933l27.733,12.8L35.942,47.608z"/>
<path style="fill:#FEC656;" d="M111.675,65.741c-8.533-4.267-19.2-5.333-27.733,0c-8.533,4.267-13.867,13.867-14.933,23.467
	c-8.533-4.267-19.2-5.333-27.733,0c-5.333,3.2-9.6,8.533-12.8,13.867l7.467-55.467l58.667-33.067l51.2,23.467
	c-6.4-1.067-12.8,0-18.133,3.2C118.075,46.541,112.742,56.141,111.675,65.741z"/>
<path style="fill:#F16D6E;" d="M286.608,365.475l-53.333,29.867c-18.133,9.6-40.533,3.2-50.133-13.867l117.333-66.133
	C310.075,332.408,303.675,354.808,286.608,365.475z"/>
<path style="fill:#59B247;" d="M300.475,315.341l-37.333,21.333L111.675,65.741c1.067-9.6,6.4-18.133,14.933-23.467
	c6.4-4.267,12.8-5.333,19.2-4.267l1.067,1.067L300.475,315.341C300.475,314.275,300.475,314.275,300.475,315.341z"/>
<path style="fill:#94CB66;" d="M183.142,380.408C183.142,380.408,182.075,380.408,183.142,380.408L28.475,104.141v-1.067
	c2.133-5.333,6.4-10.667,12.8-13.867c8.533-5.333,19.2-4.267,27.733,0l151.467,270.933L183.142,380.408z"/>
<path style="fill:#82C355;" d="M220.475,360.141L69.008,89.208c1.067-9.6,6.4-19.2,14.933-23.467c8.533-5.333,19.2-4.267,27.733,0
	l151.467,270.933L220.475,360.141z"/>
<path style="fill:#E0E0DF;" d="M61.542,198.008v246.4c0,32,25.6,57.6,57.6,57.6h229.333c32,0,57.6-25.6,57.6-57.6v-246.4H61.542z"/>
<g>
</g>
<g>
</g>
<g>
</g>
<g>
</g>
<g>
</g>
<g>
</g>
<g>
</g>
<g>
</g>
<g>
</g>
<g>
</g>
<g>
</g>
<g>
</g>
<g>
</g>
<g>
</g>
<g>
</g>
</svg>
