<?xml version="1.0" encoding="iso-8859-1"?>
<!-- Generator: Adobe Illustrator 19.0.0, SVG Export Plug-In . SVG Version: 6.00 Build 0)  -->
<svg version="1.1" id="Layer_1" xmlns="http://www.w3.org/2000/svg" xmlns:xlink="http://www.w3.org/1999/xlink" x="0px" y="0px"
	 viewBox="0 0 501.333 501.333" style="enable-background:new 0 0 501.333 501.333;" xml:space="preserve">
<rect x="136" y="114.133" style="fill:#B06D48;" width="230.4" height="387.2"/>
<g>
	<rect x="136" y="475.733" style="fill:#91573B;" width="230.4" height="25.6"/>
	<rect x="110.4" y="114.133" style="fill:#91573B;" width="280.533" height="75.733"/>
	<ellipse style="fill:#91573B;" cx="251.2" cy="332.8" rx="52.267" ry="94.933"/>
</g>
<path style="fill:#F6D2BC;" d="M166.933,40.533c-3.2,2.133-4.267,7.467-2.133,10.667c2.133,3.2,6.4,5.333,10.667,3.2l52.267-25.6
	L216,8.533L166.933,40.533z"/>
<circle style="fill:#BE85BA;" cx="227.733" cy="14.933" r="14.933"/>
<path style="fill:#637888;" d="M194.667,114.133v-89.6c0-4.267-3.2-7.467-7.467-7.467c-4.267,0-7.467,3.2-7.467,7.467v88.533h14.933
	V114.133z"/>
<path style="fill:#3A5569;" d="M212.8,114.133c-7.467-5.333-16-8.533-26.667-8.533c-9.6,0-19.2,3.2-26.667,8.533H212.8z"/>
<g>
</g>
<g>
</g>
<g>
</g>
<g>
</g>
<g>
</g>
<g>
</g>
<g>
</g>
<g>
</g>
<g>
</g>
<g>
</g>
<g>
</g>
<g>
</g>
<g>
</g>
<g>
</g>
<g>
</g>
</svg>
