<?xml version="1.0" encoding="iso-8859-1"?>
<!-- Generator: Adobe Illustrator 19.0.0, SVG Export Plug-In . SVG Version: 6.00 Build 0)  -->
<svg version="1.1" id="Layer_1" xmlns="http://www.w3.org/2000/svg" xmlns:xlink="http://www.w3.org/1999/xlink" x="0px" y="0px"
	 viewBox="0 0 501.333 501.333" style="enable-background:new 0 0 501.333 501.333;" xml:space="preserve">
<g>
	<path style="fill:#53C2EF;" d="M139.733,355.733c-10.667-18.133-16-39.467-16-61.867c0-70.4,56.533-128,126.933-128
		S377.6,222.4,377.6,292.8c0,22.4-6.4,43.733-16,61.867h104.533c5.333-20.267,8.533-40.533,8.533-61.867
		c0-123.733-100.267-225.067-225.067-225.067S25.6,169.067,25.6,292.8c0,21.333,3.2,42.667,8.533,61.867h105.6V355.733z"/>
	<rect y="293.867" style="fill:#53C2EF;" width="501.333" height="139.733"/>
</g>
<g>
	<rect x="66.133" y="381.333" style="fill:#637888;" width="20.267" height="52.267"/>
	<rect x="136.533" y="381.333" style="fill:#637888;" width="20.267" height="52.267"/>
	<rect x="205.867" y="381.333" style="fill:#637888;" width="20.267" height="52.267"/>
	<rect x="275.2" y="381.333" style="fill:#637888;" width="20.267" height="52.267"/>
	<rect x="344.533" y="381.333" style="fill:#637888;" width="20.267" height="52.267"/>
	<rect x="414.933" y="381.333" style="fill:#637888;" width="20.267" height="52.267"/>
</g>
<g>
</g>
<g>
</g>
<g>
</g>
<g>
</g>
<g>
</g>
<g>
</g>
<g>
</g>
<g>
</g>
<g>
</g>
<g>
</g>
<g>
</g>
<g>
</g>
<g>
</g>
<g>
</g>
<g>
</g>
</svg>
