<?xml version="1.0" encoding="iso-8859-1"?>
<!-- Generator: Adobe Illustrator 19.0.0, SVG Export Plug-In . SVG Version: 6.00 Build 0)  -->
<svg version="1.1" id="Layer_1" xmlns="http://www.w3.org/2000/svg" xmlns:xlink="http://www.w3.org/1999/xlink" x="0px" y="0px"
	 viewBox="0 0 501.333 501.333" style="enable-background:new 0 0 501.333 501.333;" xml:space="preserve">
<g>
	<path style="fill:#E0E0DF;" d="M101.333,118.933V65.6c0,0,100.267,5.333,149.333,83.2L101.333,118.933z"/>
	<path style="fill:#E0E0DF;" d="M400,118.933V65.6c0,0-100.267,5.333-149.333,83.2L400,118.933z"/>
</g>
<g>
	<polygon style="fill:#FEC656;" points="90.667,280 74.667,305.6 61.867,304.533 49.067,313.067 22.4,272.533 37.333,262.933 
		45.867,232 84.267,190.4 85.333,232 	"/>
	<polygon style="fill:#FEC656;" points="410.667,280 426.667,305.6 439.467,304.533 452.267,313.067 478.933,272.533 464,262.933 
		455.467,232 417.067,190.4 416,232 	"/>
</g>
<path style="fill:#637888;" d="M250.667,435.733c-49.067-39.467-118.4-58.667-176-42.667c0-96,0-190.933,0-286.933
	c57.6-16,130.133,5.333,176,42.667C250.667,243.733,250.667,339.733,250.667,435.733z"/>
<path style="fill:#506673;" d="M250.667,435.733c49.067-39.467,118.4-58.667,176-42.667c0-96,0-190.933,0-286.933
	c-57.6-16-130.133,5.333-176,42.667C250.667,243.733,250.667,339.733,250.667,435.733z"/>
<g>
	<path style="fill:#FEC656;" d="M123.733,221.333c-1.067-4.267-4.267-6.4-7.467-5.333l-38.4,12.8l4.267,14.933l38.4-12.8
		C123.733,229.867,124.8,225.6,123.733,221.333z"/>
	<path style="fill:#FEC656;" d="M136.533,237.333c-1.067-4.267-4.267-6.4-7.467-5.333l-44.8,14.933l4.267,13.867l44.8-14.933
		C136.533,245.867,137.6,241.6,136.533,237.333z"/>
	<path style="fill:#FEC656;" d="M135.467,257.6c-1.067-4.267-4.267-6.4-7.467-5.333l-38.4,12.8L93.867,280l38.4-12.8
		C135.467,266.133,136.533,261.867,135.467,257.6z"/>
	<path style="fill:#FEC656;" d="M134.4,277.867c-1.067-4.267-4.267-6.4-7.467-5.333L96,282.133l4.267,14.933l30.933-9.6
		C134.4,286.4,135.467,282.133,134.4,277.867z"/>
	
		<rect x="48.987" y="241.482" transform="matrix(-0.3053 -0.9523 0.9523 -0.3053 -139.9994 425.6289)" style="fill:#FEC656;" width="72.529" height="44.798"/>
</g>
<polygon style="fill:#F16C6D;" points="0,365.333 0,283.2 22.4,268.267 56.533,320.533 "/>
<rect x="15.386" y="286.392" transform="matrix(-0.5533 -0.833 0.833 -0.5533 -175.1378 487.3955)" style="fill:#E0E0DF;" width="55.467" height="8.533"/>
<g>
	<path style="fill:#FEC656;" d="M377.6,221.333c1.067-4.267,4.267-6.4,7.467-5.333l38.4,12.8l-4.267,14.933l-38.4-12.8
		C377.6,229.867,376.533,225.6,377.6,221.333z"/>
	<path style="fill:#FEC656;" d="M364.8,237.333c1.067-4.267,4.267-6.4,7.467-5.333l44.8,14.933L412.8,260.8L368,245.867
		C364.8,245.867,363.733,241.6,364.8,237.333z"/>
	<path style="fill:#FEC656;" d="M365.867,257.6c1.067-4.267,4.267-6.4,7.467-5.333l38.4,12.8L407.467,280l-38.4-12.8
		C365.867,266.133,364.8,261.867,365.867,257.6z"/>
	<path style="fill:#FEC656;" d="M366.933,277.867c1.067-4.267,4.267-6.4,7.467-5.333l30.933,9.6l-4.267,14.933l-30.933-9.6
		C366.933,286.4,365.867,282.133,366.933,277.867z"/>
	
		<rect x="379.629" y="241.471" transform="matrix(0.3053 -0.9523 0.9523 0.3053 37.6438 579.3409)" style="fill:#FEC656;" width="72.529" height="44.798"/>
</g>
<polygon style="fill:#F16C6D;" points="501.333,365.333 501.333,283.2 478.933,268.267 444.8,320.533 "/>
<rect x="430.869" y="287.293" transform="matrix(0.5533 -0.833 0.833 0.5533 -38.0041 512.2531)" style="fill:#E0E0DF;" width="55.468" height="8.533"/>
<g>
</g>
<g>
</g>
<g>
</g>
<g>
</g>
<g>
</g>
<g>
</g>
<g>
</g>
<g>
</g>
<g>
</g>
<g>
</g>
<g>
</g>
<g>
</g>
<g>
</g>
<g>
</g>
<g>
</g>
</svg>
