<?xml version="1.0" encoding="iso-8859-1"?>
<!-- Generator: Adobe Illustrator 19.0.0, SVG Export Plug-In . SVG Version: 6.00 Build 0)  -->
<svg version="1.1" id="Layer_1" xmlns="http://www.w3.org/2000/svg" xmlns:xlink="http://www.w3.org/1999/xlink" x="0px" y="0px"
	 viewBox="0 0 501.333 501.333" style="enable-background:new 0 0 501.333 501.333;" xml:space="preserve">
<ellipse style="fill:#FEC656;" cx="250.667" cy="101.333" rx="98.133" ry="101.333"/>
<polygon style="fill:#748793;" points="250.667,501.333 12.8,454.4 12.8,181.333 250.667,228.267 "/>
<polygon style="fill:#637888;" points="250.667,501.333 488.533,454.4 488.533,181.333 250.667,228.267 "/>
<g>
	<path style="fill:#FEC656;" d="M90.667,301.867c-1.067-5.333-6.4-8.533-11.733-7.467L3.2,311.467l4.267,19.2L83.2,313.6
		C88.533,312.533,91.733,307.2,90.667,301.867z"/>
	<path style="fill:#FEC656;" d="M94.933,318.933L9.6,338.133l4.267,19.2l85.333-19.2c5.333-1.067,8.533-6.4,7.467-11.733
		C104.533,321.067,100.267,317.867,94.933,318.933z"/>
	<path style="fill:#FEC656;" d="M94.933,347.733l-80,18.133l4.267,19.2l80-18.133c5.333-1.067,8.533-6.4,7.467-11.733
		C105.6,349.867,100.267,346.667,94.933,347.733z"/>
	<path style="fill:#FEC656;" d="M88.533,377.6l-68.267,16l4.267,19.2l68.267-16c5.333-1.067,8.533-6.4,7.467-11.733
		C99.2,379.733,93.867,375.467,88.533,377.6z"/>
	<polygon style="fill:#FEC656;" points="0,417.067 48,406.4 26.667,307.2 0,312.533 	"/>
	<path style="fill:#FEC656;" d="M410.667,301.867c1.067-5.333,6.4-8.533,11.733-7.467l75.733,17.067l-4.267,19.2L418.133,313.6
		C412.8,312.533,409.6,307.2,410.667,301.867z"/>
	<path style="fill:#FEC656;" d="M406.4,318.933l85.333,19.2l-4.267,19.2l-85.333-19.2c-5.333-1.067-8.533-6.4-7.467-11.733
		C396.8,321.067,401.067,317.867,406.4,318.933z"/>
	<path style="fill:#FEC656;" d="M406.4,347.733l80,18.133l-4.267,19.2l-80-18.133c-5.333-1.067-8.533-6.4-7.467-11.733
		C395.733,349.867,401.067,346.667,406.4,347.733z"/>
	<path style="fill:#FEC656;" d="M412.8,377.6l68.267,16l-4.267,19.2l-68.267-16c-5.333-1.067-8.533-6.4-7.467-11.733
		C402.133,379.733,407.467,375.467,412.8,377.6z"/>
	<polygon style="fill:#FEC656;" points="501.333,417.067 453.333,406.4 474.667,307.2 501.333,312.533 	"/>
</g>
<g>
</g>
<g>
</g>
<g>
</g>
<g>
</g>
<g>
</g>
<g>
</g>
<g>
</g>
<g>
</g>
<g>
</g>
<g>
</g>
<g>
</g>
<g>
</g>
<g>
</g>
<g>
</g>
<g>
</g>
</svg>
