<?xml version="1.0" encoding="iso-8859-1"?>
<!-- Generator: Adobe Illustrator 19.0.0, SVG Export Plug-In . SVG Version: 6.00 Build 0)  -->
<svg version="1.1" id="Layer_1" xmlns="http://www.w3.org/2000/svg" xmlns:xlink="http://www.w3.org/1999/xlink" x="0px" y="0px"
	 viewBox="0 0 500.982 500.982" style="enable-background:new 0 0 500.982 500.982;" xml:space="preserve">
<rect x="164.404" y="136.364" transform="matrix(0.7071 -0.7071 0.7071 0.7071 -103.9815 249.9594)" style="fill:#D1D7D3;" width="170.665" height="228.264"/>
<polygon style="fill:#3A5569;" points="37.468,209.963 209.201,38.23 229.468,109.696 108.935,230.23 "/>
<polygon style="fill:#D1D7D3;" points="321.201,438.23 464.135,464.896 437.468,321.963 "/>
<rect x="294.898" y="321.338" transform="matrix(0.7071 -0.7071 0.7071 0.7071 -147.8641 355.0328)" style="fill:#637888;" width="119.466" height="69.333"/>
<g>
	
		<rect x="28.06" y="299.108" transform="matrix(0.7071 -0.7071 0.7071 0.7071 -231.2917 197.6944)" style="fill:#60C3AB;" width="189.865" height="157.865"/>
	
		<rect x="283.057" y="44.009" transform="matrix(0.7071 -0.7071 0.7071 0.7071 23.7781 303.2878)" style="fill:#60C3AB;" width="189.865" height="157.865"/>
</g>
<g>
	
		<rect x="394.686" y="40.608" transform="matrix(0.7071 -0.7071 0.7071 0.7071 50.4781 314.0129)" style="fill:#FAECE1;" width="19.2" height="110.932"/>
	
		<rect x="340.606" y="94.342" transform="matrix(0.7071 -0.7071 0.7071 0.7071 -3.3574 291.511)" style="fill:#FAECE1;" width="19.2" height="110.932"/>
	
		<rect x="139.753" y="295.708" transform="matrix(0.7071 -0.7071 0.7071 0.7071 -204.5731 208.4649)" style="fill:#FAECE1;" width="19.2" height="110.932"/>
	
		<rect x="85.566" y="349.442" transform="matrix(0.7071 -0.7071 0.7071 0.7071 -258.4398 185.8875)" style="fill:#FAECE1;" width="19.2" height="110.932"/>
</g>
<g>
	
		<rect x="260.046" y="132.449" transform="matrix(0.7071 -0.7071 0.7071 0.7071 -78.762 258.2155)" style="fill:#637888;" width="24.533" height="183.465"/>
	
		<rect x="211.52" y="181.185" transform="matrix(0.7071 -0.7071 0.7071 0.7071 -127.4362 238.177)" style="fill:#637888;" width="24.533" height="183.465"/>
</g>
<g>
</g>
<g>
</g>
<g>
</g>
<g>
</g>
<g>
</g>
<g>
</g>
<g>
</g>
<g>
</g>
<g>
</g>
<g>
</g>
<g>
</g>
<g>
</g>
<g>
</g>
<g>
</g>
<g>
</g>
</svg>
