<?xml version="1.0" encoding="iso-8859-1"?>
<!-- Generator: Adobe Illustrator 19.0.0, SVG Export Plug-In . SVG Version: 6.00 Build 0)  -->
<svg version="1.1" id="Layer_1" xmlns="http://www.w3.org/2000/svg" xmlns:xlink="http://www.w3.org/1999/xlink" x="0px" y="0px"
	 viewBox="0 0 501.333 501.333" style="enable-background:new 0 0 501.333 501.333;" xml:space="preserve">
<g>
	<rect y="202.667" style="fill:#3A5569;" width="6.4" height="41.6"/>
	<rect x="23.467" y="202.667" style="fill:#3A5569;" width="6.4" height="41.6"/>
	<rect x="46.933" y="202.667" style="fill:#3A5569;" width="6.4" height="41.6"/>
	<rect x="70.4" y="202.667" style="fill:#3A5569;" width="6.4" height="41.6"/>
	<rect x="94.933" y="202.667" style="fill:#3A5569;" width="6.4" height="41.6"/>
	<rect x="118.4" y="202.667" style="fill:#3A5569;" width="6.4" height="41.6"/>
	<rect x="141.867" y="202.667" style="fill:#3A5569;" width="6.4" height="41.6"/>
	<rect x="353.067" y="202.667" style="fill:#3A5569;" width="6.4" height="41.6"/>
	<rect x="376.533" y="202.667" style="fill:#3A5569;" width="6.4" height="41.6"/>
	<rect x="400" y="202.667" style="fill:#3A5569;" width="6.4" height="41.6"/>
	<rect x="423.467" y="202.667" style="fill:#3A5569;" width="6.4" height="41.6"/>
	<rect x="446.933" y="202.667" style="fill:#3A5569;" width="6.4" height="41.6"/>
	<rect x="471.467" y="202.667" style="fill:#3A5569;" width="6.4" height="41.6"/>
	<rect x="494.933" y="202.667" style="fill:#3A5569;" width="6.4" height="41.6"/>
	<rect y="198.4" style="fill:#3A5569;" width="501.333" height="7.467"/>
</g>
<polygon style="fill:#F7B044;" points="250.667,0 162.133,85.333 162.133,85.333 339.2,85.333 339.2,85.333 "/>
<g>
	<polygon style="fill:#60C3AB;" points="162.133,246.4 339.2,246.4 339.2,85.333 339.2,85.333 162.133,85.333 	"/>
	<rect y="238.933" style="fill:#60C3AB;" width="501.333" height="262.4"/>
</g>
<rect y="466.133" style="fill:#3A5569;" width="501.333" height="35.2"/>
<polygon style="fill:#637888;" points="354.133,315.733 374.4,302.933 250.667,180.267 126.933,302.933 147.2,315.733 "/>
<polygon style="fill:#A2D8CA;" points="353.067,315.733 250.667,216.533 148.267,315.733 148.267,315.733 148.267,501.333 
	353.067,501.333 "/>
<rect x="208" y="406.4" style="fill:#3A5569;" width="84.267" height="94.933"/>
<g>
	<rect x="49.067" y="278.4" style="fill:#FAECE1;" width="55.467" height="56.533"/>
	<rect x="49.067" y="379.733" style="fill:#FAECE1;" width="55.467" height="56.533"/>
	<rect x="396.8" y="278.4" style="fill:#FAECE1;" width="55.467" height="56.533"/>
	<rect x="188.8" y="109.867" style="fill:#FAECE1;" width="43.733" height="52.267"/>
	<rect x="268.8" y="109.867" style="fill:#FAECE1;" width="43.733" height="52.267"/>
	<rect x="396.8" y="379.733" style="fill:#FAECE1;" width="55.467" height="56.533"/>
	<rect x="222.933" y="307.2" style="fill:#FAECE1;" width="55.467" height="56.533"/>
</g>
<g>
</g>
<g>
</g>
<g>
</g>
<g>
</g>
<g>
</g>
<g>
</g>
<g>
</g>
<g>
</g>
<g>
</g>
<g>
</g>
<g>
</g>
<g>
</g>
<g>
</g>
<g>
</g>
<g>
</g>
</svg>
