<?xml version="1.0" encoding="iso-8859-1"?>
<!-- Generator: Adobe Illustrator 19.0.0, SVG Export Plug-In . SVG Version: 6.00 Build 0)  -->
<svg version="1.1" id="Layer_1" xmlns="http://www.w3.org/2000/svg" xmlns:xlink="http://www.w3.org/1999/xlink" x="0px" y="0px"
	 viewBox="0 0 501.333 501.333" style="enable-background:new 0 0 501.333 501.333;" xml:space="preserve">
<path style="fill:#E0E0DF;" d="M100.8,5.733l-96,96c-6.4,6.4-6.4,17.067,0,23.467l372.267,371.2c6.4,6.4,17.067,6.4,23.467,0l96-96
	c6.4-6.4,6.4-17.067,0-23.467l-371.2-371.2C118.933-1.733,107.2-1.733,100.8,5.733z"/>
<g>
	
		<rect x="13.201" y="87.956" transform="matrix(-0.7071 0.7071 -0.7071 -0.7071 150.9445 122.9893)" style="fill:#637888;" width="73.599" height="9.6"/>
	
		<rect x="43.694" y="126.286" transform="matrix(-0.7071 0.7071 -0.7071 -0.7071 200.0574 179.3051)" style="fill:#637888;" width="38.4" height="9.6"/>
	
		<rect x="65.103" y="140.028" transform="matrix(-0.7071 0.7071 -0.7071 -0.7071 276.368 175.1803)" style="fill:#637888;" width="73.599" height="9.6"/>
	
		<rect x="94.842" y="177.582" transform="matrix(-0.7071 0.7071 -0.7071 -0.7071 323.6449 230.7055)" style="fill:#637888;" width="38.4" height="9.6"/>
	
		<rect x="116.252" y="191.345" transform="matrix(-0.7071 0.7071 -0.7071 -0.7071 399.9705 226.6171)" style="fill:#637888;" width="73.599" height="9.6"/>
	
		<rect x="145.99" y="228.921" transform="matrix(-0.7071 0.7071 -0.7071 -0.7071 447.2625 282.1787)" style="fill:#637888;" width="38.4" height="9.6"/>
	
		<rect x="167.4" y="242.663" transform="matrix(-0.7071 0.7071 -0.7071 -0.7071 523.5731 278.054)" style="fill:#637888;" width="73.599" height="9.6"/>
	
		<rect x="197.925" y="279.484" transform="matrix(-0.7071 0.7071 -0.7071 -0.7071 571.674 331.7721)" style="fill:#637888;" width="38.4" height="9.6"/>
	
		<rect x="218.559" y="293.98" transform="matrix(-0.7071 0.7071 -0.7071 -0.7071 647.1938 329.4832)" style="fill:#637888;" width="73.599" height="9.6"/>
	
		<rect x="248.999" y="330.801" transform="matrix(-0.7071 0.7071 -0.7071 -0.7071 695.149 383.2617)" style="fill:#637888;" width="38.4" height="9.6"/>
	
		<rect x="269.707" y="345.297" transform="matrix(-0.7071 0.7071 -0.7071 -0.7071 770.7964 380.92)" style="fill:#637888;" width="73.599" height="9.6"/>
	
		<rect x="300.179" y="382.161" transform="matrix(-0.7071 0.7071 -0.7071 -0.7071 818.8364 434.7487)" style="fill:#637888;" width="38.4" height="9.6"/>
	
		<rect x="320.856" y="396.657" transform="matrix(-0.7071 0.7071 -0.7071 -0.7071 894.4291 432.4297)" style="fill:#637888;" width="73.599" height="9.6"/>
	
		<rect x="351.359" y="433.468" transform="matrix(-0.7071 0.7071 -0.7071 -0.7071 942.4861 486.1447)" style="fill:#637888;" width="38.4" height="9.6"/>
	
		<rect x="372.769" y="447.21" transform="matrix(-0.7071 0.7071 -0.7071 -0.7071 1018.7967 482.0198)" style="fill:#637888;" width="73.599" height="9.6"/>
</g>
<path style="fill:#FAECE1;" d="M65.6,480.4l110.933-39.467l9.6-27.733l-96-96l-28.8,8.533L21.867,436.667
	C32.533,437.733,43.2,442,51.733,450.533S64.533,469.733,65.6,480.4z"/>
<path style="fill:#637888;" d="M24,495.333L65.6,480.4c-1.067-10.667-5.333-21.333-13.867-29.867s-19.2-12.8-29.867-13.867
	l-14.933,41.6C2.667,491.067,11.2,499.6,24,495.333z"/>
<path style="fill:#E14A4A;" d="M493.333,123.067c9.6-9.6,9.6-25.6,0-35.2L414.4,8.933c-9.6-9.6-25.6-9.6-35.2,0L339.733,48.4
	l114.133,114.133L493.333,123.067z"/>
<rect x="378.007" y="32.043" transform="matrix(-0.7071 0.7071 -0.7071 -0.7071 744.398 -82.1218)" style="fill:#F3B74B;" width="22.4" height="162.132"/>
<path style="fill:#F16D6E;" d="M84.8,336.4c7.467,7.467,10.667,17.067,9.6,26.667c12.8-5.333,27.733-3.2,38.4,7.467
	s12.8,25.6,7.467,38.4c9.6-1.067,19.2,2.133,26.667,9.6c6.4,6.4,9.6,14.933,9.6,23.467l262.4-262.4l-115.2-115.2l-262.4,261.333
	C69.867,326.8,78.4,330,84.8,336.4z"/>
<g>
</g>
<g>
</g>
<g>
</g>
<g>
</g>
<g>
</g>
<g>
</g>
<g>
</g>
<g>
</g>
<g>
</g>
<g>
</g>
<g>
</g>
<g>
</g>
<g>
</g>
<g>
</g>
<g>
</g>
</svg>
