<?xml version="1.0" encoding="iso-8859-1"?>
<!-- Generator: Adobe Illustrator 19.0.0, SVG Export Plug-In . SVG Version: 6.00 Build 0)  -->
<svg version="1.1" id="Layer_1" xmlns="http://www.w3.org/2000/svg" xmlns:xlink="http://www.w3.org/1999/xlink" x="0px" y="0px"
	 viewBox="0 0 501.333 501.333" style="enable-background:new 0 0 501.333 501.333;" xml:space="preserve">
<g>
	<path style="fill:#3A5569;" d="M91.733,397.733H49.067c-7.467,0-12.8,5.333-12.8,10.667v82.133c0,6.4,6.4,10.667,12.8,10.667H92.8
		c7.467,0,12.8-5.333,12.8-10.667V408.4C105.6,402,99.2,397.733,91.733,397.733z"/>
	<path style="fill:#3A5569;" d="M452.267,397.733h-43.733c-7.467,0-12.8,5.333-12.8,10.667v82.133c0,6.4,6.4,10.667,12.8,10.667
		h43.733c7.467,0,12.8-5.333,12.8-10.667V408.4C466.133,402,459.733,397.733,452.267,397.733z"/>
</g>
<path style="fill:#FEC656;" d="M482.133,367.867c-154.667,0-308.267,0-462.933,0c0-97.067,0-195.2,0-292.267
	c0-20.267,18.133-42.667,40.533-49.067c123.733-35.2,257.067-35.2,380.8,0c22.4,6.4,40.533,29.867,40.533,50.133
	C482.133,173.733,482.133,270.8,482.133,367.867z"/>
<path style="fill:#E6D8CC;" d="M487.467,367.867h-473.6C6.4,367.867,0,373.2,0,380.667V424.4c0,6.4,6.4,12.8,13.867,12.8h473.6
	c7.467,0,13.867-5.333,13.867-12.8v-43.733C501.333,373.2,494.933,367.867,487.467,367.867z"/>
<g>
	<path style="fill:#3A5569;" d="M220.8,107.6H65.067c-8.533,0-16,7.467-16,17.067V197.2c0,9.6,7.467,17.067,16,17.067H220.8
		c8.533,0,16-7.467,16-17.067v-72.533C236.8,115.067,229.333,107.6,220.8,107.6z"/>
	<path style="fill:#3A5569;" d="M436.267,107.6H280.533c-8.533,0-16,7.467-16,17.067V197.2c0,9.6,7.467,17.067,16,17.067h155.733
		c8.533,0,16-7.467,16-17.067v-72.533C452.267,115.067,444.8,107.6,436.267,107.6z"/>
</g>
<path style="fill:#EF9F2C;" d="M322.133,245.2H179.2c-20.267,0-36.267,14.933-36.267,32v90.667h216.533V277.2
	C358.4,259.067,342.4,245.2,322.133,245.2z"/>
<g>
	<rect x="171.733" y="271.867" style="fill:#FEC656;" width="157.867" height="9.6"/>
	<rect x="171.733" y="301.733" style="fill:#FEC656;" width="157.867" height="9.6"/>
	<rect x="171.733" y="331.6" style="fill:#FEC656;" width="157.867" height="9.6"/>
</g>
<path style="fill:#EF9F2C;" d="M338.133,25.467c-57.6-8.533-116.267-8.533-173.867,0C152.533,27.6,144,42.533,144,59.6
	s9.6,29.867,21.333,30.933c57.6,0,114.133,0,171.733,0c11.733,0,21.333-13.867,21.333-30.933
	C358.4,43.6,349.867,27.6,338.133,25.467z"/>
<path style="fill:#3A5569;" d="M123.733,36.133c-21.333,4.267-42.667,9.6-64,17.067C54.4,54.267,51.2,58.533,51.2,63.867
	s0,11.733,0,17.067c0,4.267,4.267,8.533,8.533,8.533c21.333,0,43.733-1.067,65.067-1.067c4.267,0,8.533-6.4,8.533-13.867
	c0-8.533,0-18.133-1.067-26.667C132.267,40.4,128,35.067,123.733,36.133z"/>
<path style="fill:#FEC656;" d="M122.667,61.733c0,9.6-5.333,18.133-12.8,18.133C102.4,79.867,96,73.467,96,64.933
	s5.333-17.067,12.8-19.2C116.267,44.667,122.667,51.067,122.667,61.733z"/>
<path style="fill:#F05453;" d="M86.4,66c0,8.533-5.333,16-12.8,16c-7.467,0-12.8-5.333-13.867-11.733c0-6.4,5.333-13.867,12.8-16
	C81.067,52.133,86.4,57.467,86.4,66z"/>
<path style="fill:#3A5569;" d="M377.6,36.133c21.333,4.267,42.667,9.6,64,17.067c4.267,1.067,8.533,6.4,8.533,10.667
	c0,5.333,0,11.733,0,17.067c0,4.267-4.267,8.533-8.533,8.533c-21.333,0-43.733-1.067-65.067-1.067C372.267,88.4,368,82,368,74.533
	c0-8.533,0-18.133,1.067-26.667C369.067,40.4,373.333,35.067,377.6,36.133z"/>
<path style="fill:#FEC656;" d="M378.667,61.733c0,9.6,5.333,18.133,12.8,18.133s13.867-6.4,13.867-14.933s-5.333-17.067-12.8-19.2
	C385.067,44.667,378.667,51.067,378.667,61.733z"/>
<path style="fill:#F05453;" d="M414.933,66c0,8.533,5.333,16,12.8,16s12.8-5.333,13.867-11.733c0-6.4-5.333-13.867-12.8-16
	C420.267,52.133,414.933,57.467,414.933,66z"/>
<g>
	<path style="fill:#EF9F2C;" d="M102.4,287.867h-48c-8.533,0-14.933,6.4-14.933,13.867v41.6c0,7.467,6.4,13.867,14.933,13.867h48
		c8.533,0,14.933-6.4,14.933-13.867v-41.6C117.333,294.267,109.867,287.867,102.4,287.867z"/>
	<path style="fill:#EF9F2C;" d="M446.933,287.867h-48c-8.533,0-14.933,6.4-14.933,13.867v41.6c0,7.467,6.4,13.867,14.933,13.867h48
		c8.533,0,14.933-6.4,14.933-13.867v-41.6C461.867,294.267,455.467,287.867,446.933,287.867z"/>
</g>
<g>
	<ellipse style="fill:#FFFFFF;" cx="77.867" cy="323.067" rx="26.667" ry="23.467"/>
	<ellipse style="fill:#FFFFFF;" cx="423.467" cy="323.067" rx="26.667" ry="23.467"/>
</g>
<g>
</g>
<g>
</g>
<g>
</g>
<g>
</g>
<g>
</g>
<g>
</g>
<g>
</g>
<g>
</g>
<g>
</g>
<g>
</g>
<g>
</g>
<g>
</g>
<g>
</g>
<g>
</g>
<g>
</g>
</svg>
