<?xml version="1.0" encoding="iso-8859-1"?>
<!-- Generator: Adobe Illustrator 19.0.0, SVG Export Plug-In . SVG Version: 6.00 Build 0)  -->
<svg version="1.1" id="Layer_1" xmlns="http://www.w3.org/2000/svg" xmlns:xlink="http://www.w3.org/1999/xlink" x="0px" y="0px"
	 viewBox="0 0 501.768 501.768" style="enable-background:new 0 0 501.768 501.768;" xml:space="preserve">
<path style="fill:#C6CECE;" d="M280.805,195.844c18.133,5.333,28.8,23.467,27.733,41.6L384.271,4.911
	c-68.267-22.4-94.933,45.867-105.6,76.8c-7.467,22.4-25.6,75.733-43.733,131.2C244.538,197.978,262.671,189.444,280.805,195.844z"/>
<g>
	<path style="fill:#EF9F2C;" d="M280.805,195.844c-18.133-5.333-37.333,2.133-45.867,17.067c-27.733,84.267-56.533,176-56.533,176
		l94.933-43.733l35.2-108.8C309.605,219.311,298.938,201.178,280.805,195.844z"/>
	<path style="fill:#EF9F2C;" d="M298.938,319.578c-49.067-16-102.4,10.667-117.333,59.733
		c-14.933,49.067,10.667,102.4,59.733,117.333c49.067,16,102.4-10.667,117.333-59.733
		C374.671,387.844,348.005,335.578,298.938,319.578z M252.005,462.511c-29.867-9.6-46.933-41.6-37.333-72.533
		c9.6-29.867,41.6-46.933,72.533-37.333c29.867,9.6,46.933,41.6,37.333,72.533C313.871,456.111,281.871,473.178,252.005,462.511z"/>
</g>
<path style="fill:#E3E8E8;" d="M306.405,221.444c-5.333-18.133-23.467-28.8-41.6-27.733l232.533-75.733
	c22.4,68.267-45.867,94.933-76.8,105.6c-22.4,7.467-75.733,25.6-131.2,43.733C304.271,257.711,312.805,239.578,306.405,221.444z"/>
<g>
	<path style="fill:#F7B044;" d="M306.405,221.444c5.333,18.133-2.133,37.333-17.067,45.867c-84.267,27.733-176,56.533-176,56.533
		l43.733-94.933l108.8-35.2C282.938,192.644,301.071,203.311,306.405,221.444z"/>
	<path style="fill:#F7B044;" d="M65.338,143.578c-49.067,16-76.8,68.267-60.8,118.4s68.267,75.733,117.333,59.733
		c49.067-16,75.733-68.267,59.733-117.333C166.671,154.244,114.405,127.578,65.338,143.578z M76.005,177.711
		c29.867-9.6,61.867,6.4,72.533,37.333c9.6,29.867-6.4,61.867-37.333,72.533c-29.867,9.6-61.867-6.4-72.533-37.333
		C29.071,220.378,46.138,188.378,76.005,177.711z"/>
</g>
<circle style="fill:#4D4E5B;" cx="269.071" cy="232.111" r="11.733"/>
<g>
</g>
<g>
</g>
<g>
</g>
<g>
</g>
<g>
</g>
<g>
</g>
<g>
</g>
<g>
</g>
<g>
</g>
<g>
</g>
<g>
</g>
<g>
</g>
<g>
</g>
<g>
</g>
<g>
</g>
</svg>
