<?xml version="1.0" encoding="iso-8859-1"?>
<!-- Generator: Adobe Illustrator 19.0.0, SVG Export Plug-In . SVG Version: 6.00 Build 0)  -->
<svg version="1.1" id="Layer_1" xmlns="http://www.w3.org/2000/svg" xmlns:xlink="http://www.w3.org/1999/xlink" x="0px" y="0px"
	 viewBox="0 0 501.333 501.333" style="enable-background:new 0 0 501.333 501.333;" xml:space="preserve">
<path style="fill:#FEC656;" d="M0,0v501.333h501.333L0,0z M88.533,214.4l198.4,198.4h-198.4V214.4z"/>
<path style="fill:#637888;" d="M130.133,56.533l-3.2-21.333c-1.067-8.533,6.4-16,14.933-14.933l21.333,3.2L130.133,56.533z"/>
<path style="fill:#FEC656;" d="M184.533,53.333c-6.4-1.067-13.867,0-18.133,5.333C161.067,64,160,70.4,161.067,76.8
	c-6.4-1.067-13.867,0-18.133,5.333c-3.2,3.2-5.333,7.467-5.333,11.733l-5.333-37.333l33.067-33.067l38.4,5.333
	c-4.267,1.067-8.533,2.133-11.733,5.333C184.533,39.467,182.4,46.933,184.533,53.333z"/>
<path style="fill:#4D4E5B;" d="M485.333,348.8l-29.867,29.867c-9.6,9.6-25.6,9.6-36.267,0l66.133-65.067
	C494.933,323.2,494.933,338.133,485.333,348.8z"/>
<g>
	<path style="fill:#F16D6E;" d="M485.333,312.533L464,333.867L184.533,53.333c-1.067-6.4,0-13.867,5.333-18.133
		c3.2-3.2,7.467-5.333,11.733-5.333h1.067L485.333,312.533L485.333,312.533z"/>
	<path style="fill:#F16D6E;" d="M420.267,378.667C420.267,377.6,419.2,377.6,420.267,378.667L136.533,94.933v-1.067
		c1.067-4.267,2.133-8.533,5.333-11.733C147.2,76.8,153.6,75.733,160,76.8l280.533,280.533L420.267,378.667z"/>
	<path style="fill:#F16D6E;" d="M440.533,357.333L160,76.8c-1.067-6.4,0-13.867,5.333-18.133c5.333-5.333,11.733-6.4,18.133-5.333
		L464,333.867L440.533,357.333z"/>
</g>
<g>
	<rect x="12.8" y="472.533" style="fill:#4D4E5B;" width="3.2" height="23.467"/>
	<rect x="25.6" y="484.267" style="fill:#4D4E5B;" width="3.2" height="11.733"/>
	<rect x="38.4" y="472.533" style="fill:#4D4E5B;" width="3.2" height="23.467"/>
	<rect x="51.2" y="484.267" style="fill:#4D4E5B;" width="3.2" height="11.733"/>
	<rect x="64" y="472.533" style="fill:#4D4E5B;" width="3.2" height="23.467"/>
	<rect x="76.8" y="484.267" style="fill:#4D4E5B;" width="3.2" height="11.733"/>
	<rect x="89.6" y="472.533" style="fill:#4D4E5B;" width="3.2" height="23.467"/>
	<rect x="101.333" y="484.267" style="fill:#4D4E5B;" width="3.2" height="11.733"/>
	<rect x="114.133" y="472.533" style="fill:#4D4E5B;" width="3.2" height="23.467"/>
	<rect x="126.933" y="484.267" style="fill:#4D4E5B;" width="3.2" height="11.733"/>
	<rect x="139.733" y="472.533" style="fill:#4D4E5B;" width="3.2" height="23.467"/>
	<rect x="152.533" y="484.267" style="fill:#4D4E5B;" width="3.2" height="11.733"/>
	<rect x="165.333" y="472.533" style="fill:#4D4E5B;" width="3.2" height="23.467"/>
	<rect x="178.133" y="484.267" style="fill:#4D4E5B;" width="3.2" height="11.733"/>
	<rect x="190.933" y="472.533" style="fill:#4D4E5B;" width="3.2" height="23.467"/>
	<rect x="202.667" y="484.267" style="fill:#4D4E5B;" width="3.2" height="11.733"/>
	<rect x="215.467" y="472.533" style="fill:#4D4E5B;" width="3.2" height="23.467"/>
	<rect x="228.267" y="484.267" style="fill:#4D4E5B;" width="3.2" height="11.733"/>
	<rect x="241.067" y="472.533" style="fill:#4D4E5B;" width="3.2" height="23.467"/>
	<rect x="253.867" y="484.267" style="fill:#4D4E5B;" width="3.2" height="11.733"/>
	<rect x="266.667" y="472.533" style="fill:#4D4E5B;" width="3.2" height="23.467"/>
	<rect x="279.467" y="484.267" style="fill:#4D4E5B;" width="3.2" height="11.733"/>
	<rect x="292.267" y="472.533" style="fill:#4D4E5B;" width="3.2" height="23.467"/>
	<rect x="304" y="484.267" style="fill:#4D4E5B;" width="3.2" height="11.733"/>
	<rect x="316.8" y="472.533" style="fill:#4D4E5B;" width="3.2" height="23.467"/>
	<rect x="329.6" y="484.267" style="fill:#4D4E5B;" width="3.2" height="11.733"/>
	<rect x="342.4" y="472.533" style="fill:#4D4E5B;" width="3.2" height="23.467"/>
	<rect x="355.2" y="484.267" style="fill:#4D4E5B;" width="3.2" height="11.733"/>
	<rect x="368" y="472.533" style="fill:#4D4E5B;" width="3.2" height="23.467"/>
	<rect x="380.8" y="484.267" style="fill:#4D4E5B;" width="3.2" height="11.733"/>
	<rect x="393.6" y="472.533" style="fill:#4D4E5B;" width="3.2" height="23.467"/>
	<rect x="405.333" y="484.267" style="fill:#4D4E5B;" width="3.2" height="11.733"/>
	<rect x="418.133" y="472.533" style="fill:#4D4E5B;" width="3.2" height="23.467"/>
	<rect x="430.933" y="484.267" style="fill:#4D4E5B;" width="3.2" height="11.733"/>
	<rect x="443.733" y="472.533" style="fill:#4D4E5B;" width="3.2" height="23.467"/>
	<rect x="456.533" y="484.267" style="fill:#4D4E5B;" width="3.2" height="11.733"/>
</g>
<g>
</g>
<g>
</g>
<g>
</g>
<g>
</g>
<g>
</g>
<g>
</g>
<g>
</g>
<g>
</g>
<g>
</g>
<g>
</g>
<g>
</g>
<g>
</g>
<g>
</g>
<g>
</g>
<g>
</g>
</svg>
