<?xml version="1.0" encoding="iso-8859-1"?>
<!-- Generator: Adobe Illustrator 19.0.0, SVG Export Plug-In . SVG Version: 6.00 Build 0)  -->
<svg version="1.1" id="Layer_1" xmlns="http://www.w3.org/2000/svg" xmlns:xlink="http://www.w3.org/1999/xlink" x="0px" y="0px"
	 viewBox="0 0 501.567 501.567" style="enable-background:new 0 0 501.567 501.567;" xml:space="preserve">
<path style="fill:#F16D6E;" d="M261.45,479.156c65.067-80,136.533-152.533,217.6-217.6c24.533-19.2,30.933-59.733,9.6-88.533
	c-45.867-60.8-99.2-114.133-160-160c-28.8-21.333-68.267-14.933-88.533,9.6c-65.067,81.067-136.533,152.533-217.6,217.6
	c-24.533,19.2-30.933,59.733-9.6,88.533c10.667,13.867,22.4,27.733,33.067,41.6L332.917,83.422l85.333,85.333L131.317,454.622
	c13.867,11.733,26.667,22.4,41.6,33.067C201.717,510.089,242.25,503.689,261.45,479.156z"/>
<path style="fill:#E14A4A;" d="M332.917,83.422L47.05,370.355c26.667,30.933,54.4,58.667,85.333,85.333L418.25,169.822
	L332.917,83.422z"/>
<rect x="195.059" y="81.35" transform="matrix(-0.7071 -0.7071 0.7071 -0.7071 221.2753 608.4844)" style="fill:#E0E0DF;" width="83.199" height="354.13"/>
<circle style="fill:#637888;" cx="236.917" cy="258.355" r="25.6"/>
<g>
</g>
<g>
</g>
<g>
</g>
<g>
</g>
<g>
</g>
<g>
</g>
<g>
</g>
<g>
</g>
<g>
</g>
<g>
</g>
<g>
</g>
<g>
</g>
<g>
</g>
<g>
</g>
<g>
</g>
</svg>
