<?xml version="1.0" encoding="iso-8859-1"?>
<!-- Generator: Adobe Illustrator 19.0.0, SVG Export Plug-In . SVG Version: 6.00 Build 0)  -->
<svg version="1.1" id="Layer_1" xmlns="http://www.w3.org/2000/svg" xmlns:xlink="http://www.w3.org/1999/xlink" x="0px" y="0px"
	 viewBox="0 0 501.502 501.502" style="enable-background:new 0 0 501.502 501.502;" xml:space="preserve">
<g>
	<path style="fill:#2FC0E9;" d="M319.091,194.579c-14.933-5.333-26.667,3.2-27.733,3.2c-2.133,2.133-3.2,5.333-1.067,8.533
		c2.133,2.133,5.333,3.2,8.533,1.067c0,0,6.4-4.267,14.933-2.133l7.467-9.6C320.158,194.579,319.091,194.579,319.091,194.579z"/>
	<path style="fill:#2FC0E9;" d="M356.425,204.179L356.425,204.179l-2.133,11.733c24.533,6.4,25.6,39.467,25.6,40.533
		c0,3.2,2.133,6.4,6.4,6.4c1.067,0,2.133,0,2.133,0c2.133-1.067,3.2-3.2,3.2-5.333C391.625,255.379,391.625,211.646,356.425,204.179
		z"/>
	<path style="fill:#2FC0E9;" d="M233.758,148.713c-12.8-8.533-26.667-3.2-26.667-3.2c-3.2,1.067-4.267,4.267-3.2,7.467
		c1.067,3.2,4.267,4.267,7.467,3.2c0,0,7.467-2.133,14.933,1.067l9.6-7.467C235.891,149.779,234.825,149.779,233.758,148.713z"/>
	<path style="fill:#2FC0E9;" d="M267.891,168.979C267.891,168.979,267.891,167.913,267.891,168.979l-5.333,10.667
		c22.4,11.733,13.867,44.8,13.867,45.867c-1.067,3.2,1.067,6.4,4.267,7.467c1.067,0,2.133,0,2.133,0
		c2.133,0,4.267-2.133,5.333-4.267C288.158,226.579,299.891,184.979,267.891,168.979z"/>
</g>
<path style="fill:#E0E0DF;" d="M19.358,167.913c0,0,6.4-16,34.133,0s50.133,10.667,64,0s39.467-34.133,50.133-28.8
	c10.667,5.333,25.6,70.4,25.6,70.4l-117.333,54.4l-57.6-41.6v-54.4H19.358z"/>
<path style="fill:#3A5569;" d="M0.158,289.513c0,0-3.2-87.467,19.2-121.6c0,0,26.667,33.067,61.867,33.067s68.267-51.2,68.267-51.2
	s14.933-23.467,59.733,0s92.8,62.933,174.933,83.2s70.4-2.133,100.267,30.933v46.933l-302.933,34.133l-169.6-14.933L0.158,289.513z"
	/>
<g>
	<path style="fill:#E0E0DF;" d="M0.158,289.513v49.067c0,13.867,10.667,24.533,24.533,24.533h329.6c0,0,96,4.267,147.2-62.933
		c0,0,1.067-28.8-18.133-37.333c0,0-45.867,55.467-129.067,55.467s-318.933,0-318.933,0S0.158,315.113,0.158,289.513z"/>
	<circle style="fill:#E0E0DF;" cx="207.091" cy="189.246" r="12.8"/>
	<circle style="fill:#E0E0DF;" cx="250.825" cy="220.179" r="12.8"/>
	<circle style="fill:#E0E0DF;" cx="302.025" cy="241.513" r="12.8"/>
	<circle style="fill:#E0E0DF;" cx="353.225" cy="257.513" r="12.8"/>
</g>
<g>
	<path style="fill:#2FC0E9;" d="M235.891,150.846l-9.6,7.467c0,0,1.067,0,1.067,1.067c7.467,5.333,17.067,20.267,17.067,60.8
		c0,3.2,3.2,6.4,6.4,6.4s6.4-3.2,6.4-6.4C257.225,184.979,249.758,161.513,235.891,150.846z"/>
	<path style="fill:#2FC0E9;" d="M202.825,186.046c-2.133,2.133-2.133,6.4,0,8.533c2.133,2.133,6.4,2.133,8.533,0
		c0,0,28.8-27.733,52.267-16l0,0l4.267-10.667C236.958,152.979,203.891,184.979,202.825,186.046z"/>
	<path style="fill:#2FC0E9;" d="M321.225,194.579l-7.467,9.6c1.067,0,1.067,0,2.133,0c8.533,3.2,22.4,14.933,33.067,54.4
		c1.067,3.2,4.267,5.333,7.467,4.267c3.2-1.067,5.333-4.267,4.267-7.467C350.025,222.313,337.225,202.046,321.225,194.579z"/>
	<path style="fill:#2FC0E9;" d="M297.758,238.313c-2.133,3.2-1.067,6.4,2.133,8.533s6.4,1.067,8.533-2.133
		c0,0,20.267-34.133,45.867-28.8l0,0l1.067-11.733C322.291,196.713,298.825,237.246,297.758,238.313z"/>
</g>
<g>
</g>
<g>
</g>
<g>
</g>
<g>
</g>
<g>
</g>
<g>
</g>
<g>
</g>
<g>
</g>
<g>
</g>
<g>
</g>
<g>
</g>
<g>
</g>
<g>
</g>
<g>
</g>
<g>
</g>
</svg>
