<?xml version="1.0" encoding="iso-8859-1"?>
<!-- Generator: Adobe Illustrator 19.0.0, SVG Export Plug-In . SVG Version: 6.00 Build 0)  -->
<svg version="1.1" id="Layer_1" xmlns="http://www.w3.org/2000/svg" xmlns:xlink="http://www.w3.org/1999/xlink" x="0px" y="0px"
	 viewBox="0 0 501.333 501.333" style="enable-background:new 0 0 501.333 501.333;" xml:space="preserve">
<g>
	<path style="fill:#C8CECE;" d="M406.4,134.36l-2.133-10.667c21.333-5.333,37.333-4.267,37.333-4.267v10.667
		C440.533,131.16,423.467,131.16,406.4,134.36z"/>
	<path style="fill:#C8CECE;" d="M285.867,103.426c-2.133,0-4.267-1.067-6.4-1.067V91.693c2.133,0,5.333,0,7.467,1.067
		L285.867,103.426z"/>
	<path style="fill:#C8CECE;" d="M304,255.96l-2.133-10.667c25.6-4.267,49.067-7.467,67.2-7.467l1.067,10.667
		C370.133,248.493,334.933,251.693,304,255.96z"/>
</g>
<path style="fill:#E0E0DF;" d="M308.267,8.493c1.067,0,3.2-1.067,4.267-1.067h1.067C312.533,8.493,310.4,8.493,308.267,8.493z"/>
<g>
	<path style="fill:#C8CECE;" d="M253.867,262.36c0,0-2.133-5.333-6.4-13.867l9.6-5.333c3.2,6.4,5.333,10.667,7.467,13.867
		L253.867,262.36z"/>
	<path style="fill:#C8CECE;" d="M407.467,301.827l-5.333-6.4c-3.2-5.333-7.467-11.733-11.733-18.133l8.533-6.4
		c4.267,5.333,8.533,11.733,12.8,17.067l2.133,3.2L407.467,301.827z"/>
	<path style="fill:#C8CECE;" d="M116.267,185.56l-4.267-9.6h1.067c1.067,0,2.133-1.067,3.2-1.067l3.2,9.6L116.267,185.56z"/>
	<path style="fill:#C8CECE;" d="M107.733,194.093l-8.533-6.4c4.267-5.333,7.467-8.533,10.667-10.667l6.4,8.533
		C117.333,184.493,113.067,187.693,107.733,194.093z"/>
</g>
<path style="fill:#AFBABA;" d="M2.133,279.427C0,262.36,0,244.227,2.133,227.16c2.133,12.8,5.333,24.533,10.667,34.133
	L2.133,279.427z"/>
<path style="fill:#C8CECE;" d="M501.333,250.627c0,9.6,0,19.2-2.133,28.8c-1.067,6.4-2.133,12.8-3.2,20.267
	c0-1.067-1.067-2.133-1.067-2.133L501.333,250.627z"/>
<g>
	<path style="fill:#637888;" d="M421.333,314.626c0,0,27.733,0,52.267-6.4v27.733l6.4,18.133
		c-17.067,36.267-41.6,68.267-72.533,92.8l-27.733-25.6C379.733,421.293,419.2,358.36,421.333,314.626z"/>
	<path style="fill:#637888;" d="M407.467,291.16c6.4,8.533,10.667,17.067,13.867,23.467
		C421.333,314.626,414.933,303.96,407.467,291.16L407.467,291.16z"/>
	<path style="fill:#637888;" d="M473.6,307.16c8.533-2.133,16-5.333,22.4-10.667c0,0,0,1.067,1.067,2.133
		c-4.267,19.2-9.6,37.333-17.067,54.4l-6.4-18.133V307.16z"/>
</g>
<g>
	<path style="fill:#C8CECE;" d="M277.333,438.36c0,0,56.533,0,94.933-13.867l33.067,23.467c-48,37.333-107.733,57.6-171.733,52.267
		l-11.733-10.667C243.2,484.227,277.333,438.36,277.333,438.36z"/>
	<path style="fill:#C8CECE;" d="M379.733,421.293l27.733,25.6c-1.067,0-1.067,1.067-2.133,1.067l-33.067-23.467
		C374.4,423.427,376.533,422.36,379.733,421.293z"/>
</g>
<g>
	<path style="fill:#E0E0DF;" d="M194.133,486.36v8.533c-41.6-9.6-78.933-28.8-109.867-56.533l25.6-5.333
		C118.4,450.093,163.2,476.76,194.133,486.36z"/>
	<path style="fill:#E0E0DF;" d="M195.2,494.893v-8.533c11.733,3.2,21.333,5.333,26.667,4.267l11.733,10.667
		c-4.267,0-7.467-1.067-11.733-1.067C212.267,498.093,203.733,497.026,195.2,494.893z"/>
</g>
<path style="fill:#E7E7E7;" d="M153.6,39.426c-32,13.867-67.2,71.467-67.2,71.467l0,0c0,0,0,0,0-1.067l0,0v-1.067l0,0
	c0,0,0,0,0-1.067l0,0c0,0,0,0,0,1.067l0,0v1.067l0,0c0,0,0,0,0,1.067l0,0c0,0-34.133,16-61.867,30.933
	C51.2,85.293,99.2,41.56,155.733,18.093C154.667,26.627,153.6,34.093,153.6,39.426z"/>
<path style="fill:#C8CECE;" d="M67.2,275.16c0,0,8.533,46.933,42.667,82.133c-9.6,33.067,0,77.867,0,77.867l-25.6,5.333
	C38.4,399.96,8.533,343.426,1.067,281.56l9.6-18.133C11.733,260.227,43.733,274.093,67.2,275.16z"/>
<path style="fill:#D2D3D3;" d="M407.467,292.227c-3.2-5.333-7.467-11.733-11.733-18.133c-12.8-17.067-24.533-30.933-24.533-30.933
	s-36.267,3.2-67.2,7.467c-25.6,4.267-44.8,9.6-44.8,9.6l-41.6,97.067l33.067,43.733l26.667,36.267c0,0,56.533,0,94.933-13.867
	c2.133-1.067,5.333-2.133,7.467-3.2c0,0,40.533-62.933,41.6-106.667C421.333,314.626,414.933,303.96,407.467,292.227z"/>
<g>
	<path style="fill:#637888;" d="M20.267,152.493l68.267-27.733c6.4,22.4,24.533,55.467,24.533,55.467c-3.2,2.133-6.4,5.333-9.6,9.6
		C90.667,203.693,70.4,233.56,67.2,274.093l-56.533-13.867C6.4,250.627,3.2,238.893,0,226.093c0-2.133,0-3.2,0-5.333
		C4.267,197.293,10.667,173.826,20.267,152.493z"/>
	<path style="fill:#637888;" d="M86.4,110.893C86.4,109.827,86.4,109.827,86.4,110.893C86.4,109.827,86.4,109.827,86.4,110.893z"/>
	<path style="fill:#637888;" d="M86.4,107.693C86.4,106.627,86.4,106.627,86.4,107.693L86.4,107.693z"/>
	<path style="fill:#637888;" d="M86.4,107.693L86.4,107.693L86.4,107.693z"/>
	<path style="fill:#637888;" d="M86.4,109.827v-1.067C86.4,108.76,86.4,108.76,86.4,109.827z"/>
	<path style="fill:#637888;" d="M86.4,110.893L86.4,110.893L86.4,110.893z"/>
	<path style="fill:#637888;" d="M88.533,124.76l-68.267,27.733c1.067-3.2,3.2-6.4,4.267-10.667
		C52.267,126.893,86.4,110.893,86.4,110.893C86.4,114.093,87.467,119.426,88.533,124.76z"/>
	<path style="fill:#637888;" d="M86.4,109.827L86.4,109.827L86.4,109.827z"/>
	<path style="fill:#637888;" d="M86.4,108.76C86.4,108.76,86.4,107.693,86.4,108.76C86.4,107.693,86.4,108.76,86.4,108.76z"/>
	<path style="fill:#637888;" d="M11.733,260.227l56.533,13.867C43.733,274.093,11.733,260.227,11.733,260.227z"/>
	<path style="fill:#637888;" d="M217.6,357.293l33.067,43.733l-32,20.267l-18.133,23.467l-89.6-10.667v-77.867
		C110.933,356.227,186.667,372.227,217.6,357.293z"/>
	<path style="fill:#637888;" d="M200.533,444.76l18.133-23.467l32-19.2l26.667,36.267c0,0-35.2,45.867-56.533,52.267l1.067-43.733
		L200.533,444.76z"/>
	<path style="fill:#637888;" d="M194.133,452.227l1.067,34.133c-30.933-10.667-75.733-36.267-84.267-52.267l89.6,10.667
		L194.133,452.227z"/>
	<path style="fill:#637888;" d="M200.533,444.76l22.4,2.133l-1.067,43.733c-5.333,2.133-14.933,0-26.667-4.267l-1.067-34.133
		L200.533,444.76z"/>
	<path style="fill:#637888;" d="M110.933,356.227v77.867C109.867,434.093,101.333,389.293,110.933,356.227z"/>
	<path style="fill:#637888;" d="M370.133,243.16L370.133,243.16c-21.333,1.067-45.867,4.267-66.133,8.533
		c-20.267,3.2-38.4,6.4-44.8,9.6c-1.067-3.2-3.2-8.533-6.4-13.867c-9.6-18.133-27.733-52.267-49.067-77.867
		c20.267-30.933,76.8-70.4,76.8-70.4c2.133,0,4.267,0,6.4,1.067c34.133,5.333,90.667,42.667,90.667,42.667
		S364.8,182.36,370.133,243.16L370.133,243.16"/>
	<path style="fill:#637888;" d="M259.2,260.227c6.4-3.2,24.533-6.4,44.8-9.6C278.4,255.96,259.2,260.227,259.2,260.227z"/>
	<path style="fill:#637888;" d="M370.133,243.16L370.133,243.16L370.133,243.16z"/>
</g>
<g>
	<path style="fill:#E0E0DF;" d="M259.2,260.227l-41.6,97.067c-44.8,10.667-106.667-1.067-106.667-1.067l-42.667-82.133h1.067
		c0,0,1.067,0,2.133,0c2.133,0,4.267,0,5.333,0h1.067l0,0c0,0,1.067,0,0,0l0,0H76.8c-1.067,0-3.2,0-5.333,0
		c-1.067,0-1.067,0-2.133,0s-1.067,0-1.067,0s18.133-58.667,36.267-84.267c5.333-6.4,9.6-9.6,9.6-9.6c1.067,0,2.133-1.067,3.2-1.067
		c26.667-8.533,85.333-10.667,85.333-10.667s34.133,50.133,49.067,77.867C257.067,254.893,259.2,260.227,259.2,260.227"/>
	<path style="fill:#E0E0DF;" d="M67.2,275.16l42.667,82.133C75.733,322.093,67.2,275.16,67.2,275.16z"/>
	<path style="fill:#E0E0DF;" d="M69.333,275.16c1.067,0,1.067,0,2.133,0C70.4,275.16,69.333,275.16,69.333,275.16z"/>
	<path style="fill:#E0E0DF;" d="M70.4,275.16c2.133,0,4.267,0,5.333,0C74.667,275.16,72.533,275.16,70.4,275.16z"/>
	<path style="fill:#E0E0DF;" d="M75.733,275.16c1.067,0,1.067,0,1.067,0S76.8,275.16,75.733,275.16z"/>
	<path style="fill:#E0E0DF;" d="M67.2,275.16h1.067C68.267,275.16,68.267,275.16,67.2,275.16z"/>
	<path style="fill:#E0E0DF;" d="M76.8,275.16C77.867,275.16,77.867,275.16,76.8,275.16C77.867,275.16,77.867,275.16,76.8,275.16z"/>
	<path style="fill:#E0E0DF;" d="M104.533,189.826c-19.2,25.6-36.267,84.267-36.267,84.267
		C71.467,233.56,91.733,204.76,104.533,189.826z"/>
	<path style="fill:#E0E0DF;" d="M77.867,275.16L77.867,275.16L77.867,275.16z"/>
	<path style="fill:#E0E0DF;" d="M217.6,357.293c-29.867,13.867-106.667-1.067-106.667-1.067S172.8,369.026,217.6,357.293z"/>
	<path style="fill:#E0E0DF;" d="M252.8,246.36c-16-28.8-49.067-77.867-49.067-77.867C224,195.16,243.2,228.227,252.8,246.36z"/>
</g>
<path style="fill:#D2D3D3;" d="M250.667,37.293c-29.867-4.267-67.2-2.133-85.333,0C157.867,38.36,153.6,38.36,153.6,38.36
	c-32,13.867-67.2,71.467-67.2,71.467c0,2.133,2.133,6.4,4.267,12.8c7.467,20.267,23.467,56.533,23.467,56.533
	c1.067,0,2.133-1.067,3.2-1.067c29.867-10.667,85.333-10.667,85.333-10.667c24.533-40.533,76.8-70.4,76.8-70.4
	S257.067,46.893,250.667,37.293z"/>
<g>
	<path style="fill:#E0E0DF;" d="M114.133,180.227c0,0-18.133-34.133-24.533-55.467l1.067-1.067
		C98.133,143.96,114.133,180.227,114.133,180.227z"/>
	<path style="fill:#E0E0DF;" d="M90.667,123.693l-2.133,1.067c-1.067-5.333-2.133-9.6-2.133-13.867
		C86.4,113.027,88.533,118.36,90.667,123.693z"/>
	<path style="fill:#E0E0DF;" d="M202.667,168.493c24.533-40.533,76.8-70.4,76.8-70.4S222.933,137.56,202.667,168.493z"/>
	<path style="fill:#E0E0DF;" d="M202.667,168.493c0,0-59.733,2.133-85.333,10.667C146.133,168.493,202.667,168.493,202.667,168.493z
		"/>
	<path style="fill:#E0E0DF;" d="M376.533,140.76c0,0-48-37.333-90.667-42.667c-2.133,0-4.267-1.067-6.4-1.067
		c-5.333-23.467-28.8-59.733-28.8-59.733s36.267-23.467,57.6-28.8c2.133,0,4.267,0,5.333,0c5.333,1.067,11.733,3.2,17.067,5.333
		c10.667,4.267,26.667,11.733,41.6,18.133c20.267,11.733,38.4,25.6,54.4,41.6c6.4,11.733,12.8,29.867,12.8,52.267
		c0,0-16-1.067-35.2,4.267C393.6,132.227,381.867,135.426,376.533,140.76z"/>
	<path style="fill:#E0E0DF;" d="M376.533,140.76c0,0-56.533-37.333-90.667-42.667C328.533,103.426,376.533,140.76,376.533,140.76z"
		/>
	<path style="fill:#E0E0DF;" d="M250.667,37.293c0,0,22.4,36.267,28.8,59.733C279.467,98.093,257.067,46.893,250.667,37.293z"/>
</g>
<g>
	<path style="fill:#637888;" d="M250.667,37.293c0,0-49.067-9.6-83.2-3.2l1.067-2.133l-3.2-17.067
		c35.2-12.8,74.667-18.133,114.133-12.8c11.733,1.067,22.4,3.2,33.067,6.4c-1.067,0-3.2,0-4.267,1.067
		C279.467,12.76,250.667,37.293,250.667,37.293z"/>
	<path style="fill:#637888;" d="M167.467,35.16c-5.333,1.067-9.6,2.133-13.867,4.267c0-4.267,2.133-12.8,3.2-20.267
		c3.2-2.133,5.333-3.2,8.533-4.267l3.2,18.133L167.467,35.16z"/>
	<path style="fill:#637888;" d="M165.333,37.293l2.133-3.2c34.133-5.333,83.2,3.2,83.2,3.2
		C220.8,33.027,183.467,36.227,165.333,37.293z"/>
	<path style="fill:#637888;" d="M153.6,39.426c4.267-2.133,8.533-3.2,13.867-4.267l-2.133,2.133
		C157.867,38.36,153.6,39.426,153.6,39.426z"/>
	<path style="fill:#637888;" d="M308.267,8.493c-20.267,5.333-57.6,28.8-57.6,28.8S279.467,12.76,308.267,8.493z"/>
</g>
<g>
	<path style="fill:#E0E0DF;" d="M491.733,183.427c-2.133-6.4-3.2-12.8-6.4-18.133c-21.333-27.733-45.867-39.467-45.867-39.467
		s-18.133,1.067-35.2,4.267c-8.533,2.133-19.2,6.4-28.8,11.733c-7.467,33.067-6.4,102.4-6.4,102.4
		c5.333,3.2,14.933,17.067,24.533,30.933c4.267,5.333,8.533,11.733,12.8,17.067c6.4,8.533,10.667,17.067,13.867,23.467
		c0,0,0-2.133,0-4.267c0,1.067,0,3.2,0,4.267c0,0,27.733,0,52.267-6.4c8.533-2.133,16-5.333,22.4-10.667l5.333-46.933
		C501.333,227.16,498.133,204.76,491.733,183.427z"/>
	<path style="fill:#E0E0DF;" d="M370.133,243.16c5.333,3.2,14.933,17.067,24.533,30.933
		C382.933,257.027,370.133,243.16,370.133,243.16z"/>
	<path style="fill:#E0E0DF;" d="M422.4,294.36L422.4,294.36L422.4,294.36z"/>
	<path style="fill:#E0E0DF;" d="M421.333,307.16c0-1.067,0-3.2,0-4.267C421.333,303.96,421.333,306.093,421.333,307.16z"/>
	<path style="fill:#E0E0DF;" d="M422.4,298.626v-1.067C422.4,297.56,422.4,297.56,422.4,298.626z"/>
	<path style="fill:#E0E0DF;" d="M421.333,302.893c0-2.133,0-3.2,0-4.267C421.333,299.693,421.333,300.76,421.333,302.893z"/>
	<path style="fill:#E0E0DF;" d="M422.4,297.56C422.4,296.493,422.4,296.493,422.4,297.56C422.4,296.493,422.4,296.493,422.4,297.56z
		"/>
	<path style="fill:#E0E0DF;" d="M422.4,296.493c0-1.067,0-1.067,0-1.067C422.4,294.36,422.4,295.427,422.4,296.493z"/>
	<path style="fill:#E0E0DF;" d="M421.333,314.626c0,0,0-2.133,0-4.267C421.333,311.427,421.333,312.493,421.333,314.626z"/>
	<path style="fill:#E0E0DF;" d="M421.333,309.293v-1.067C421.333,309.293,421.333,309.293,421.333,309.293z"/>
	<path style="fill:#E0E0DF;" d="M421.333,308.227c0-1.067,0-1.067,0-2.133C421.333,307.16,421.333,308.227,421.333,308.227z"/>
	<path style="fill:#E0E0DF;" d="M376.533,140.76c-7.467,33.067-6.4,102.4-6.4,102.4C364.8,182.36,376.533,140.76,376.533,140.76z"/>
	<path style="fill:#E0E0DF;" d="M405.333,129.027c-8.533,2.133-19.2,6.4-28.8,11.733C381.867,135.426,393.6,132.227,405.333,129.027
		z"/>
</g>
<g>
	<path style="fill:#637888;" d="M440.533,125.827c0,0,2.133-24.533-7.467-46.933c22.4,23.467,40.533,52.267,52.267,83.2
		C473.6,146.093,458.667,131.16,440.533,125.827z"/>
	<path style="fill:#637888;" d="M427.733,73.56c2.133,2.133,3.2,3.2,5.333,5.333c9.6,22.4,7.467,46.933,7.467,46.933
		C440.533,102.36,434.133,85.293,427.733,73.56z"/>
	<path style="fill:#637888;" d="M440.533,125.827c18.133,5.333,33.067,21.333,43.733,36.267c0,1.067,1.067,2.133,1.067,3.2
		C465.067,136.493,440.533,125.827,440.533,125.827z"/>
</g>
<g>
</g>
<g>
</g>
<g>
</g>
<g>
</g>
<g>
</g>
<g>
</g>
<g>
</g>
<g>
</g>
<g>
</g>
<g>
</g>
<g>
</g>
<g>
</g>
<g>
</g>
<g>
</g>
<g>
</g>
</svg>
