<?xml version="1.0" encoding="iso-8859-1"?>
<!-- Generator: Adobe Illustrator 19.0.0, SVG Export Plug-In . SVG Version: 6.00 Build 0)  -->
<svg version="1.1" id="Layer_1" xmlns="http://www.w3.org/2000/svg" xmlns:xlink="http://www.w3.org/1999/xlink" x="0px" y="0px"
	 viewBox="0 0 501.333 501.333" style="enable-background:new 0 0 501.333 501.333;" xml:space="preserve">
<path style="fill:#E0E0DF;" d="M395.733,452.267c-96,0-193.067,0-289.067,0c0-99.2,0-199.467,0-298.667
	c16-42.667,80-89.6,144-87.467c64-2.133,128,44.8,145.067,87.467C395.733,252.8,395.733,353.067,395.733,452.267z"/>
<rect x="147.453" y="59.084" transform="matrix(-0.7071 0.7071 -0.7071 -0.7071 339.8487 15.7969)" style="fill:#637888;" width="38.4" height="38.4"/>
<rect x="139.733" y="77.867" style="fill:#ABA5A5;" width="54.4" height="291.2"/>
<rect x="314.861" y="58.951" transform="matrix(-0.7071 0.7071 -0.7071 -0.7071 625.5374 -102.8052)" style="fill:#637888;" width="38.4" height="38.4"/>
<rect x="307.2" y="77.867" style="fill:#ABA5A5;" width="54.4" height="291.2"/>
<path style="fill:#FEC656;" d="M317.867,141.867C315.733,62.933,286.933,0,250.667,0s-65.067,62.933-67.2,141.867l0,0v295.467h134.4
	L317.867,141.867L317.867,141.867z"/>
<path style="fill:#3A5569;" d="M199.467,202.667c-12.8,0-23.467,11.733-23.467,26.667v6.4c0,10.667-4.267,19.2-11.733,24.533
	L22.4,349.867C8.533,358.4,0,376.533,0,394.667V419.2h236.8L199.467,202.667z"/>
<polygon style="fill:#F05453;" points="0,419.2 0,452.267 242.133,452.267 236.8,419.2 "/>
<path style="fill:#3A5569;" d="M301.867,202.667c12.8,0,22.4,12.8,22.4,27.733v6.4c0,10.667,4.267,19.2,11.733,24.533l140.8,89.6
	c13.867,8.533,22.4,26.667,22.4,44.8v24.533H264.533L301.867,202.667z"/>
<polygon style="fill:#F05453;" points="501.333,419.2 501.333,452.267 259.2,452.267 264.533,419.2 "/>
<path style="fill:#FFFFFF;" d="M308.267,210.133c-1.067-67.2-26.667-121.6-57.6-121.6s-56.533,54.4-57.6,121.6l0,0v252.8h115.2
	L308.267,210.133L308.267,210.133z"/>
<g>
	<path style="fill:#53C2EF;" d="M216.533,177.067c-3.2,5.333-4.267,11.733-5.333,17.067c-1.067,6.4,0,12.8,0,16
		c1.067,3.2,2.133,5.333,2.133,5.333h2.133c0,0,1.067-2.133,2.133-5.333s3.2-7.467,6.4-12.8c1.067-2.133,3.2-4.267,4.267-7.467
		L216.533,177.067z"/>
	<path style="fill:#53C2EF;" d="M281.6,177.067l-12.8,13.867c2.133,2.133,3.2,4.267,4.267,7.467c3.2,5.333,4.267,9.6,6.4,12.8
		c1.067,3.2,2.133,5.333,2.133,5.333h2.133c0,0,1.067-2.133,2.133-6.4c1.067-4.267,1.067-9.6,0-16
		C285.867,188.8,284.8,182.4,281.6,177.067z"/>
	<path style="fill:#53C2EF;" d="M275.2,167.467c-2.133-2.133-5.333-5.333-8.533-7.467c-2.133-1.067-5.333-2.133-8.533-3.2
		c-1.067,0-3.2-1.067-4.267-1.067h-3.2H249.6l0,0l0,0h-1.067h-1.067h-2.133c-1.067,0-3.2,1.067-4.267,1.067
		c-3.2,1.067-5.333,2.133-7.467,3.2c-3.2,2.133-6.4,4.267-8.533,7.467l13.867,14.933c7.467-4.267,18.133-4.267,24.533,0
		L275.2,167.467z"/>
</g>
<path style="fill:#637888;" d="M231.467,439.467c0-59.733-17.067-107.733-37.333-107.733s-36.267,48-37.333,107.733H231.467z"/>
<rect x="157.867" y="439.467" style="fill:#E0E0DF;" width="73.6" height="42.667"/>
<path style="fill:#637888;" d="M343.467,439.467c0-59.733-17.067-107.733-37.333-107.733s-36.267,48-37.333,107.733H343.467z"/>
<rect x="269.867" y="439.467" style="fill:#E0E0DF;" width="73.6" height="42.667"/>
<g>
	<rect x="157.867" y="482.133" style="fill:#F05453;" width="73.6" height="19.2"/>
	<rect x="269.867" y="482.133" style="fill:#F05453;" width="73.6" height="19.2"/>
</g>
<g>
</g>
<g>
</g>
<g>
</g>
<g>
</g>
<g>
</g>
<g>
</g>
<g>
</g>
<g>
</g>
<g>
</g>
<g>
</g>
<g>
</g>
<g>
</g>
<g>
</g>
<g>
</g>
<g>
</g>
</svg>
