<?xml version="1.0" encoding="iso-8859-1"?>
<!-- Generator: Adobe Illustrator 19.0.0, SVG Export Plug-In . SVG Version: 6.00 Build 0)  -->
<svg version="1.1" id="Layer_1" xmlns="http://www.w3.org/2000/svg" xmlns:xlink="http://www.w3.org/1999/xlink" x="0px" y="0px"
	 viewBox="0 0 501.877 501.877" style="enable-background:new 0 0 501.877 501.877;" xml:space="preserve">
<path style="fill:#637888;" d="M445.072,89.872H56.805c-6.4,0-11.733,5.333-11.733,11.733v246.4c0,6.4,5.333,11.733,11.733,11.733
	h389.333c6.4,0,11.733-5.333,11.733-11.733v-246.4C456.805,95.205,451.472,89.872,445.072,89.872z"/>
<rect x="63.205" y="109.072" style="fill:#E0E0DF;" width="375.467" height="232.533"/>
<path style="fill:#3A5569;" d="M496.272,501.605H5.605c-4.267,0-6.4-3.2-5.333-7.467l42.667-129.067
	c1.067-3.2,4.267-5.333,8.533-5.333h398.933c3.2,0,7.467,2.133,8.533,5.333l42.667,129.067
	C502.672,498.405,500.539,501.605,496.272,501.605z"/>
<g>
	<path style="fill:#60C3AB;" d="M457.872,444.005H44.005c-4.267,0-6.4-3.2-5.333-6.4l17.067-56.533
		c1.067-3.2,4.267-5.333,8.533-5.333h373.333c3.2,0,7.467,2.133,8.533,5.333l17.067,56.533
		C464.272,440.805,462.138,444.005,457.872,444.005z"/>
	<path style="fill:#60C3AB;" d="M294.672,490.939h-87.467c-4.267,0-7.467-3.2-7.467-7.467l1.067-23.467
		c0-4.267,4.267-7.467,7.467-7.467h83.2c4.267,0,7.467,3.2,7.467,7.467l1.067,23.467
		C302.138,487.738,298.939,490.939,294.672,490.939z"/>
</g>
<path style="fill:#E0E0DF;" d="M159.205,23.738L159.205,23.738c0-9.6,7.467-18.133,18.133-18.133c54.4,0,108.8,0,163.2,0
	c-6.4,10.667-6.4,24.533,0,35.2c-54.4,0-108.8,0-163.2,0C167.739,40.805,159.205,33.338,159.205,23.738z"/>
<path style="fill:#E14A4A;" d="M153.872,245.605V23.738l23.467,18.133h170.667v224H173.072
	C162.405,264.805,153.872,256.272,153.872,245.605z"/>
<path style="fill:#F16D6E;" d="M153.872,23.738c0-12.8,10.667-23.467,23.467-23.467h170.667v10.667H177.338
	c-6.4,0-11.733,5.333-11.733,11.733s5.333,11.733,11.733,11.733h170.667v10.667H177.338
	C164.538,47.205,153.872,36.538,153.872,23.738z"/>
<g>
</g>
<g>
</g>
<g>
</g>
<g>
</g>
<g>
</g>
<g>
</g>
<g>
</g>
<g>
</g>
<g>
</g>
<g>
</g>
<g>
</g>
<g>
</g>
<g>
</g>
<g>
</g>
<g>
</g>
</svg>
