<?xml version="1.0" encoding="iso-8859-1"?>
<!-- Generator: Adobe Illustrator 19.0.0, SVG Export Plug-In . SVG Version: 6.00 Build 0)  -->
<svg version="1.1" id="Layer_1" xmlns="http://www.w3.org/2000/svg" xmlns:xlink="http://www.w3.org/1999/xlink" x="0px" y="0px"
	 viewBox="0 0 501.333 501.333" style="enable-background:new 0 0 501.333 501.333;" xml:space="preserve">
<path style="fill:#3A5569;" d="M254.933,337.067c-7.467,0-14.933,6.4-14.933,14.933v131.2c0,8.533,6.4,14.933,14.933,14.933
	c8.533,0,14.933-6.4,14.933-14.933V353.067C269.867,344.533,263.467,337.067,254.933,337.067z"/>
<path style="fill:#637888;" d="M0,199.467L0,199.467c0,0,68.267,186.667,250.667,186.667c174.933,0,250.667-186.667,250.667-186.667
	l0,0C432,217.6,345.6,228.267,250.667,228.267S69.333,217.6,0,199.467z"/>
<path style="fill:#60C3AB;" d="M0,199.467c69.333,18.133,155.733,28.8,250.667,28.8S432,217.6,501.333,200.533l-250.667-144
	L0,199.467z"/>
<path style="fill:#FEC656;" d="M250.667,0C194.133,0,147.2,49.067,147.2,109.867c0,2.133,0,4.267,0,6.4
	c27.733,11.733,62.933,19.2,103.467,19.2s75.733-7.467,103.467-19.2c0-2.133,0-4.267,0-6.4C354.133,49.067,307.2,0,250.667,0z"/>
<g>
	<path style="fill:#3A5569;" d="M22.4,501.333c-3.2,0-6.4-1.067-9.6-3.2C6.4,492.8,5.333,483.2,10.667,476.8L128,327.467
		c5.333-6.4,13.867-7.467,20.267-2.133c6.4,5.333,7.467,14.933,2.133,21.333L33.067,496C30.933,499.2,26.667,501.333,22.4,501.333z"
		/>
	<path style="fill:#3A5569;" d="M478.933,501.333c3.2,0,6.4-1.067,9.6-3.2c6.4-5.333,7.467-14.933,2.133-21.333L373.333,327.467
		c-5.333-6.4-13.867-7.467-20.267-2.133c-6.4,5.333-7.467,14.933-2.133,21.333L468.267,496
		C470.4,499.2,474.667,501.333,478.933,501.333z"/>
</g>
<path style="fill:#47A88E;" d="M147.2,138.667l-98.133,54.4c0,0,117.333,27.733,277.333,19.2L134.4,176L147.2,138.667z"/>
<path style="fill:#EF9F2C;" d="M160,106.667c0,0,17.067-91.733,94.933-90.667c0,0-55.467,44.8-59.733,98.133L160,106.667z"/>
<g>
</g>
<g>
</g>
<g>
</g>
<g>
</g>
<g>
</g>
<g>
</g>
<g>
</g>
<g>
</g>
<g>
</g>
<g>
</g>
<g>
</g>
<g>
</g>
<g>
</g>
<g>
</g>
<g>
</g>
</svg>
