<?xml version="1.0" encoding="iso-8859-1"?>
<!-- Generator: Adobe Illustrator 19.0.0, SVG Export Plug-In . SVG Version: 6.00 Build 0)  -->
<svg version="1.1" id="Layer_1" xmlns="http://www.w3.org/2000/svg" xmlns:xlink="http://www.w3.org/1999/xlink" x="0px" y="0px"
	 viewBox="0 0 502.133 502.133" style="enable-background:new 0 0 502.133 502.133;" xml:space="preserve">
<path style="fill:#E8EAE9;" d="M151.204,64l-144,142.933c-9.6,9.6-9.6,24.533,0,33.067l254.933,254.933c9.6,9.6,24.533,9.6,33.067,0
	L438.138,352c9.6-9.6,9.6-24.533,0-33.067L184.271,64C174.671,54.4,159.738,54.4,151.204,64z"/>
<circle style="fill:#F16D6E;" cx="98.938" cy="235.733" r="40.533"/>
<circle style="fill:#FEC656;" cx="182.138" cy="318.933" r="40.533"/>
<circle style="fill:#60C3AB;" cx="266.404" cy="403.2" r="40.533"/>
<circle style="fill:#53C2EF;" cx="178.938" cy="154.667" r="40.533"/>
<circle style="fill:#B06D48;" cx="263.204" cy="238.933" r="40.533"/>
<circle style="fill:#80C350;" cx="347.471" cy="323.2" r="40.533"/>
<path style="fill:#637888;" d="M500.004,273.067c13.867-13.867-41.6-91.733-123.733-173.867l-50.133,51.2
	C408.271,231.467,486.138,286.933,500.004,273.067z"/>
<polygon style="fill:#E0E0DF;" points="315.471,55.467 282.404,88.533 326.138,150.4 376.271,100.267 "/>
<path style="fill:#F16D6E;" d="M282.404,89.6l33.067-34.133c-3.2-16-7.467-33.067-20.267-43.733C285.604,3.2,272.804,0,260.004,0
	c-12.8,0-24.533,3.2-37.333,7.467c11.733,4.267,18.133,17.067,21.333,28.8c3.2,11.733,3.2,24.533,8.533,36.267
	C257.871,83.2,270.671,91.733,282.404,89.6z"/>
<g>
</g>
<g>
</g>
<g>
</g>
<g>
</g>
<g>
</g>
<g>
</g>
<g>
</g>
<g>
</g>
<g>
</g>
<g>
</g>
<g>
</g>
<g>
</g>
<g>
</g>
<g>
</g>
<g>
</g>
</svg>
