<?xml version="1.0" encoding="iso-8859-1"?>
<!-- Generator: Adobe Illustrator 19.0.0, SVG Export Plug-In . SVG Version: 6.00 Build 0)  -->
<svg version="1.1" id="Layer_1" xmlns="http://www.w3.org/2000/svg" xmlns:xlink="http://www.w3.org/1999/xlink" x="0px" y="0px"
	 viewBox="0 0 501.333 501.333" style="enable-background:new 0 0 501.333 501.333;" xml:space="preserve">
<circle style="fill:#53C2EF;" cx="250.667" cy="250.667" r="250.667"/>
<g>
	<path style="fill:#FFFFFF;" d="M250.667,476.8c-124.8,0-226.133-101.333-226.133-226.133S125.867,24.533,250.667,24.533
		S476.8,125.867,476.8,250.667S375.467,476.8,250.667,476.8z M250.667,46.933c-112,0-203.733,91.733-203.733,203.733
		S138.667,454.4,250.667,454.4S454.4,362.667,454.4,250.667S362.667,46.933,250.667,46.933z"/>
	<path style="fill:#FFFFFF;" d="M250.667,476.8c-76.8,0-136.533-99.2-136.533-226.133S173.867,24.533,250.667,24.533
		S387.2,123.733,387.2,250.667S327.467,476.8,250.667,476.8z M250.667,46.933c-62.933,0-114.133,91.733-114.133,203.733
		S187.733,454.4,250.667,454.4S364.8,362.667,364.8,250.667S313.6,46.933,250.667,46.933z"/>
	<rect x="238.933" y="36.267" style="fill:#FFFFFF;" width="22.4" height="428.8"/>
	<rect x="67.2" y="128" style="fill:#FFFFFF;" width="366.933" height="22.4"/>
	<rect x="36.267" y="238.933" style="fill:#FFFFFF;" width="428.8" height="22.4"/>
	<rect x="67.2" y="350.933" style="fill:#FFFFFF;" width="366.933" height="22.4"/>
</g>
<g>
</g>
<g>
</g>
<g>
</g>
<g>
</g>
<g>
</g>
<g>
</g>
<g>
</g>
<g>
</g>
<g>
</g>
<g>
</g>
<g>
</g>
<g>
</g>
<g>
</g>
<g>
</g>
<g>
</g>
</svg>
